M48
; DRILL file {KiCad 7.0.11} date Mon Mar 31 22:51:49 2025
; FORMAT={-:-/ absolute / inch / decimal}
; #@! TF.CreationDate,2025-03-31T22:51:49+09:00
; #@! TF.GenerationSoftware,Kicad,Pcbnew,7.0.11
; #@! TF.FileFunction,Plated,1,4,PTH
FMAT,2
INCH
; #@! TA.AperFunction,Plated,PTH,ViaDrill
T1C0.0118
; #@! TA.AperFunction,Plated,PTH,ComponentDrill
T2C0.0394
%
G90
G05
T1
X5.3543Y-3.5728
X5.3543Y-3.6516
X5.3543Y-4.2224
X5.3543Y-4.3012
X5.4331Y-3.5728
X5.4331Y-3.6516
X5.4331Y-4.2224
X5.4724Y-3.937
X5.4724Y-4.0354
X5.4724Y-4.1339
X5.5079Y-3.8976
X5.5315Y-3.3858
X5.5315Y-3.4646
X5.5413Y-3.6713
X5.5413Y-3.7303
X5.5413Y-3.7894
X5.5413Y-4.4094
X5.5413Y-4.4882
X5.5906Y-3.5748
X5.5906Y-3.6063
X5.5906Y-3.6378
X5.5906Y-3.6693
X5.5906Y-3.7008
X5.5906Y-3.7323
X5.5906Y-3.7638
X5.6102Y-3.3858
X5.6102Y-3.4646
X5.6201Y-4.4094
X5.6201Y-4.4882
X5.626Y-4.2717
X5.6339Y-4.1732
X5.6791Y-4.2224
X5.6791Y-4.3209
X5.6791Y-4.3799
X5.7185Y-3.4843
X5.7185Y-3.5335
X5.7185Y-3.6417
X5.7283Y-4.2717
X5.7402Y-3.8386
X5.748Y-3.7559
X5.7638Y-3.9173
X5.7677Y-4.3209
X5.7776Y-3.4843
X5.7776Y-3.5335
X5.7776Y-3.6417
X5.7795Y-3.7559
X5.7835Y-4.0984
X5.7835Y-4.1299
X5.8071Y-3.878
X5.815Y-4.0984
X5.815Y-4.1299
X5.8268Y-3.4646
X5.8268Y-3.5236
X5.8425Y-3.7559
X5.8661Y-4.4193
X5.8661Y-4.4882
X5.874Y-3.7559
X5.878Y-4.3189
X5.9055Y-3.8632
X5.9055Y-3.4646
X5.9055Y-3.5236
X5.9055Y-3.6024
X5.937Y-3.748
X5.937Y-3.8632
X5.9449Y-4.4193
X5.9449Y-4.4882
X5.9488Y-4.3189
X5.9685Y-3.748
X5.9843Y-3.4646
X6.0Y-3.748
X6.0039Y-4.0984
X6.0039Y-4.1299
X6.0315Y-3.748
X6.0335Y-3.6417
X6.0335Y-3.6909
X6.0354Y-4.0984
X6.0354Y-4.1299
X6.063Y-3.748
X6.0669Y-4.0984
X6.0669Y-4.1299
X6.0827Y-3.6417
X6.0827Y-3.6909
X6.1378Y-3.5118
X6.1772Y-3.6693
X6.1772Y-3.7008
X6.1772Y-3.7323
X6.2047Y-4.189
X6.2047Y-4.2598
X6.2047Y-4.3854
X6.2106Y-3.3858
X6.2106Y-3.4646
X6.2264Y-3.7323
X6.2402Y-3.9843
X6.2638Y-4.3854
X6.2795Y-3.3858
X6.2795Y-3.4646
X6.2874Y-3.6872
X6.2992Y-4.0354
X6.3465Y-4.1142
X6.378Y-3.5827
X6.378Y-3.6614
X6.4567Y-3.5827
X6.4567Y-3.6614
T2
X5.3937Y-3.7878
X5.3937Y-3.8878
X5.3937Y-3.9878
X5.3937Y-4.0878
X6.4173Y-3.7878
X6.4173Y-3.8878
X6.4173Y-3.9878
X6.4173Y-4.0878
M30
