%TF.GenerationSoftware,KiCad,Pcbnew,7.0.11*%
%TF.CreationDate,2025-03-31T22:51:49+09:00*%
%TF.ProjectId,sch16t_evt,73636831-3674-45f6-9576-742e6b696361,rev?*%
%TF.SameCoordinates,Original*%
%TF.FileFunction,Soldermask,Top*%
%TF.FilePolarity,Negative*%
%FSLAX46Y46*%
G04 Gerber Fmt 4.6, Leading zero omitted, Abs format (unit mm)*
G04 Created by KiCad (PCBNEW 7.0.11) date 2025-03-31 22:51:49*
%MOMM*%
%LPD*%
G01*
G04 APERTURE LIST*
G04 Aperture macros list*
%AMRoundRect*
0 Rectangle with rounded corners*
0 $1 Rounding radius*
0 $2 $3 $4 $5 $6 $7 $8 $9 X,Y pos of 4 corners*
0 Add a 4 corners polygon primitive as box body*
4,1,4,$2,$3,$4,$5,$6,$7,$8,$9,$2,$3,0*
0 Add four circle primitives for the rounded corners*
1,1,$1+$1,$2,$3*
1,1,$1+$1,$4,$5*
1,1,$1+$1,$6,$7*
1,1,$1+$1,$8,$9*
0 Add four rect primitives between the rounded corners*
20,1,$1+$1,$2,$3,$4,$5,0*
20,1,$1+$1,$4,$5,$6,$7,0*
20,1,$1+$1,$6,$7,$8,$9,0*
20,1,$1+$1,$8,$9,$2,$3,0*%
G04 Aperture macros list end*
%ADD10RoundRect,0.112500X-0.187500X-0.112500X0.187500X-0.112500X0.187500X0.112500X-0.187500X0.112500X0*%
%ADD11RoundRect,0.140000X0.170000X-0.140000X0.170000X0.140000X-0.170000X0.140000X-0.170000X-0.140000X0*%
%ADD12C,2.200000*%
%ADD13R,1.700000X1.700000*%
%ADD14O,1.700000X1.700000*%
%ADD15RoundRect,0.135000X0.185000X-0.135000X0.185000X0.135000X-0.185000X0.135000X-0.185000X-0.135000X0*%
%ADD16RoundRect,0.135000X-0.185000X0.135000X-0.185000X-0.135000X0.185000X-0.135000X0.185000X0.135000X0*%
%ADD17RoundRect,0.250000X-0.475000X0.250000X-0.475000X-0.250000X0.475000X-0.250000X0.475000X0.250000X0*%
%ADD18RoundRect,0.243750X-0.243750X-0.456250X0.243750X-0.456250X0.243750X0.456250X-0.243750X0.456250X0*%
%ADD19RoundRect,0.150000X-0.150000X-0.200000X0.150000X-0.200000X0.150000X0.200000X-0.150000X0.200000X0*%
%ADD20RoundRect,0.140000X-0.140000X-0.170000X0.140000X-0.170000X0.140000X0.170000X-0.140000X0.170000X0*%
%ADD21RoundRect,0.102000X-0.325000X0.525000X-0.325000X-0.525000X0.325000X-0.525000X0.325000X0.525000X0*%
%ADD22C,0.650000*%
%ADD23RoundRect,0.150000X-0.150000X-0.425000X0.150000X-0.425000X0.150000X0.425000X-0.150000X0.425000X0*%
%ADD24RoundRect,0.075000X-0.075000X-0.500000X0.075000X-0.500000X0.075000X0.500000X-0.075000X0.500000X0*%
%ADD25RoundRect,0.250000X-0.840000X-0.750000X0.840000X-0.750000X0.840000X0.750000X-0.840000X0.750000X0*%
%ADD26R,2.000000X0.500000*%
%ADD27RoundRect,0.225000X-0.225000X-0.250000X0.225000X-0.250000X0.225000X0.250000X-0.225000X0.250000X0*%
%ADD28RoundRect,0.140000X0.140000X0.170000X-0.140000X0.170000X-0.140000X-0.170000X0.140000X-0.170000X0*%
%ADD29RoundRect,0.135000X0.135000X0.185000X-0.135000X0.185000X-0.135000X-0.185000X0.135000X-0.185000X0*%
G04 APERTURE END LIST*
D10*
%TO.C,D6*%
X158200000Y-96200000D03*
X160300000Y-96200000D03*
%TD*%
D11*
%TO.C,C13*%
X159000000Y-91075000D03*
X159000000Y-90115000D03*
%TD*%
D12*
%TO.C,REF\u002A\u002A*%
X162000000Y-88000000D03*
%TD*%
D13*
%TO.C,J3*%
X137000000Y-96210000D03*
D14*
X137000000Y-98750000D03*
X137000000Y-101290000D03*
X137000000Y-103830000D03*
%TD*%
D15*
%TO.C,R9*%
X151000000Y-91120000D03*
X151000000Y-90100000D03*
%TD*%
D16*
%TO.C,R6*%
X141300000Y-99000000D03*
X141300000Y-100020000D03*
%TD*%
D12*
%TO.C,REF\u002A\u002A*%
X162000000Y-112000000D03*
%TD*%
D16*
%TO.C,R7*%
X142000000Y-106250000D03*
X142000000Y-107270000D03*
%TD*%
D17*
%TO.C,C4*%
X141250000Y-102800000D03*
X141250000Y-104700000D03*
%TD*%
D18*
%TO.C,D7*%
X138750000Y-106770000D03*
X140625000Y-106770000D03*
%TD*%
D19*
%TO.C,D3*%
X159000000Y-106400000D03*
X157600000Y-106400000D03*
%TD*%
D20*
%TO.C,C9*%
X158500000Y-101200000D03*
X159460000Y-101200000D03*
%TD*%
D21*
%TO.C,SW1*%
X156000000Y-86925000D03*
X156000000Y-91075000D03*
X153850000Y-86925000D03*
X153850000Y-91075000D03*
%TD*%
D11*
%TO.C,C10*%
X157700000Y-91075000D03*
X157700000Y-90115000D03*
%TD*%
D22*
%TO.C,J2*%
X147110000Y-108395000D03*
X152890000Y-108395000D03*
D23*
X146800000Y-107320000D03*
X147600000Y-107320000D03*
D24*
X148750000Y-107320000D03*
X149750000Y-107320000D03*
X150250000Y-107320000D03*
X151250000Y-107320000D03*
D23*
X152400000Y-107320000D03*
X153200000Y-107320000D03*
X153200000Y-107320000D03*
X152400000Y-107320000D03*
D24*
X151750000Y-107320000D03*
X150750000Y-107320000D03*
X149250000Y-107320000D03*
X148250000Y-107320000D03*
D23*
X147600000Y-107320000D03*
X146800000Y-107320000D03*
D25*
X144890000Y-107895000D03*
X144890000Y-111825000D03*
X155110000Y-107895000D03*
X155110000Y-111825000D03*
%TD*%
D16*
%TO.C,R3*%
X157600000Y-111390000D03*
X157600000Y-112410000D03*
%TD*%
D26*
%TO.C,U2*%
X144000000Y-95600000D03*
X144000000Y-96400000D03*
X144000000Y-97200000D03*
X144000000Y-98000000D03*
X144000000Y-98800000D03*
X144000000Y-99600000D03*
X144000000Y-100400000D03*
X144000000Y-101200000D03*
X144000000Y-102000000D03*
X144000000Y-102800000D03*
X144000000Y-103600000D03*
X144000000Y-104400000D03*
X156000000Y-104400000D03*
X156000000Y-103600000D03*
X156000000Y-102800000D03*
X156000000Y-102000000D03*
X156000000Y-101200000D03*
X156000000Y-100400000D03*
X156000000Y-99600000D03*
X156000000Y-98800000D03*
X156000000Y-98000000D03*
X156000000Y-97200000D03*
X156000000Y-96400000D03*
X156000000Y-95600000D03*
%TD*%
D27*
%TO.C,C7*%
X158500000Y-99700000D03*
X160050000Y-99700000D03*
%TD*%
D21*
%TO.C,SW2*%
X146000000Y-86925000D03*
X146000000Y-91075000D03*
X143850000Y-86925000D03*
X143850000Y-91075000D03*
%TD*%
D27*
%TO.C,C6*%
X158500000Y-103613000D03*
X160050000Y-103613000D03*
%TD*%
D19*
%TO.C,D4*%
X159000000Y-108200000D03*
X157600000Y-108200000D03*
%TD*%
%TO.C,D2*%
X159000000Y-110000000D03*
X157600000Y-110000000D03*
%TD*%
D15*
%TO.C,R1*%
X142000000Y-109520000D03*
X142000000Y-108500000D03*
%TD*%
D28*
%TO.C,C3*%
X141300000Y-101200000D03*
X140340000Y-101200000D03*
%TD*%
D18*
%TO.C,D1*%
X138750000Y-109000000D03*
X140625000Y-109000000D03*
%TD*%
D12*
%TO.C,REF\u002A\u002A*%
X138000000Y-112000000D03*
%TD*%
D11*
%TO.C,C14*%
X147800000Y-91075000D03*
X147800000Y-90115000D03*
%TD*%
D13*
%TO.C,J4*%
X163000000Y-96210000D03*
D14*
X163000000Y-98750000D03*
X163000000Y-101290000D03*
X163000000Y-103830000D03*
%TD*%
D16*
%TO.C,R4*%
X159100000Y-111390000D03*
X159100000Y-112410000D03*
%TD*%
D29*
%TO.C,R8*%
X158720000Y-93200000D03*
X157700000Y-93200000D03*
%TD*%
D12*
%TO.C,REF\u002A\u002A*%
X138000000Y-88000000D03*
%TD*%
M02*
