%TF.GenerationSoftware,KiCad,Pcbnew,7.0.11*%
%TF.CreationDate,2025-03-31T22:51:49+09:00*%
%TF.ProjectId,sch16t_evt,73636831-3674-45f6-9576-742e6b696361,rev?*%
%TF.SameCoordinates,Original*%
%TF.FileFunction,Legend,Bot*%
%TF.FilePolarity,Positive*%
%FSLAX46Y46*%
G04 Gerber Fmt 4.6, Leading zero omitted, Abs format (unit mm)*
G04 Created by KiCad (PCBNEW 7.0.11) date 2025-03-31 22:51:49*
%MOMM*%
%LPD*%
G01*
G04 APERTURE LIST*
G04 Aperture macros list*
%AMRoundRect*
0 Rectangle with rounded corners*
0 $1 Rounding radius*
0 $2 $3 $4 $5 $6 $7 $8 $9 X,Y pos of 4 corners*
0 Add a 4 corners polygon primitive as box body*
4,1,4,$2,$3,$4,$5,$6,$7,$8,$9,$2,$3,0*
0 Add four circle primitives for the rounded corners*
1,1,$1+$1,$2,$3*
1,1,$1+$1,$4,$5*
1,1,$1+$1,$6,$7*
1,1,$1+$1,$8,$9*
0 Add four rect primitives between the rounded corners*
20,1,$1+$1,$2,$3,$4,$5,0*
20,1,$1+$1,$4,$5,$6,$7,0*
20,1,$1+$1,$6,$7,$8,$9,0*
20,1,$1+$1,$8,$9,$2,$3,0*%
G04 Aperture macros list end*
%ADD10C,0.100000*%
%ADD11C,0.150000*%
%ADD12C,0.120000*%
%ADD13C,0.127000*%
%ADD14C,0.200000*%
%ADD15C,0.010000*%
%ADD16C,2.200000*%
%ADD17R,1.700000X1.700000*%
%ADD18O,1.700000X1.700000*%
%ADD19C,0.650000*%
%ADD20RoundRect,0.250000X0.325000X0.650000X-0.325000X0.650000X-0.325000X-0.650000X0.325000X-0.650000X0*%
%ADD21RoundRect,0.250000X0.650000X-0.325000X0.650000X0.325000X-0.650000X0.325000X-0.650000X-0.325000X0*%
%ADD22RoundRect,0.150000X0.150000X-0.512500X0.150000X0.512500X-0.150000X0.512500X-0.150000X-0.512500X0*%
%ADD23RoundRect,0.225000X-0.225000X-0.250000X0.225000X-0.250000X0.225000X0.250000X-0.225000X0.250000X0*%
%ADD24RoundRect,0.150000X-0.150000X0.587500X-0.150000X-0.587500X0.150000X-0.587500X0.150000X0.587500X0*%
%ADD25RoundRect,0.250000X0.250000X1.500000X-0.250000X1.500000X-0.250000X-1.500000X0.250000X-1.500000X0*%
%ADD26RoundRect,0.250001X0.499999X1.449999X-0.499999X1.449999X-0.499999X-1.449999X0.499999X-1.449999X0*%
%ADD27RoundRect,0.135000X0.185000X-0.135000X0.185000X0.135000X-0.185000X0.135000X-0.185000X-0.135000X0*%
%ADD28RoundRect,0.150000X0.512500X0.150000X-0.512500X0.150000X-0.512500X-0.150000X0.512500X-0.150000X0*%
%ADD29RoundRect,0.135000X-0.185000X0.135000X-0.185000X-0.135000X0.185000X-0.135000X0.185000X0.135000X0*%
%ADD30RoundRect,0.102000X0.400000X0.200000X-0.400000X0.200000X-0.400000X-0.200000X0.400000X-0.200000X0*%
%ADD31RoundRect,0.102000X0.200000X0.400000X-0.200000X0.400000X-0.200000X-0.400000X0.200000X-0.400000X0*%
%ADD32RoundRect,0.102000X0.725000X0.725000X-0.725000X0.725000X-0.725000X-0.725000X0.725000X-0.725000X0*%
%ADD33RoundRect,0.102000X0.350000X0.350000X-0.350000X0.350000X-0.350000X-0.350000X0.350000X-0.350000X0*%
%ADD34RoundRect,0.112500X0.187500X0.112500X-0.187500X0.112500X-0.187500X-0.112500X0.187500X-0.112500X0*%
G04 APERTURE END LIST*
D10*
X153177068Y-105539800D02*
X152034211Y-105539800D01*
X152605639Y-106111228D02*
X152605639Y-104968371D01*
X144734211Y-110175800D02*
X144767544Y-110142466D01*
X144767544Y-110142466D02*
X144834211Y-110109133D01*
X144834211Y-110109133D02*
X144900877Y-110109133D01*
X144900877Y-110109133D02*
X144967544Y-110142466D01*
X144967544Y-110142466D02*
X145000877Y-110175800D01*
X145000877Y-110175800D02*
X145034211Y-110242466D01*
X145034211Y-110242466D02*
X145034211Y-110309133D01*
X145034211Y-110309133D02*
X145000877Y-110375800D01*
X145000877Y-110375800D02*
X144967544Y-110409133D01*
X144967544Y-110409133D02*
X144900877Y-110442466D01*
X144900877Y-110442466D02*
X144834211Y-110442466D01*
X144834211Y-110442466D02*
X144767544Y-110409133D01*
X144767544Y-110409133D02*
X144734211Y-110375800D01*
X144734211Y-110109133D02*
X144734211Y-110375800D01*
X144734211Y-110375800D02*
X144700877Y-110409133D01*
X144700877Y-110409133D02*
X144667544Y-110409133D01*
X144667544Y-110409133D02*
X144600877Y-110375800D01*
X144600877Y-110375800D02*
X144567544Y-110309133D01*
X144567544Y-110309133D02*
X144567544Y-110142466D01*
X144567544Y-110142466D02*
X144634211Y-110042466D01*
X144634211Y-110042466D02*
X144734211Y-109975800D01*
X144734211Y-109975800D02*
X144867544Y-109942466D01*
X144867544Y-109942466D02*
X145000877Y-109975800D01*
X145000877Y-109975800D02*
X145100877Y-110042466D01*
X145100877Y-110042466D02*
X145167544Y-110142466D01*
X145167544Y-110142466D02*
X145200877Y-110275800D01*
X145200877Y-110275800D02*
X145167544Y-110409133D01*
X145167544Y-110409133D02*
X145100877Y-110509133D01*
X145100877Y-110509133D02*
X145000877Y-110575800D01*
X145000877Y-110575800D02*
X144867544Y-110609133D01*
X144867544Y-110609133D02*
X144734211Y-110575800D01*
X144734211Y-110575800D02*
X144634211Y-110509133D01*
X144267544Y-110509133D02*
X144267544Y-109809133D01*
X144267544Y-109809133D02*
X144034211Y-110309133D01*
X144034211Y-110309133D02*
X143800877Y-109809133D01*
X143800877Y-109809133D02*
X143800877Y-110509133D01*
X143467544Y-110509133D02*
X143467544Y-109809133D01*
X143134211Y-110509133D02*
X143134211Y-109809133D01*
X143134211Y-109809133D02*
X142734211Y-110509133D01*
X142734211Y-110509133D02*
X142734211Y-109809133D01*
X142500878Y-109809133D02*
X142100878Y-109809133D01*
X142300878Y-110509133D02*
X142300878Y-109809133D01*
X141834212Y-110509133D02*
X141700878Y-110509133D01*
X141700878Y-110509133D02*
X141634212Y-110475800D01*
X141634212Y-110475800D02*
X141600878Y-110442466D01*
X141600878Y-110442466D02*
X141534212Y-110342466D01*
X141534212Y-110342466D02*
X141500878Y-110209133D01*
X141500878Y-110209133D02*
X141500878Y-109942466D01*
X141500878Y-109942466D02*
X141534212Y-109875800D01*
X141534212Y-109875800D02*
X141567545Y-109842466D01*
X141567545Y-109842466D02*
X141634212Y-109809133D01*
X141634212Y-109809133D02*
X141767545Y-109809133D01*
X141767545Y-109809133D02*
X141834212Y-109842466D01*
X141834212Y-109842466D02*
X141867545Y-109875800D01*
X141867545Y-109875800D02*
X141900878Y-109942466D01*
X141900878Y-109942466D02*
X141900878Y-110109133D01*
X141900878Y-110109133D02*
X141867545Y-110175800D01*
X141867545Y-110175800D02*
X141834212Y-110209133D01*
X141834212Y-110209133D02*
X141767545Y-110242466D01*
X141767545Y-110242466D02*
X141634212Y-110242466D01*
X141634212Y-110242466D02*
X141567545Y-110209133D01*
X141567545Y-110209133D02*
X141534212Y-110175800D01*
X141534212Y-110175800D02*
X141500878Y-110109133D01*
X141100878Y-110109133D02*
X141167545Y-110075800D01*
X141167545Y-110075800D02*
X141200878Y-110042466D01*
X141200878Y-110042466D02*
X141234211Y-109975800D01*
X141234211Y-109975800D02*
X141234211Y-109942466D01*
X141234211Y-109942466D02*
X141200878Y-109875800D01*
X141200878Y-109875800D02*
X141167545Y-109842466D01*
X141167545Y-109842466D02*
X141100878Y-109809133D01*
X141100878Y-109809133D02*
X140967545Y-109809133D01*
X140967545Y-109809133D02*
X140900878Y-109842466D01*
X140900878Y-109842466D02*
X140867545Y-109875800D01*
X140867545Y-109875800D02*
X140834211Y-109942466D01*
X140834211Y-109942466D02*
X140834211Y-109975800D01*
X140834211Y-109975800D02*
X140867545Y-110042466D01*
X140867545Y-110042466D02*
X140900878Y-110075800D01*
X140900878Y-110075800D02*
X140967545Y-110109133D01*
X140967545Y-110109133D02*
X141100878Y-110109133D01*
X141100878Y-110109133D02*
X141167545Y-110142466D01*
X141167545Y-110142466D02*
X141200878Y-110175800D01*
X141200878Y-110175800D02*
X141234211Y-110242466D01*
X141234211Y-110242466D02*
X141234211Y-110375800D01*
X141234211Y-110375800D02*
X141200878Y-110442466D01*
X141200878Y-110442466D02*
X141167545Y-110475800D01*
X141167545Y-110475800D02*
X141100878Y-110509133D01*
X141100878Y-110509133D02*
X140967545Y-110509133D01*
X140967545Y-110509133D02*
X140900878Y-110475800D01*
X140900878Y-110475800D02*
X140867545Y-110442466D01*
X140867545Y-110442466D02*
X140834211Y-110375800D01*
X140834211Y-110375800D02*
X140834211Y-110242466D01*
X140834211Y-110242466D02*
X140867545Y-110175800D01*
X140867545Y-110175800D02*
X140900878Y-110142466D01*
X140900878Y-110142466D02*
X140967545Y-110109133D01*
X140567544Y-109875800D02*
X140534211Y-109842466D01*
X140534211Y-109842466D02*
X140467544Y-109809133D01*
X140467544Y-109809133D02*
X140300878Y-109809133D01*
X140300878Y-109809133D02*
X140234211Y-109842466D01*
X140234211Y-109842466D02*
X140200878Y-109875800D01*
X140200878Y-109875800D02*
X140167544Y-109942466D01*
X140167544Y-109942466D02*
X140167544Y-110009133D01*
X140167544Y-110009133D02*
X140200878Y-110109133D01*
X140200878Y-110109133D02*
X140600878Y-110509133D01*
X140600878Y-110509133D02*
X140167544Y-110509133D01*
X139500877Y-110509133D02*
X139900877Y-110509133D01*
X139700877Y-110509133D02*
X139700877Y-109809133D01*
X139700877Y-109809133D02*
X139767544Y-109909133D01*
X139767544Y-109909133D02*
X139834211Y-109975800D01*
X139834211Y-109975800D02*
X139900877Y-110009133D01*
X145181830Y-106682800D02*
X145067544Y-106720895D01*
X145067544Y-106720895D02*
X144877068Y-106720895D01*
X144877068Y-106720895D02*
X144800877Y-106682800D01*
X144800877Y-106682800D02*
X144762782Y-106644704D01*
X144762782Y-106644704D02*
X144724687Y-106568514D01*
X144724687Y-106568514D02*
X144724687Y-106492323D01*
X144724687Y-106492323D02*
X144762782Y-106416133D01*
X144762782Y-106416133D02*
X144800877Y-106378038D01*
X144800877Y-106378038D02*
X144877068Y-106339942D01*
X144877068Y-106339942D02*
X145029449Y-106301847D01*
X145029449Y-106301847D02*
X145105639Y-106263752D01*
X145105639Y-106263752D02*
X145143734Y-106225657D01*
X145143734Y-106225657D02*
X145181830Y-106149466D01*
X145181830Y-106149466D02*
X145181830Y-106073276D01*
X145181830Y-106073276D02*
X145143734Y-105997085D01*
X145143734Y-105997085D02*
X145105639Y-105958990D01*
X145105639Y-105958990D02*
X145029449Y-105920895D01*
X145029449Y-105920895D02*
X144838972Y-105920895D01*
X144838972Y-105920895D02*
X144724687Y-105958990D01*
X143924686Y-106644704D02*
X143962782Y-106682800D01*
X143962782Y-106682800D02*
X144077067Y-106720895D01*
X144077067Y-106720895D02*
X144153258Y-106720895D01*
X144153258Y-106720895D02*
X144267544Y-106682800D01*
X144267544Y-106682800D02*
X144343734Y-106606609D01*
X144343734Y-106606609D02*
X144381829Y-106530419D01*
X144381829Y-106530419D02*
X144419925Y-106378038D01*
X144419925Y-106378038D02*
X144419925Y-106263752D01*
X144419925Y-106263752D02*
X144381829Y-106111371D01*
X144381829Y-106111371D02*
X144343734Y-106035180D01*
X144343734Y-106035180D02*
X144267544Y-105958990D01*
X144267544Y-105958990D02*
X144153258Y-105920895D01*
X144153258Y-105920895D02*
X144077067Y-105920895D01*
X144077067Y-105920895D02*
X143962782Y-105958990D01*
X143962782Y-105958990D02*
X143924686Y-105997085D01*
X143581829Y-106720895D02*
X143581829Y-105920895D01*
X143581829Y-106301847D02*
X143124686Y-106301847D01*
X143124686Y-106720895D02*
X143124686Y-105920895D01*
X142324687Y-106720895D02*
X142781830Y-106720895D01*
X142553258Y-106720895D02*
X142553258Y-105920895D01*
X142553258Y-105920895D02*
X142629449Y-106035180D01*
X142629449Y-106035180D02*
X142705639Y-106111371D01*
X142705639Y-106111371D02*
X142781830Y-106149466D01*
X141638972Y-105920895D02*
X141791353Y-105920895D01*
X141791353Y-105920895D02*
X141867544Y-105958990D01*
X141867544Y-105958990D02*
X141905639Y-105997085D01*
X141905639Y-105997085D02*
X141981829Y-106111371D01*
X141981829Y-106111371D02*
X142019925Y-106263752D01*
X142019925Y-106263752D02*
X142019925Y-106568514D01*
X142019925Y-106568514D02*
X141981829Y-106644704D01*
X141981829Y-106644704D02*
X141943734Y-106682800D01*
X141943734Y-106682800D02*
X141867544Y-106720895D01*
X141867544Y-106720895D02*
X141715163Y-106720895D01*
X141715163Y-106720895D02*
X141638972Y-106682800D01*
X141638972Y-106682800D02*
X141600877Y-106644704D01*
X141600877Y-106644704D02*
X141562782Y-106568514D01*
X141562782Y-106568514D02*
X141562782Y-106378038D01*
X141562782Y-106378038D02*
X141600877Y-106301847D01*
X141600877Y-106301847D02*
X141638972Y-106263752D01*
X141638972Y-106263752D02*
X141715163Y-106225657D01*
X141715163Y-106225657D02*
X141867544Y-106225657D01*
X141867544Y-106225657D02*
X141943734Y-106263752D01*
X141943734Y-106263752D02*
X141981829Y-106301847D01*
X141981829Y-106301847D02*
X142019925Y-106378038D01*
X141334210Y-105920895D02*
X140877067Y-105920895D01*
X141105639Y-106720895D02*
X141105639Y-105920895D01*
X140000876Y-106301847D02*
X139734210Y-106301847D01*
X139619924Y-106720895D02*
X140000876Y-106720895D01*
X140000876Y-106720895D02*
X140000876Y-105920895D01*
X140000876Y-105920895D02*
X139619924Y-105920895D01*
X139353257Y-106187561D02*
X139162781Y-106720895D01*
X139162781Y-106720895D02*
X138972304Y-106187561D01*
X138781828Y-106187561D02*
X138477066Y-106187561D01*
X138667542Y-105920895D02*
X138667542Y-106606609D01*
X138667542Y-106606609D02*
X138629447Y-106682800D01*
X138629447Y-106682800D02*
X138553257Y-106720895D01*
X138553257Y-106720895D02*
X138477066Y-106720895D01*
X144877068Y-107589847D02*
X144762782Y-107627942D01*
X144762782Y-107627942D02*
X144724687Y-107666038D01*
X144724687Y-107666038D02*
X144686591Y-107742228D01*
X144686591Y-107742228D02*
X144686591Y-107856514D01*
X144686591Y-107856514D02*
X144724687Y-107932704D01*
X144724687Y-107932704D02*
X144762782Y-107970800D01*
X144762782Y-107970800D02*
X144838972Y-108008895D01*
X144838972Y-108008895D02*
X145143734Y-108008895D01*
X145143734Y-108008895D02*
X145143734Y-107208895D01*
X145143734Y-107208895D02*
X144877068Y-107208895D01*
X144877068Y-107208895D02*
X144800877Y-107246990D01*
X144800877Y-107246990D02*
X144762782Y-107285085D01*
X144762782Y-107285085D02*
X144724687Y-107361276D01*
X144724687Y-107361276D02*
X144724687Y-107437466D01*
X144724687Y-107437466D02*
X144762782Y-107513657D01*
X144762782Y-107513657D02*
X144800877Y-107551752D01*
X144800877Y-107551752D02*
X144877068Y-107589847D01*
X144877068Y-107589847D02*
X145143734Y-107589847D01*
X144229449Y-108008895D02*
X144305639Y-107970800D01*
X144305639Y-107970800D02*
X144343734Y-107932704D01*
X144343734Y-107932704D02*
X144381830Y-107856514D01*
X144381830Y-107856514D02*
X144381830Y-107627942D01*
X144381830Y-107627942D02*
X144343734Y-107551752D01*
X144343734Y-107551752D02*
X144305639Y-107513657D01*
X144305639Y-107513657D02*
X144229449Y-107475561D01*
X144229449Y-107475561D02*
X144115163Y-107475561D01*
X144115163Y-107475561D02*
X144038972Y-107513657D01*
X144038972Y-107513657D02*
X144000877Y-107551752D01*
X144000877Y-107551752D02*
X143962782Y-107627942D01*
X143962782Y-107627942D02*
X143962782Y-107856514D01*
X143962782Y-107856514D02*
X144000877Y-107932704D01*
X144000877Y-107932704D02*
X144038972Y-107970800D01*
X144038972Y-107970800D02*
X144115163Y-108008895D01*
X144115163Y-108008895D02*
X144229449Y-108008895D01*
X143277067Y-108008895D02*
X143277067Y-107589847D01*
X143277067Y-107589847D02*
X143315162Y-107513657D01*
X143315162Y-107513657D02*
X143391353Y-107475561D01*
X143391353Y-107475561D02*
X143543734Y-107475561D01*
X143543734Y-107475561D02*
X143619924Y-107513657D01*
X143277067Y-107970800D02*
X143353258Y-108008895D01*
X143353258Y-108008895D02*
X143543734Y-108008895D01*
X143543734Y-108008895D02*
X143619924Y-107970800D01*
X143619924Y-107970800D02*
X143658020Y-107894609D01*
X143658020Y-107894609D02*
X143658020Y-107818419D01*
X143658020Y-107818419D02*
X143619924Y-107742228D01*
X143619924Y-107742228D02*
X143543734Y-107704133D01*
X143543734Y-107704133D02*
X143353258Y-107704133D01*
X143353258Y-107704133D02*
X143277067Y-107666038D01*
X142896114Y-108008895D02*
X142896114Y-107475561D01*
X142896114Y-107627942D02*
X142858019Y-107551752D01*
X142858019Y-107551752D02*
X142819924Y-107513657D01*
X142819924Y-107513657D02*
X142743733Y-107475561D01*
X142743733Y-107475561D02*
X142667543Y-107475561D01*
X142058019Y-108008895D02*
X142058019Y-107208895D01*
X142058019Y-107970800D02*
X142134210Y-108008895D01*
X142134210Y-108008895D02*
X142286591Y-108008895D01*
X142286591Y-108008895D02*
X142362781Y-107970800D01*
X142362781Y-107970800D02*
X142400876Y-107932704D01*
X142400876Y-107932704D02*
X142438972Y-107856514D01*
X142438972Y-107856514D02*
X142438972Y-107627942D01*
X142438972Y-107627942D02*
X142400876Y-107551752D01*
X142400876Y-107551752D02*
X142362781Y-107513657D01*
X142362781Y-107513657D02*
X142286591Y-107475561D01*
X142286591Y-107475561D02*
X142134210Y-107475561D01*
X142134210Y-107475561D02*
X142058019Y-107513657D01*
X141143733Y-107475561D02*
X140953257Y-108008895D01*
X140953257Y-108008895D02*
X140762780Y-107475561D01*
X140153256Y-107970800D02*
X140229447Y-108008895D01*
X140229447Y-108008895D02*
X140381828Y-108008895D01*
X140381828Y-108008895D02*
X140458018Y-107970800D01*
X140458018Y-107970800D02*
X140496114Y-107894609D01*
X140496114Y-107894609D02*
X140496114Y-107589847D01*
X140496114Y-107589847D02*
X140458018Y-107513657D01*
X140458018Y-107513657D02*
X140381828Y-107475561D01*
X140381828Y-107475561D02*
X140229447Y-107475561D01*
X140229447Y-107475561D02*
X140153256Y-107513657D01*
X140153256Y-107513657D02*
X140115161Y-107589847D01*
X140115161Y-107589847D02*
X140115161Y-107666038D01*
X140115161Y-107666038D02*
X140496114Y-107742228D01*
X139772304Y-108008895D02*
X139772304Y-107475561D01*
X139772304Y-107627942D02*
X139734209Y-107551752D01*
X139734209Y-107551752D02*
X139696114Y-107513657D01*
X139696114Y-107513657D02*
X139619923Y-107475561D01*
X139619923Y-107475561D02*
X139543733Y-107475561D01*
X139277066Y-107932704D02*
X139238971Y-107970800D01*
X139238971Y-107970800D02*
X139277066Y-108008895D01*
X139277066Y-108008895D02*
X139315162Y-107970800D01*
X139315162Y-107970800D02*
X139277066Y-107932704D01*
X139277066Y-107932704D02*
X139277066Y-108008895D01*
X138477067Y-108008895D02*
X138934210Y-108008895D01*
X138705638Y-108008895D02*
X138705638Y-107208895D01*
X138705638Y-107208895D02*
X138781829Y-107323180D01*
X138781829Y-107323180D02*
X138858019Y-107399371D01*
X138858019Y-107399371D02*
X138934210Y-107437466D01*
X138134209Y-107932704D02*
X138096114Y-107970800D01*
X138096114Y-107970800D02*
X138134209Y-108008895D01*
X138134209Y-108008895D02*
X138172305Y-107970800D01*
X138172305Y-107970800D02*
X138134209Y-107932704D01*
X138134209Y-107932704D02*
X138134209Y-108008895D01*
X137600876Y-107208895D02*
X137524686Y-107208895D01*
X137524686Y-107208895D02*
X137448495Y-107246990D01*
X137448495Y-107246990D02*
X137410400Y-107285085D01*
X137410400Y-107285085D02*
X137372305Y-107361276D01*
X137372305Y-107361276D02*
X137334210Y-107513657D01*
X137334210Y-107513657D02*
X137334210Y-107704133D01*
X137334210Y-107704133D02*
X137372305Y-107856514D01*
X137372305Y-107856514D02*
X137410400Y-107932704D01*
X137410400Y-107932704D02*
X137448495Y-107970800D01*
X137448495Y-107970800D02*
X137524686Y-108008895D01*
X137524686Y-108008895D02*
X137600876Y-108008895D01*
X137600876Y-108008895D02*
X137677067Y-107970800D01*
X137677067Y-107970800D02*
X137715162Y-107932704D01*
X137715162Y-107932704D02*
X137753257Y-107856514D01*
X137753257Y-107856514D02*
X137791353Y-107704133D01*
X137791353Y-107704133D02*
X137791353Y-107513657D01*
X137791353Y-107513657D02*
X137753257Y-107361276D01*
X137753257Y-107361276D02*
X137715162Y-107285085D01*
X137715162Y-107285085D02*
X137677067Y-107246990D01*
X137677067Y-107246990D02*
X137600876Y-107208895D01*
X145181830Y-108573085D02*
X145143734Y-108534990D01*
X145143734Y-108534990D02*
X145067544Y-108496895D01*
X145067544Y-108496895D02*
X144877068Y-108496895D01*
X144877068Y-108496895D02*
X144800877Y-108534990D01*
X144800877Y-108534990D02*
X144762782Y-108573085D01*
X144762782Y-108573085D02*
X144724687Y-108649276D01*
X144724687Y-108649276D02*
X144724687Y-108725466D01*
X144724687Y-108725466D02*
X144762782Y-108839752D01*
X144762782Y-108839752D02*
X145219925Y-109296895D01*
X145219925Y-109296895D02*
X144724687Y-109296895D01*
X144229448Y-108496895D02*
X144153258Y-108496895D01*
X144153258Y-108496895D02*
X144077067Y-108534990D01*
X144077067Y-108534990D02*
X144038972Y-108573085D01*
X144038972Y-108573085D02*
X144000877Y-108649276D01*
X144000877Y-108649276D02*
X143962782Y-108801657D01*
X143962782Y-108801657D02*
X143962782Y-108992133D01*
X143962782Y-108992133D02*
X144000877Y-109144514D01*
X144000877Y-109144514D02*
X144038972Y-109220704D01*
X144038972Y-109220704D02*
X144077067Y-109258800D01*
X144077067Y-109258800D02*
X144153258Y-109296895D01*
X144153258Y-109296895D02*
X144229448Y-109296895D01*
X144229448Y-109296895D02*
X144305639Y-109258800D01*
X144305639Y-109258800D02*
X144343734Y-109220704D01*
X144343734Y-109220704D02*
X144381829Y-109144514D01*
X144381829Y-109144514D02*
X144419925Y-108992133D01*
X144419925Y-108992133D02*
X144419925Y-108801657D01*
X144419925Y-108801657D02*
X144381829Y-108649276D01*
X144381829Y-108649276D02*
X144343734Y-108573085D01*
X144343734Y-108573085D02*
X144305639Y-108534990D01*
X144305639Y-108534990D02*
X144229448Y-108496895D01*
X143658020Y-108573085D02*
X143619924Y-108534990D01*
X143619924Y-108534990D02*
X143543734Y-108496895D01*
X143543734Y-108496895D02*
X143353258Y-108496895D01*
X143353258Y-108496895D02*
X143277067Y-108534990D01*
X143277067Y-108534990D02*
X143238972Y-108573085D01*
X143238972Y-108573085D02*
X143200877Y-108649276D01*
X143200877Y-108649276D02*
X143200877Y-108725466D01*
X143200877Y-108725466D02*
X143238972Y-108839752D01*
X143238972Y-108839752D02*
X143696115Y-109296895D01*
X143696115Y-109296895D02*
X143200877Y-109296895D01*
X142477067Y-108496895D02*
X142858019Y-108496895D01*
X142858019Y-108496895D02*
X142896115Y-108877847D01*
X142896115Y-108877847D02*
X142858019Y-108839752D01*
X142858019Y-108839752D02*
X142781829Y-108801657D01*
X142781829Y-108801657D02*
X142591353Y-108801657D01*
X142591353Y-108801657D02*
X142515162Y-108839752D01*
X142515162Y-108839752D02*
X142477067Y-108877847D01*
X142477067Y-108877847D02*
X142438972Y-108954038D01*
X142438972Y-108954038D02*
X142438972Y-109144514D01*
X142438972Y-109144514D02*
X142477067Y-109220704D01*
X142477067Y-109220704D02*
X142515162Y-109258800D01*
X142515162Y-109258800D02*
X142591353Y-109296895D01*
X142591353Y-109296895D02*
X142781829Y-109296895D01*
X142781829Y-109296895D02*
X142858019Y-109258800D01*
X142858019Y-109258800D02*
X142896115Y-109220704D01*
X141524686Y-108458800D02*
X142210400Y-109487371D01*
X141105638Y-108496895D02*
X141029448Y-108496895D01*
X141029448Y-108496895D02*
X140953257Y-108534990D01*
X140953257Y-108534990D02*
X140915162Y-108573085D01*
X140915162Y-108573085D02*
X140877067Y-108649276D01*
X140877067Y-108649276D02*
X140838972Y-108801657D01*
X140838972Y-108801657D02*
X140838972Y-108992133D01*
X140838972Y-108992133D02*
X140877067Y-109144514D01*
X140877067Y-109144514D02*
X140915162Y-109220704D01*
X140915162Y-109220704D02*
X140953257Y-109258800D01*
X140953257Y-109258800D02*
X141029448Y-109296895D01*
X141029448Y-109296895D02*
X141105638Y-109296895D01*
X141105638Y-109296895D02*
X141181829Y-109258800D01*
X141181829Y-109258800D02*
X141219924Y-109220704D01*
X141219924Y-109220704D02*
X141258019Y-109144514D01*
X141258019Y-109144514D02*
X141296115Y-108992133D01*
X141296115Y-108992133D02*
X141296115Y-108801657D01*
X141296115Y-108801657D02*
X141258019Y-108649276D01*
X141258019Y-108649276D02*
X141219924Y-108573085D01*
X141219924Y-108573085D02*
X141181829Y-108534990D01*
X141181829Y-108534990D02*
X141105638Y-108496895D01*
X140572305Y-108496895D02*
X140077067Y-108496895D01*
X140077067Y-108496895D02*
X140343733Y-108801657D01*
X140343733Y-108801657D02*
X140229448Y-108801657D01*
X140229448Y-108801657D02*
X140153257Y-108839752D01*
X140153257Y-108839752D02*
X140115162Y-108877847D01*
X140115162Y-108877847D02*
X140077067Y-108954038D01*
X140077067Y-108954038D02*
X140077067Y-109144514D01*
X140077067Y-109144514D02*
X140115162Y-109220704D01*
X140115162Y-109220704D02*
X140153257Y-109258800D01*
X140153257Y-109258800D02*
X140229448Y-109296895D01*
X140229448Y-109296895D02*
X140458019Y-109296895D01*
X140458019Y-109296895D02*
X140534210Y-109258800D01*
X140534210Y-109258800D02*
X140572305Y-109220704D01*
X139162781Y-108458800D02*
X139848495Y-109487371D01*
X138972305Y-108496895D02*
X138477067Y-108496895D01*
X138477067Y-108496895D02*
X138743733Y-108801657D01*
X138743733Y-108801657D02*
X138629448Y-108801657D01*
X138629448Y-108801657D02*
X138553257Y-108839752D01*
X138553257Y-108839752D02*
X138515162Y-108877847D01*
X138515162Y-108877847D02*
X138477067Y-108954038D01*
X138477067Y-108954038D02*
X138477067Y-109144514D01*
X138477067Y-109144514D02*
X138515162Y-109220704D01*
X138515162Y-109220704D02*
X138553257Y-109258800D01*
X138553257Y-109258800D02*
X138629448Y-109296895D01*
X138629448Y-109296895D02*
X138858019Y-109296895D01*
X138858019Y-109296895D02*
X138934210Y-109258800D01*
X138934210Y-109258800D02*
X138972305Y-109220704D01*
X137715162Y-109296895D02*
X138172305Y-109296895D01*
X137943733Y-109296895D02*
X137943733Y-108496895D01*
X137943733Y-108496895D02*
X138019924Y-108611180D01*
X138019924Y-108611180D02*
X138096114Y-108687371D01*
X138096114Y-108687371D02*
X138172305Y-108725466D01*
D11*
X160741666Y-99609580D02*
X160789285Y-99657200D01*
X160789285Y-99657200D02*
X160932142Y-99704819D01*
X160932142Y-99704819D02*
X161027380Y-99704819D01*
X161027380Y-99704819D02*
X161170237Y-99657200D01*
X161170237Y-99657200D02*
X161265475Y-99561961D01*
X161265475Y-99561961D02*
X161313094Y-99466723D01*
X161313094Y-99466723D02*
X161360713Y-99276247D01*
X161360713Y-99276247D02*
X161360713Y-99133390D01*
X161360713Y-99133390D02*
X161313094Y-98942914D01*
X161313094Y-98942914D02*
X161265475Y-98847676D01*
X161265475Y-98847676D02*
X161170237Y-98752438D01*
X161170237Y-98752438D02*
X161027380Y-98704819D01*
X161027380Y-98704819D02*
X160932142Y-98704819D01*
X160932142Y-98704819D02*
X160789285Y-98752438D01*
X160789285Y-98752438D02*
X160741666Y-98800057D01*
X160170237Y-99133390D02*
X160265475Y-99085771D01*
X160265475Y-99085771D02*
X160313094Y-99038152D01*
X160313094Y-99038152D02*
X160360713Y-98942914D01*
X160360713Y-98942914D02*
X160360713Y-98895295D01*
X160360713Y-98895295D02*
X160313094Y-98800057D01*
X160313094Y-98800057D02*
X160265475Y-98752438D01*
X160265475Y-98752438D02*
X160170237Y-98704819D01*
X160170237Y-98704819D02*
X159979761Y-98704819D01*
X159979761Y-98704819D02*
X159884523Y-98752438D01*
X159884523Y-98752438D02*
X159836904Y-98800057D01*
X159836904Y-98800057D02*
X159789285Y-98895295D01*
X159789285Y-98895295D02*
X159789285Y-98942914D01*
X159789285Y-98942914D02*
X159836904Y-99038152D01*
X159836904Y-99038152D02*
X159884523Y-99085771D01*
X159884523Y-99085771D02*
X159979761Y-99133390D01*
X159979761Y-99133390D02*
X160170237Y-99133390D01*
X160170237Y-99133390D02*
X160265475Y-99181009D01*
X160265475Y-99181009D02*
X160313094Y-99228628D01*
X160313094Y-99228628D02*
X160360713Y-99323866D01*
X160360713Y-99323866D02*
X160360713Y-99514342D01*
X160360713Y-99514342D02*
X160313094Y-99609580D01*
X160313094Y-99609580D02*
X160265475Y-99657200D01*
X160265475Y-99657200D02*
X160170237Y-99704819D01*
X160170237Y-99704819D02*
X159979761Y-99704819D01*
X159979761Y-99704819D02*
X159884523Y-99657200D01*
X159884523Y-99657200D02*
X159836904Y-99609580D01*
X159836904Y-99609580D02*
X159789285Y-99514342D01*
X159789285Y-99514342D02*
X159789285Y-99323866D01*
X159789285Y-99323866D02*
X159836904Y-99228628D01*
X159836904Y-99228628D02*
X159884523Y-99181009D01*
X159884523Y-99181009D02*
X159979761Y-99133390D01*
X153466666Y-98459580D02*
X153514285Y-98507200D01*
X153514285Y-98507200D02*
X153657142Y-98554819D01*
X153657142Y-98554819D02*
X153752380Y-98554819D01*
X153752380Y-98554819D02*
X153895237Y-98507200D01*
X153895237Y-98507200D02*
X153990475Y-98411961D01*
X153990475Y-98411961D02*
X154038094Y-98316723D01*
X154038094Y-98316723D02*
X154085713Y-98126247D01*
X154085713Y-98126247D02*
X154085713Y-97983390D01*
X154085713Y-97983390D02*
X154038094Y-97792914D01*
X154038094Y-97792914D02*
X153990475Y-97697676D01*
X153990475Y-97697676D02*
X153895237Y-97602438D01*
X153895237Y-97602438D02*
X153752380Y-97554819D01*
X153752380Y-97554819D02*
X153657142Y-97554819D01*
X153657142Y-97554819D02*
X153514285Y-97602438D01*
X153514285Y-97602438D02*
X153466666Y-97650057D01*
X152561904Y-97554819D02*
X153038094Y-97554819D01*
X153038094Y-97554819D02*
X153085713Y-98031009D01*
X153085713Y-98031009D02*
X153038094Y-97983390D01*
X153038094Y-97983390D02*
X152942856Y-97935771D01*
X152942856Y-97935771D02*
X152704761Y-97935771D01*
X152704761Y-97935771D02*
X152609523Y-97983390D01*
X152609523Y-97983390D02*
X152561904Y-98031009D01*
X152561904Y-98031009D02*
X152514285Y-98126247D01*
X152514285Y-98126247D02*
X152514285Y-98364342D01*
X152514285Y-98364342D02*
X152561904Y-98459580D01*
X152561904Y-98459580D02*
X152609523Y-98507200D01*
X152609523Y-98507200D02*
X152704761Y-98554819D01*
X152704761Y-98554819D02*
X152942856Y-98554819D01*
X152942856Y-98554819D02*
X153038094Y-98507200D01*
X153038094Y-98507200D02*
X153085713Y-98459580D01*
X160261904Y-102704819D02*
X160261904Y-103514342D01*
X160261904Y-103514342D02*
X160214285Y-103609580D01*
X160214285Y-103609580D02*
X160166666Y-103657200D01*
X160166666Y-103657200D02*
X160071428Y-103704819D01*
X160071428Y-103704819D02*
X159880952Y-103704819D01*
X159880952Y-103704819D02*
X159785714Y-103657200D01*
X159785714Y-103657200D02*
X159738095Y-103609580D01*
X159738095Y-103609580D02*
X159690476Y-103514342D01*
X159690476Y-103514342D02*
X159690476Y-102704819D01*
X159309523Y-102704819D02*
X158690476Y-102704819D01*
X158690476Y-102704819D02*
X159023809Y-103085771D01*
X159023809Y-103085771D02*
X158880952Y-103085771D01*
X158880952Y-103085771D02*
X158785714Y-103133390D01*
X158785714Y-103133390D02*
X158738095Y-103181009D01*
X158738095Y-103181009D02*
X158690476Y-103276247D01*
X158690476Y-103276247D02*
X158690476Y-103514342D01*
X158690476Y-103514342D02*
X158738095Y-103609580D01*
X158738095Y-103609580D02*
X158785714Y-103657200D01*
X158785714Y-103657200D02*
X158880952Y-103704819D01*
X158880952Y-103704819D02*
X159166666Y-103704819D01*
X159166666Y-103704819D02*
X159261904Y-103657200D01*
X159261904Y-103657200D02*
X159309523Y-103609580D01*
X162472857Y-92109580D02*
X162520476Y-92157200D01*
X162520476Y-92157200D02*
X162663333Y-92204819D01*
X162663333Y-92204819D02*
X162758571Y-92204819D01*
X162758571Y-92204819D02*
X162901428Y-92157200D01*
X162901428Y-92157200D02*
X162996666Y-92061961D01*
X162996666Y-92061961D02*
X163044285Y-91966723D01*
X163044285Y-91966723D02*
X163091904Y-91776247D01*
X163091904Y-91776247D02*
X163091904Y-91633390D01*
X163091904Y-91633390D02*
X163044285Y-91442914D01*
X163044285Y-91442914D02*
X162996666Y-91347676D01*
X162996666Y-91347676D02*
X162901428Y-91252438D01*
X162901428Y-91252438D02*
X162758571Y-91204819D01*
X162758571Y-91204819D02*
X162663333Y-91204819D01*
X162663333Y-91204819D02*
X162520476Y-91252438D01*
X162520476Y-91252438D02*
X162472857Y-91300057D01*
X161520476Y-92204819D02*
X162091904Y-92204819D01*
X161806190Y-92204819D02*
X161806190Y-91204819D01*
X161806190Y-91204819D02*
X161901428Y-91347676D01*
X161901428Y-91347676D02*
X161996666Y-91442914D01*
X161996666Y-91442914D02*
X162091904Y-91490533D01*
X160568095Y-92204819D02*
X161139523Y-92204819D01*
X160853809Y-92204819D02*
X160853809Y-91204819D01*
X160853809Y-91204819D02*
X160949047Y-91347676D01*
X160949047Y-91347676D02*
X161044285Y-91442914D01*
X161044285Y-91442914D02*
X161139523Y-91490533D01*
X149095238Y-104750057D02*
X149190476Y-104702438D01*
X149190476Y-104702438D02*
X149285714Y-104607200D01*
X149285714Y-104607200D02*
X149428571Y-104464342D01*
X149428571Y-104464342D02*
X149523809Y-104416723D01*
X149523809Y-104416723D02*
X149619047Y-104416723D01*
X149571428Y-104654819D02*
X149666666Y-104607200D01*
X149666666Y-104607200D02*
X149761904Y-104511961D01*
X149761904Y-104511961D02*
X149809523Y-104321485D01*
X149809523Y-104321485D02*
X149809523Y-103988152D01*
X149809523Y-103988152D02*
X149761904Y-103797676D01*
X149761904Y-103797676D02*
X149666666Y-103702438D01*
X149666666Y-103702438D02*
X149571428Y-103654819D01*
X149571428Y-103654819D02*
X149380952Y-103654819D01*
X149380952Y-103654819D02*
X149285714Y-103702438D01*
X149285714Y-103702438D02*
X149190476Y-103797676D01*
X149190476Y-103797676D02*
X149142857Y-103988152D01*
X149142857Y-103988152D02*
X149142857Y-104321485D01*
X149142857Y-104321485D02*
X149190476Y-104511961D01*
X149190476Y-104511961D02*
X149285714Y-104607200D01*
X149285714Y-104607200D02*
X149380952Y-104654819D01*
X149380952Y-104654819D02*
X149571428Y-104654819D01*
X148761904Y-103750057D02*
X148714285Y-103702438D01*
X148714285Y-103702438D02*
X148619047Y-103654819D01*
X148619047Y-103654819D02*
X148380952Y-103654819D01*
X148380952Y-103654819D02*
X148285714Y-103702438D01*
X148285714Y-103702438D02*
X148238095Y-103750057D01*
X148238095Y-103750057D02*
X148190476Y-103845295D01*
X148190476Y-103845295D02*
X148190476Y-103940533D01*
X148190476Y-103940533D02*
X148238095Y-104083390D01*
X148238095Y-104083390D02*
X148809523Y-104654819D01*
X148809523Y-104654819D02*
X148190476Y-104654819D01*
X144583333Y-112954819D02*
X144583333Y-113669104D01*
X144583333Y-113669104D02*
X144630952Y-113811961D01*
X144630952Y-113811961D02*
X144726190Y-113907200D01*
X144726190Y-113907200D02*
X144869047Y-113954819D01*
X144869047Y-113954819D02*
X144964285Y-113954819D01*
X143583333Y-113954819D02*
X144154761Y-113954819D01*
X143869047Y-113954819D02*
X143869047Y-112954819D01*
X143869047Y-112954819D02*
X143964285Y-113097676D01*
X143964285Y-113097676D02*
X144059523Y-113192914D01*
X144059523Y-113192914D02*
X144154761Y-113240533D01*
X142066666Y-97559580D02*
X142114285Y-97607200D01*
X142114285Y-97607200D02*
X142257142Y-97654819D01*
X142257142Y-97654819D02*
X142352380Y-97654819D01*
X142352380Y-97654819D02*
X142495237Y-97607200D01*
X142495237Y-97607200D02*
X142590475Y-97511961D01*
X142590475Y-97511961D02*
X142638094Y-97416723D01*
X142638094Y-97416723D02*
X142685713Y-97226247D01*
X142685713Y-97226247D02*
X142685713Y-97083390D01*
X142685713Y-97083390D02*
X142638094Y-96892914D01*
X142638094Y-96892914D02*
X142590475Y-96797676D01*
X142590475Y-96797676D02*
X142495237Y-96702438D01*
X142495237Y-96702438D02*
X142352380Y-96654819D01*
X142352380Y-96654819D02*
X142257142Y-96654819D01*
X142257142Y-96654819D02*
X142114285Y-96702438D01*
X142114285Y-96702438D02*
X142066666Y-96750057D01*
X141685713Y-96750057D02*
X141638094Y-96702438D01*
X141638094Y-96702438D02*
X141542856Y-96654819D01*
X141542856Y-96654819D02*
X141304761Y-96654819D01*
X141304761Y-96654819D02*
X141209523Y-96702438D01*
X141209523Y-96702438D02*
X141161904Y-96750057D01*
X141161904Y-96750057D02*
X141114285Y-96845295D01*
X141114285Y-96845295D02*
X141114285Y-96940533D01*
X141114285Y-96940533D02*
X141161904Y-97083390D01*
X141161904Y-97083390D02*
X141733332Y-97654819D01*
X141733332Y-97654819D02*
X141114285Y-97654819D01*
X139904819Y-101533333D02*
X139428628Y-101200000D01*
X139904819Y-100961905D02*
X138904819Y-100961905D01*
X138904819Y-100961905D02*
X138904819Y-101342857D01*
X138904819Y-101342857D02*
X138952438Y-101438095D01*
X138952438Y-101438095D02*
X139000057Y-101485714D01*
X139000057Y-101485714D02*
X139095295Y-101533333D01*
X139095295Y-101533333D02*
X139238152Y-101533333D01*
X139238152Y-101533333D02*
X139333390Y-101485714D01*
X139333390Y-101485714D02*
X139381009Y-101438095D01*
X139381009Y-101438095D02*
X139428628Y-101342857D01*
X139428628Y-101342857D02*
X139428628Y-100961905D01*
X138904819Y-102438095D02*
X138904819Y-101961905D01*
X138904819Y-101961905D02*
X139381009Y-101914286D01*
X139381009Y-101914286D02*
X139333390Y-101961905D01*
X139333390Y-101961905D02*
X139285771Y-102057143D01*
X139285771Y-102057143D02*
X139285771Y-102295238D01*
X139285771Y-102295238D02*
X139333390Y-102390476D01*
X139333390Y-102390476D02*
X139381009Y-102438095D01*
X139381009Y-102438095D02*
X139476247Y-102485714D01*
X139476247Y-102485714D02*
X139714342Y-102485714D01*
X139714342Y-102485714D02*
X139809580Y-102438095D01*
X139809580Y-102438095D02*
X139857200Y-102390476D01*
X139857200Y-102390476D02*
X139904819Y-102295238D01*
X139904819Y-102295238D02*
X139904819Y-102057143D01*
X139904819Y-102057143D02*
X139857200Y-101961905D01*
X139857200Y-101961905D02*
X139809580Y-101914286D01*
X147854819Y-101138095D02*
X148664342Y-101138095D01*
X148664342Y-101138095D02*
X148759580Y-101185714D01*
X148759580Y-101185714D02*
X148807200Y-101233333D01*
X148807200Y-101233333D02*
X148854819Y-101328571D01*
X148854819Y-101328571D02*
X148854819Y-101519047D01*
X148854819Y-101519047D02*
X148807200Y-101614285D01*
X148807200Y-101614285D02*
X148759580Y-101661904D01*
X148759580Y-101661904D02*
X148664342Y-101709523D01*
X148664342Y-101709523D02*
X147854819Y-101709523D01*
X148854819Y-102709523D02*
X148854819Y-102138095D01*
X148854819Y-102423809D02*
X147854819Y-102423809D01*
X147854819Y-102423809D02*
X147997676Y-102328571D01*
X147997676Y-102328571D02*
X148092914Y-102233333D01*
X148092914Y-102233333D02*
X148140533Y-102138095D01*
X139854819Y-98933333D02*
X139378628Y-98600000D01*
X139854819Y-98361905D02*
X138854819Y-98361905D01*
X138854819Y-98361905D02*
X138854819Y-98742857D01*
X138854819Y-98742857D02*
X138902438Y-98838095D01*
X138902438Y-98838095D02*
X138950057Y-98885714D01*
X138950057Y-98885714D02*
X139045295Y-98933333D01*
X139045295Y-98933333D02*
X139188152Y-98933333D01*
X139188152Y-98933333D02*
X139283390Y-98885714D01*
X139283390Y-98885714D02*
X139331009Y-98838095D01*
X139331009Y-98838095D02*
X139378628Y-98742857D01*
X139378628Y-98742857D02*
X139378628Y-98361905D01*
X138950057Y-99314286D02*
X138902438Y-99361905D01*
X138902438Y-99361905D02*
X138854819Y-99457143D01*
X138854819Y-99457143D02*
X138854819Y-99695238D01*
X138854819Y-99695238D02*
X138902438Y-99790476D01*
X138902438Y-99790476D02*
X138950057Y-99838095D01*
X138950057Y-99838095D02*
X139045295Y-99885714D01*
X139045295Y-99885714D02*
X139140533Y-99885714D01*
X139140533Y-99885714D02*
X139283390Y-99838095D01*
X139283390Y-99838095D02*
X139854819Y-99266667D01*
X139854819Y-99266667D02*
X139854819Y-99885714D01*
X142761904Y-90554819D02*
X142761904Y-91364342D01*
X142761904Y-91364342D02*
X142714285Y-91459580D01*
X142714285Y-91459580D02*
X142666666Y-91507200D01*
X142666666Y-91507200D02*
X142571428Y-91554819D01*
X142571428Y-91554819D02*
X142380952Y-91554819D01*
X142380952Y-91554819D02*
X142285714Y-91507200D01*
X142285714Y-91507200D02*
X142238095Y-91459580D01*
X142238095Y-91459580D02*
X142190476Y-91364342D01*
X142190476Y-91364342D02*
X142190476Y-90554819D01*
X141285714Y-90888152D02*
X141285714Y-91554819D01*
X141523809Y-90507200D02*
X141761904Y-91221485D01*
X141761904Y-91221485D02*
X141142857Y-91221485D01*
X150204166Y-98459580D02*
X150251785Y-98507200D01*
X150251785Y-98507200D02*
X150394642Y-98554819D01*
X150394642Y-98554819D02*
X150489880Y-98554819D01*
X150489880Y-98554819D02*
X150632737Y-98507200D01*
X150632737Y-98507200D02*
X150727975Y-98411961D01*
X150727975Y-98411961D02*
X150775594Y-98316723D01*
X150775594Y-98316723D02*
X150823213Y-98126247D01*
X150823213Y-98126247D02*
X150823213Y-97983390D01*
X150823213Y-97983390D02*
X150775594Y-97792914D01*
X150775594Y-97792914D02*
X150727975Y-97697676D01*
X150727975Y-97697676D02*
X150632737Y-97602438D01*
X150632737Y-97602438D02*
X150489880Y-97554819D01*
X150489880Y-97554819D02*
X150394642Y-97554819D01*
X150394642Y-97554819D02*
X150251785Y-97602438D01*
X150251785Y-97602438D02*
X150204166Y-97650057D01*
X149251785Y-98554819D02*
X149823213Y-98554819D01*
X149537499Y-98554819D02*
X149537499Y-97554819D01*
X149537499Y-97554819D02*
X149632737Y-97697676D01*
X149632737Y-97697676D02*
X149727975Y-97792914D01*
X149727975Y-97792914D02*
X149823213Y-97840533D01*
X140054819Y-103661905D02*
X139054819Y-103661905D01*
X139054819Y-103661905D02*
X139054819Y-103900000D01*
X139054819Y-103900000D02*
X139102438Y-104042857D01*
X139102438Y-104042857D02*
X139197676Y-104138095D01*
X139197676Y-104138095D02*
X139292914Y-104185714D01*
X139292914Y-104185714D02*
X139483390Y-104233333D01*
X139483390Y-104233333D02*
X139626247Y-104233333D01*
X139626247Y-104233333D02*
X139816723Y-104185714D01*
X139816723Y-104185714D02*
X139911961Y-104138095D01*
X139911961Y-104138095D02*
X140007200Y-104042857D01*
X140007200Y-104042857D02*
X140054819Y-103900000D01*
X140054819Y-103900000D02*
X140054819Y-103661905D01*
X139054819Y-105138095D02*
X139054819Y-104661905D01*
X139054819Y-104661905D02*
X139531009Y-104614286D01*
X139531009Y-104614286D02*
X139483390Y-104661905D01*
X139483390Y-104661905D02*
X139435771Y-104757143D01*
X139435771Y-104757143D02*
X139435771Y-104995238D01*
X139435771Y-104995238D02*
X139483390Y-105090476D01*
X139483390Y-105090476D02*
X139531009Y-105138095D01*
X139531009Y-105138095D02*
X139626247Y-105185714D01*
X139626247Y-105185714D02*
X139864342Y-105185714D01*
X139864342Y-105185714D02*
X139959580Y-105138095D01*
X139959580Y-105138095D02*
X140007200Y-105090476D01*
X140007200Y-105090476D02*
X140054819Y-104995238D01*
X140054819Y-104995238D02*
X140054819Y-104757143D01*
X140054819Y-104757143D02*
X140007200Y-104661905D01*
X140007200Y-104661905D02*
X139959580Y-104614286D01*
X162628857Y-94014580D02*
X162676476Y-94062200D01*
X162676476Y-94062200D02*
X162819333Y-94109819D01*
X162819333Y-94109819D02*
X162914571Y-94109819D01*
X162914571Y-94109819D02*
X163057428Y-94062200D01*
X163057428Y-94062200D02*
X163152666Y-93966961D01*
X163152666Y-93966961D02*
X163200285Y-93871723D01*
X163200285Y-93871723D02*
X163247904Y-93681247D01*
X163247904Y-93681247D02*
X163247904Y-93538390D01*
X163247904Y-93538390D02*
X163200285Y-93347914D01*
X163200285Y-93347914D02*
X163152666Y-93252676D01*
X163152666Y-93252676D02*
X163057428Y-93157438D01*
X163057428Y-93157438D02*
X162914571Y-93109819D01*
X162914571Y-93109819D02*
X162819333Y-93109819D01*
X162819333Y-93109819D02*
X162676476Y-93157438D01*
X162676476Y-93157438D02*
X162628857Y-93205057D01*
X161676476Y-94109819D02*
X162247904Y-94109819D01*
X161962190Y-94109819D02*
X161962190Y-93109819D01*
X161962190Y-93109819D02*
X162057428Y-93252676D01*
X162057428Y-93252676D02*
X162152666Y-93347914D01*
X162152666Y-93347914D02*
X162247904Y-93395533D01*
X161295523Y-93205057D02*
X161247904Y-93157438D01*
X161247904Y-93157438D02*
X161152666Y-93109819D01*
X161152666Y-93109819D02*
X160914571Y-93109819D01*
X160914571Y-93109819D02*
X160819333Y-93157438D01*
X160819333Y-93157438D02*
X160771714Y-93205057D01*
X160771714Y-93205057D02*
X160724095Y-93300295D01*
X160724095Y-93300295D02*
X160724095Y-93395533D01*
X160724095Y-93395533D02*
X160771714Y-93538390D01*
X160771714Y-93538390D02*
X161343142Y-94109819D01*
X161343142Y-94109819D02*
X160724095Y-94109819D01*
D12*
%TO.C,C8*%
X157786252Y-100160000D02*
X156363748Y-100160000D01*
X157786252Y-98340000D02*
X156363748Y-98340000D01*
%TO.C,C5*%
X152340000Y-101786252D02*
X152340000Y-100363748D01*
X154160000Y-101786252D02*
X154160000Y-100363748D01*
%TO.C,U3*%
X154940000Y-103350000D02*
X154940000Y-104150000D01*
X154940000Y-103350000D02*
X154940000Y-102550000D01*
X158060000Y-103350000D02*
X158060000Y-104150000D01*
X158060000Y-103350000D02*
X158060000Y-102550000D01*
X158340000Y-104890000D02*
X158010000Y-104650000D01*
X158340000Y-104410000D01*
X158340000Y-104890000D01*
G36*
X158340000Y-104890000D02*
G01*
X158010000Y-104650000D01*
X158340000Y-104410000D01*
X158340000Y-104890000D01*
G37*
%TO.C,C11*%
X158781420Y-91240000D02*
X159062580Y-91240000D01*
X158781420Y-92260000D02*
X159062580Y-92260000D01*
%TO.C,Q2*%
X147710000Y-103400000D02*
X147710000Y-102750000D01*
X147710000Y-103400000D02*
X147710000Y-104050000D01*
X144590000Y-103400000D02*
X144590000Y-102750000D01*
X144590000Y-103400000D02*
X144590000Y-104050000D01*
X144640000Y-102237500D02*
X144310000Y-102477500D01*
X144310000Y-101997500D01*
X144640000Y-102237500D01*
G36*
X144640000Y-102237500D02*
G01*
X144310000Y-102477500D01*
X144310000Y-101997500D01*
X144640000Y-102237500D01*
G37*
%TO.C,J1*%
X154060000Y-110790000D02*
X154060000Y-106540000D01*
X154060000Y-106540000D02*
X153040000Y-106540000D01*
X153040000Y-108140000D02*
X151760000Y-108140000D01*
X153040000Y-106540000D02*
X153040000Y-108140000D01*
X152340000Y-114360000D02*
X147660000Y-114360000D01*
X151760000Y-108140000D02*
X151760000Y-105250000D01*
X146960000Y-108140000D02*
X148240000Y-108140000D01*
X146960000Y-106540000D02*
X146960000Y-108140000D01*
X145940000Y-110790000D02*
X145940000Y-106540000D01*
X145940000Y-106540000D02*
X146960000Y-106540000D01*
%TO.C,C2*%
X141990000Y-101136252D02*
X141990000Y-99713748D01*
X143810000Y-101136252D02*
X143810000Y-99713748D01*
%TO.C,R5*%
X140370000Y-101643641D02*
X140370000Y-101336359D01*
X141130000Y-101643641D02*
X141130000Y-101336359D01*
%TO.C,U1*%
X146337500Y-101010000D02*
X147137500Y-101010000D01*
X146337500Y-101010000D02*
X145537500Y-101010000D01*
X146337500Y-97890000D02*
X147137500Y-97890000D01*
X146337500Y-97890000D02*
X145537500Y-97890000D01*
X147637500Y-97940000D02*
X147397500Y-97610000D01*
X147877500Y-97610000D01*
X147637500Y-97940000D01*
G36*
X147637500Y-97940000D02*
G01*
X147397500Y-97610000D01*
X147877500Y-97610000D01*
X147637500Y-97940000D01*
G37*
%TO.C,R2*%
X141130000Y-98936359D02*
X141130000Y-99243641D01*
X140370000Y-98936359D02*
X140370000Y-99243641D01*
D13*
%TO.C,U4*%
X156600000Y-85980000D02*
X156600000Y-80600000D01*
X156600000Y-80600000D02*
X143400000Y-80600000D01*
X143400000Y-80600000D02*
X143400000Y-85980000D01*
D14*
X157350000Y-87600000D02*
G75*
G03*
X157150000Y-87600000I-100000J0D01*
G01*
X157150000Y-87600000D02*
G75*
G03*
X157350000Y-87600000I100000J0D01*
G01*
D12*
%TO.C,C1*%
X149127500Y-101736252D02*
X149127500Y-100313748D01*
X150947500Y-101736252D02*
X150947500Y-100313748D01*
%TO.C,D5*%
X144060000Y-105250000D02*
X141400000Y-105250000D01*
X144060000Y-103550000D02*
X144060000Y-105250000D01*
X144060000Y-103550000D02*
X141400000Y-103550000D01*
%TO.C,C12*%
X158784420Y-93145000D02*
X159065580Y-93145000D01*
X158784420Y-94165000D02*
X159065580Y-94165000D01*
%TD*%
%LPC*%
%TO.C,U4*%
D15*
X152800000Y-89450000D02*
X152800000Y-90450000D01*
X151150000Y-90450000D01*
X151150000Y-88800000D01*
X152150000Y-88800000D01*
X152800000Y-89450000D01*
G36*
X152800000Y-89450000D02*
G01*
X152800000Y-90450000D01*
X151150000Y-90450000D01*
X151150000Y-88800000D01*
X152150000Y-88800000D01*
X152800000Y-89450000D01*
G37*
%TD*%
D16*
%TO.C,REF\u002A\u002A*%
X162000000Y-88000000D03*
%TD*%
D17*
%TO.C,J3*%
X137000000Y-96210000D03*
D18*
X137000000Y-98750000D03*
X137000000Y-101290000D03*
X137000000Y-103830000D03*
%TD*%
D16*
%TO.C,REF\u002A\u002A*%
X162000000Y-112000000D03*
%TD*%
D19*
%TO.C,J2*%
X147110000Y-108395000D03*
X152890000Y-108395000D03*
%TD*%
D16*
%TO.C,REF\u002A\u002A*%
X138000000Y-112000000D03*
%TD*%
D17*
%TO.C,J4*%
X163000000Y-96210000D03*
D18*
X163000000Y-98750000D03*
X163000000Y-101290000D03*
X163000000Y-103830000D03*
%TD*%
D16*
%TO.C,REF\u002A\u002A*%
X138000000Y-88000000D03*
%TD*%
D20*
%TO.C,C8*%
X158550000Y-99250000D03*
X155600000Y-99250000D03*
%TD*%
D21*
%TO.C,C5*%
X153250000Y-102550000D03*
X153250000Y-99600000D03*
%TD*%
D22*
%TO.C,U3*%
X157450000Y-104487500D03*
X156500000Y-104487500D03*
X155550000Y-104487500D03*
X155550000Y-102212500D03*
X157450000Y-102212500D03*
%TD*%
D23*
%TO.C,C11*%
X158147000Y-91750000D03*
X159697000Y-91750000D03*
%TD*%
D24*
%TO.C,Q2*%
X145200000Y-102462500D03*
X147100000Y-102462500D03*
X146150000Y-104337500D03*
%TD*%
D25*
%TO.C,J1*%
X151000000Y-107000000D03*
X149000000Y-107000000D03*
D26*
X153350000Y-112750000D03*
X146650000Y-112750000D03*
%TD*%
D21*
%TO.C,C2*%
X142900000Y-101900000D03*
X142900000Y-98950000D03*
%TD*%
D27*
%TO.C,R5*%
X140750000Y-102000000D03*
X140750000Y-100980000D03*
%TD*%
D28*
%TO.C,U1*%
X147475000Y-98500000D03*
X147475000Y-99450000D03*
X147475000Y-100400000D03*
X145200000Y-100400000D03*
X145200000Y-98500000D03*
%TD*%
D29*
%TO.C,R2*%
X140750000Y-98580000D03*
X140750000Y-99600000D03*
%TD*%
D30*
%TO.C,U4*%
X155900000Y-87600000D03*
X155900000Y-88400000D03*
X155900000Y-89200000D03*
X155900000Y-90000000D03*
X155900000Y-90800000D03*
X155900000Y-91600000D03*
X155900000Y-92400000D03*
X155900000Y-93200000D03*
X155900000Y-94000000D03*
X155900000Y-94800000D03*
X155900000Y-95600000D03*
D31*
X154800000Y-96500000D03*
X154000000Y-96500000D03*
X153200000Y-96500000D03*
X152400000Y-96500000D03*
X151600000Y-96500000D03*
X150800000Y-96500000D03*
X150000000Y-96500000D03*
X149200000Y-96500000D03*
X148400000Y-96500000D03*
X147600000Y-96500000D03*
X146800000Y-96500000D03*
X146000000Y-96500000D03*
X145200000Y-96500000D03*
D30*
X144100000Y-95600000D03*
X144100000Y-94800000D03*
X144100000Y-94000000D03*
X144100000Y-93200000D03*
X144100000Y-92400000D03*
X144100000Y-91600000D03*
X144100000Y-90800000D03*
X144100000Y-90000000D03*
X144100000Y-89200000D03*
X144100000Y-88400000D03*
X144100000Y-87600000D03*
D31*
X145200000Y-86700000D03*
X146000000Y-86700000D03*
X146800000Y-86700000D03*
X147600000Y-86700000D03*
X148400000Y-86700000D03*
X149200000Y-86700000D03*
X150000000Y-86700000D03*
X150800000Y-86700000D03*
X151600000Y-86700000D03*
X152400000Y-86700000D03*
X153200000Y-86700000D03*
X154000000Y-86700000D03*
X154800000Y-86700000D03*
D32*
X150000000Y-89625000D03*
X148025000Y-89625000D03*
X151975000Y-91600000D03*
X150000000Y-91600000D03*
X148025000Y-91600000D03*
X151975000Y-93575000D03*
X150000000Y-93575000D03*
X148025000Y-93575000D03*
D33*
X144050000Y-86650000D03*
X144050000Y-96550000D03*
X155950000Y-96550000D03*
X155950000Y-86650000D03*
%TD*%
D21*
%TO.C,C1*%
X150037500Y-102500000D03*
X150037500Y-99550000D03*
%TD*%
D34*
%TO.C,D5*%
X143500000Y-104400000D03*
X141400000Y-104400000D03*
%TD*%
D23*
%TO.C,C12*%
X158150000Y-93655000D03*
X159700000Y-93655000D03*
%TD*%
%LPD*%
M02*
