G04 #@! TF.GenerationSoftware,KiCad,Pcbnew,7.0.11*
G04 #@! TF.CreationDate,2025-04-13T23:55:20+09:00*
G04 #@! TF.ProjectId,sch16t_evt,73636831-3674-45f6-9576-742e6b696361,rev?*
G04 #@! TF.SameCoordinates,Original*
G04 #@! TF.FileFunction,Copper,L3,Inr*
G04 #@! TF.FilePolarity,Positive*
%FSLAX46Y46*%
G04 Gerber Fmt 4.6, Leading zero omitted, Abs format (unit mm)*
G04 Created by KiCad (PCBNEW 7.0.11) date 2025-04-13 23:55:20*
%MOMM*%
%LPD*%
G01*
G04 APERTURE LIST*
G04 #@! TA.AperFunction,ComponentPad*
%ADD10R,1.700000X1.700000*%
G04 #@! TD*
G04 #@! TA.AperFunction,ComponentPad*
%ADD11O,1.700000X1.700000*%
G04 #@! TD*
G04 #@! TA.AperFunction,ViaPad*
%ADD12C,0.600000*%
G04 #@! TD*
G04 #@! TA.AperFunction,Conductor*
%ADD13C,0.250000*%
G04 #@! TD*
G04 APERTURE END LIST*
D10*
X137000000Y-96210000D03*
D11*
X137000000Y-98750000D03*
X137000000Y-101290000D03*
X137000000Y-103830000D03*
D10*
X163000000Y-96210000D03*
D11*
X163000000Y-98750000D03*
X163000000Y-101290000D03*
X163000000Y-103830000D03*
D12*
X152000000Y-100000000D03*
X152000000Y-98600000D03*
X153200000Y-99600000D03*
X146200000Y-102800000D03*
X146200000Y-102000000D03*
X156500000Y-104400000D03*
X156500000Y-102000000D03*
X148900000Y-99500000D03*
X148100000Y-99500000D03*
X147300000Y-99500000D03*
X145600000Y-99500000D03*
X150000000Y-89500000D03*
X151000000Y-114000000D03*
X162000000Y-91000000D03*
X145250000Y-89750000D03*
X146750000Y-88500000D03*
X139000000Y-102500000D03*
X140500000Y-86000000D03*
X140500000Y-88000000D03*
X144250000Y-111250000D03*
X138000000Y-90750000D03*
X162000000Y-93000000D03*
X146500000Y-109750000D03*
X154500000Y-93750000D03*
X153250000Y-92500000D03*
X145250000Y-92500000D03*
X151000000Y-112250000D03*
X144250000Y-109750000D03*
X146750000Y-89750000D03*
X148000000Y-88000000D03*
X157750000Y-86000000D03*
X145250000Y-88500000D03*
X150000000Y-88000000D03*
X159700000Y-93655000D03*
X136000000Y-90750000D03*
X148000000Y-89500000D03*
X138000000Y-107250000D03*
X150000000Y-91500000D03*
X140750000Y-94750000D03*
X149000000Y-112250000D03*
X140750000Y-114000000D03*
X146400000Y-99500000D03*
X140750000Y-96250000D03*
X152000000Y-88000000D03*
X159500000Y-88000000D03*
X153250000Y-93750000D03*
X139000000Y-100000000D03*
X144250000Y-107250000D03*
X139000000Y-105000000D03*
X142750000Y-114000000D03*
X136000000Y-109250000D03*
X149000000Y-114000000D03*
X157750000Y-88000000D03*
X142750000Y-112000000D03*
X164000000Y-91000000D03*
X160000000Y-102500000D03*
X154500000Y-92500000D03*
X140750000Y-112000000D03*
X142500000Y-86000000D03*
X138000000Y-92750000D03*
X136000000Y-92750000D03*
X142500000Y-88000000D03*
X164000000Y-93000000D03*
X136000000Y-107250000D03*
X145500000Y-108500000D03*
X146750000Y-92500000D03*
X159500000Y-86000000D03*
X140750000Y-93250000D03*
X143100000Y-106000000D03*
X155900000Y-89200000D03*
X158500000Y-101200000D03*
X158150000Y-94800000D03*
X161200000Y-104500000D03*
X147700000Y-104100000D03*
X152500000Y-104900000D03*
X152500000Y-104100000D03*
X146900000Y-104900000D03*
X154100000Y-104100000D03*
X153300000Y-104100000D03*
X153300000Y-104900000D03*
X147700000Y-104900000D03*
X146900000Y-104100000D03*
X154100000Y-104900000D03*
X156900000Y-93200000D03*
X146000000Y-95400000D03*
X150800000Y-98125000D03*
X157600000Y-106400000D03*
X149999997Y-98125000D03*
X157600000Y-108200000D03*
X149300000Y-109700000D03*
X159100000Y-111390000D03*
X157600000Y-111390000D03*
X151100000Y-109700000D03*
X142000000Y-91600000D03*
X142000000Y-90800000D03*
X149200000Y-95400000D03*
X148400000Y-95400000D03*
X156900000Y-94800000D03*
X156900000Y-94000000D03*
X142900000Y-108500000D03*
X147500000Y-98500000D03*
X139900000Y-99000000D03*
X142000000Y-92400000D03*
X146800000Y-95400000D03*
X142000000Y-94800000D03*
X150799988Y-95200000D03*
X142000000Y-93200000D03*
X151599991Y-95200000D03*
X142000000Y-95600000D03*
X152399994Y-95200000D03*
X142000000Y-94000000D03*
X153199997Y-95200000D03*
X145800000Y-97500000D03*
X154000000Y-95200000D03*
D13*
X152500000Y-106400000D02*
X157600000Y-106400000D01*
X150800000Y-98125000D02*
X150800000Y-104700000D01*
X150800000Y-104700000D02*
X152500000Y-106400000D01*
X156500000Y-107100000D02*
X157600000Y-108200000D01*
X150000000Y-104836396D02*
X152263604Y-107100000D01*
X149999997Y-98125000D02*
X150000000Y-98125003D01*
X152263604Y-107100000D02*
X156500000Y-107100000D01*
X150000000Y-98125003D02*
X150000000Y-104836396D01*
X139400000Y-90800000D02*
X138800000Y-91400000D01*
X142000000Y-90800000D02*
X139400000Y-90800000D01*
X138450000Y-98750000D02*
X137000000Y-98750000D01*
X138800000Y-91400000D02*
X138800000Y-98400000D01*
X138800000Y-98400000D02*
X138450000Y-98750000D01*
X163000000Y-103830000D02*
X161200000Y-102030000D01*
X161200000Y-102030000D02*
X161200000Y-98400000D01*
X158500000Y-97700000D02*
X157525000Y-96725000D01*
X157525000Y-94541116D02*
X156983884Y-94000000D01*
X157525000Y-96725000D02*
X157525000Y-94541116D01*
X161200000Y-98400000D02*
X160500000Y-97700000D01*
X156983884Y-94000000D02*
X156900000Y-94000000D01*
X160500000Y-97700000D02*
X158500000Y-97700000D01*
X140300000Y-92400000D02*
X139900000Y-92800000D01*
X139900000Y-92800000D02*
X139900000Y-99000000D01*
X142000000Y-92400000D02*
X140300000Y-92400000D01*
X143925000Y-94775000D02*
X150374988Y-94775000D01*
X142000000Y-94800000D02*
X143900000Y-94800000D01*
X150374988Y-94775000D02*
X150799988Y-95200000D01*
X143900000Y-94800000D02*
X143925000Y-94775000D01*
X151599991Y-95200000D02*
X151599991Y-93599991D01*
X151599991Y-93599991D02*
X151200000Y-93200000D01*
X151200000Y-93200000D02*
X142000000Y-93200000D01*
X142000000Y-96300000D02*
X142300000Y-96600000D01*
X142000000Y-95600000D02*
X142000000Y-96300000D01*
X142300000Y-96600000D02*
X152000000Y-96600000D01*
X152000000Y-96600000D02*
X152399994Y-96200006D01*
X152399994Y-96200006D02*
X152399994Y-95200000D01*
X153100000Y-97500000D02*
X145800000Y-97500000D01*
X154000000Y-95200000D02*
X154000000Y-96600000D01*
X154000000Y-96600000D02*
X153100000Y-97500000D01*
G04 #@! TA.AperFunction,Conductor*
G36*
X150471724Y-94691325D02*
G01*
X150905334Y-94917893D01*
X150911080Y-94924762D01*
X150910739Y-94932707D01*
X150802551Y-95196184D01*
X150796239Y-95202536D01*
X150796172Y-95202563D01*
X150532695Y-95310751D01*
X150523740Y-95310724D01*
X150517881Y-95305346D01*
X150291313Y-94871737D01*
X150290520Y-94862821D01*
X150293409Y-94858051D01*
X150458038Y-94693422D01*
X150466310Y-94689996D01*
X150471724Y-94691325D01*
G37*
G04 #@! TD.AperFunction*
G04 #@! TA.AperFunction,Conductor*
G36*
X150267315Y-98235691D02*
G01*
X150273626Y-98242042D01*
X150273967Y-98249987D01*
X150127571Y-98716800D01*
X150121825Y-98723669D01*
X150116407Y-98724999D01*
X149883593Y-98724999D01*
X149875320Y-98721572D01*
X149872429Y-98716800D01*
X149726026Y-98249987D01*
X149726820Y-98241068D01*
X149732676Y-98235692D01*
X149995487Y-98125883D01*
X150004441Y-98125857D01*
X150267315Y-98235691D01*
G37*
G04 #@! TD.AperFunction*
G04 #@! TA.AperFunction,Conductor*
G36*
X152667312Y-95310691D02*
G01*
X152673623Y-95317042D01*
X152673964Y-95324987D01*
X152527565Y-95791801D01*
X152521819Y-95798670D01*
X152516401Y-95800000D01*
X152283587Y-95800000D01*
X152275314Y-95796573D01*
X152272423Y-95791801D01*
X152126023Y-95324987D01*
X152126817Y-95316068D01*
X152132673Y-95310692D01*
X152395484Y-95200883D01*
X152404438Y-95200857D01*
X152667312Y-95310691D01*
G37*
G04 #@! TD.AperFunction*
G04 #@! TA.AperFunction,Conductor*
G36*
X151067318Y-98235691D02*
G01*
X151073629Y-98242042D01*
X151073970Y-98249987D01*
X150927571Y-98716801D01*
X150921825Y-98723670D01*
X150916407Y-98725000D01*
X150683593Y-98725000D01*
X150675320Y-98721573D01*
X150672429Y-98716801D01*
X150526029Y-98249987D01*
X150526823Y-98241068D01*
X150532679Y-98235692D01*
X150795490Y-98125883D01*
X150804444Y-98125857D01*
X151067318Y-98235691D01*
G37*
G04 #@! TD.AperFunction*
G04 #@! TA.AperFunction,Conductor*
G36*
X157271736Y-107691325D02*
G01*
X157705346Y-107917893D01*
X157711092Y-107924762D01*
X157710751Y-107932707D01*
X157602563Y-108196184D01*
X157596251Y-108202536D01*
X157596184Y-108202563D01*
X157332707Y-108310751D01*
X157323752Y-108310724D01*
X157317893Y-108305346D01*
X157091325Y-107871737D01*
X157090532Y-107862821D01*
X157093421Y-107858051D01*
X157258050Y-107693422D01*
X157266322Y-107689996D01*
X157271736Y-107691325D01*
G37*
G04 #@! TD.AperFunction*
G04 #@! TA.AperFunction,Conductor*
G36*
X151724671Y-94603427D02*
G01*
X151727562Y-94608199D01*
X151873961Y-95075012D01*
X151873167Y-95083931D01*
X151867308Y-95089309D01*
X151604502Y-95199115D01*
X151595547Y-95199142D01*
X151595480Y-95199115D01*
X151332673Y-95089309D01*
X151326361Y-95082957D01*
X151326020Y-95075013D01*
X151472420Y-94608199D01*
X151478166Y-94601330D01*
X151483584Y-94600000D01*
X151716398Y-94600000D01*
X151724671Y-94603427D01*
G37*
G04 #@! TD.AperFunction*
G04 #@! TA.AperFunction,Conductor*
G36*
X157118620Y-93797914D02*
G01*
X157120033Y-93799639D01*
X157440887Y-94277600D01*
X157442653Y-94286379D01*
X157439446Y-94292394D01*
X157278477Y-94453362D01*
X157270204Y-94456789D01*
X157261931Y-94453362D01*
X157261384Y-94452775D01*
X157231128Y-94417857D01*
X157110053Y-94340047D01*
X157041007Y-94319773D01*
X156971962Y-94299500D01*
X156971961Y-94299500D01*
X156845760Y-94299500D01*
X156841582Y-94298728D01*
X156796392Y-94281446D01*
X156789888Y-94275290D01*
X156789643Y-94266339D01*
X156789728Y-94266124D01*
X156898394Y-94001480D01*
X156900967Y-93997629D01*
X157102075Y-93797858D01*
X157110358Y-93794460D01*
X157118620Y-93797914D01*
G37*
G04 #@! TD.AperFunction*
G04 #@! TA.AperFunction,Conductor*
G36*
X142267318Y-95710691D02*
G01*
X142273629Y-95717042D01*
X142273970Y-95724987D01*
X142127571Y-96191801D01*
X142121825Y-96198670D01*
X142116407Y-96200000D01*
X141883593Y-96200000D01*
X141875320Y-96196573D01*
X141872429Y-96191801D01*
X141726029Y-95724987D01*
X141726823Y-95716068D01*
X141732679Y-95710692D01*
X141995490Y-95600883D01*
X142004444Y-95600857D01*
X142267318Y-95710691D01*
G37*
G04 #@! TD.AperFunction*
G04 #@! TA.AperFunction,Conductor*
G36*
X146391802Y-97372429D02*
G01*
X146398670Y-97378174D01*
X146400000Y-97383592D01*
X146400000Y-97616407D01*
X146396573Y-97624680D01*
X146391801Y-97627571D01*
X145924987Y-97773970D01*
X145916068Y-97773176D01*
X145910691Y-97767318D01*
X145800883Y-97504509D01*
X145800857Y-97495556D01*
X145800862Y-97495542D01*
X145910691Y-97232680D01*
X145917042Y-97226370D01*
X145924986Y-97226029D01*
X146391802Y-97372429D01*
G37*
G04 #@! TD.AperFunction*
G04 #@! TA.AperFunction,Conductor*
G36*
X142591802Y-93072429D02*
G01*
X142598670Y-93078174D01*
X142600000Y-93083592D01*
X142600000Y-93316407D01*
X142596573Y-93324680D01*
X142591801Y-93327571D01*
X142124987Y-93473970D01*
X142116068Y-93473176D01*
X142110691Y-93467318D01*
X142000883Y-93204509D01*
X142000857Y-93195556D01*
X142000862Y-93195542D01*
X142110691Y-92932680D01*
X142117042Y-92926370D01*
X142124986Y-92926029D01*
X142591802Y-93072429D01*
G37*
G04 #@! TD.AperFunction*
G04 #@! TA.AperFunction,Conductor*
G36*
X154267318Y-95310691D02*
G01*
X154273629Y-95317042D01*
X154273970Y-95324987D01*
X154127571Y-95791801D01*
X154121825Y-95798670D01*
X154116407Y-95800000D01*
X153883593Y-95800000D01*
X153875320Y-95796573D01*
X153872429Y-95791801D01*
X153726029Y-95324987D01*
X153726823Y-95316068D01*
X153732679Y-95310692D01*
X153995490Y-95200883D01*
X154004444Y-95200857D01*
X154267318Y-95310691D01*
G37*
G04 #@! TD.AperFunction*
G04 #@! TA.AperFunction,Conductor*
G36*
X142591802Y-94672429D02*
G01*
X142598670Y-94678174D01*
X142600000Y-94683592D01*
X142600000Y-94916407D01*
X142596573Y-94924680D01*
X142591801Y-94927571D01*
X142124987Y-95073970D01*
X142116068Y-95073176D01*
X142110691Y-95067318D01*
X142000883Y-94804509D01*
X142000857Y-94795556D01*
X142000862Y-94795542D01*
X142110691Y-94532680D01*
X142117042Y-94526370D01*
X142124986Y-94526029D01*
X142591802Y-94672429D01*
G37*
G04 #@! TD.AperFunction*
G04 #@! TA.AperFunction,Conductor*
G36*
X161893251Y-102541968D02*
G01*
X162375027Y-102711102D01*
X163313629Y-103040611D01*
X163320300Y-103046584D01*
X163320792Y-103055526D01*
X163320567Y-103056116D01*
X163002562Y-103826214D01*
X162996237Y-103832553D01*
X162996214Y-103832562D01*
X162226116Y-104150567D01*
X162217161Y-104150558D01*
X162210836Y-104144219D01*
X162210611Y-104143629D01*
X162100755Y-103830707D01*
X161824818Y-103044702D01*
X161711968Y-102723251D01*
X161712460Y-102714309D01*
X161714731Y-102711105D01*
X161881103Y-102544733D01*
X161889375Y-102541307D01*
X161893251Y-102541968D01*
G37*
G04 #@! TD.AperFunction*
G04 #@! TA.AperFunction,Conductor*
G36*
X140024680Y-98403427D02*
G01*
X140027571Y-98408199D01*
X140173970Y-98875012D01*
X140173176Y-98883931D01*
X140167317Y-98889309D01*
X139904511Y-98999115D01*
X139895556Y-98999142D01*
X139895489Y-98999115D01*
X139632682Y-98889309D01*
X139626370Y-98882957D01*
X139626029Y-98875013D01*
X139772429Y-98408199D01*
X139778175Y-98401330D01*
X139783593Y-98400000D01*
X140016407Y-98400000D01*
X140024680Y-98403427D01*
G37*
G04 #@! TD.AperFunction*
G04 #@! TA.AperFunction,Conductor*
G36*
X141883931Y-90526823D02*
G01*
X141889309Y-90532682D01*
X141999115Y-90795489D01*
X141999142Y-90804444D01*
X141999115Y-90804511D01*
X141889309Y-91067317D01*
X141882957Y-91073629D01*
X141875012Y-91073970D01*
X141408199Y-90927571D01*
X141401330Y-90921825D01*
X141400000Y-90916407D01*
X141400000Y-90683592D01*
X141403427Y-90675319D01*
X141408196Y-90672429D01*
X141875013Y-90526029D01*
X141883931Y-90526823D01*
G37*
G04 #@! TD.AperFunction*
G04 #@! TA.AperFunction,Conductor*
G36*
X141883931Y-92126823D02*
G01*
X141889309Y-92132682D01*
X141999115Y-92395489D01*
X141999142Y-92404444D01*
X141999115Y-92404511D01*
X141889309Y-92667317D01*
X141882957Y-92673629D01*
X141875012Y-92673970D01*
X141408199Y-92527571D01*
X141401330Y-92521825D01*
X141400000Y-92516407D01*
X141400000Y-92283592D01*
X141403427Y-92275319D01*
X141408196Y-92272429D01*
X141875013Y-92126029D01*
X141883931Y-92126823D01*
G37*
G04 #@! TD.AperFunction*
G04 #@! TA.AperFunction,Conductor*
G36*
X137336034Y-97969313D02*
G01*
X137336086Y-97969334D01*
X138536319Y-98483948D01*
X138539980Y-98486427D01*
X138704792Y-98651239D01*
X138708219Y-98659512D01*
X138704792Y-98667785D01*
X138702746Y-98669418D01*
X137337001Y-99527930D01*
X137328173Y-99529431D01*
X137320868Y-99524251D01*
X137319969Y-99522513D01*
X137314167Y-99508550D01*
X137001154Y-98755188D01*
X137001146Y-98746239D01*
X137320745Y-97975637D01*
X137327079Y-97969309D01*
X137336034Y-97969313D01*
G37*
G04 #@! TD.AperFunction*
G04 #@! TA.AperFunction,Conductor*
G36*
X157483931Y-106126823D02*
G01*
X157489309Y-106132682D01*
X157599115Y-106395489D01*
X157599142Y-106404444D01*
X157599115Y-106404511D01*
X157489309Y-106667317D01*
X157482957Y-106673629D01*
X157475012Y-106673970D01*
X157008199Y-106527571D01*
X157001330Y-106521825D01*
X157000000Y-106516407D01*
X157000000Y-106283592D01*
X157003427Y-106275319D01*
X157008196Y-106272429D01*
X157475013Y-106126029D01*
X157483931Y-106126823D01*
G37*
G04 #@! TD.AperFunction*
G04 #@! TA.AperFunction,Conductor*
G36*
X157943039Y-98019685D02*
G01*
X157988794Y-98072489D01*
X158000000Y-98124000D01*
X158000000Y-101151854D01*
X157998738Y-101169500D01*
X157994353Y-101199999D01*
X157998738Y-101230498D01*
X158000000Y-101248145D01*
X158000000Y-105276000D01*
X157980315Y-105343039D01*
X157927511Y-105388794D01*
X157876000Y-105400000D01*
X155124000Y-105400000D01*
X155056961Y-105380315D01*
X155011206Y-105327511D01*
X155000000Y-105276000D01*
X155000000Y-103800000D01*
X155000000Y-103200000D01*
X155200000Y-103200000D01*
X155200000Y-98000000D01*
X157876000Y-98000000D01*
X157943039Y-98019685D01*
G37*
G04 #@! TD.AperFunction*
G04 #@! TA.AperFunction,Conductor*
G36*
X145722684Y-98000500D02*
G01*
X145728039Y-98000500D01*
X145877316Y-98000500D01*
X145884307Y-98000000D01*
X146999474Y-98000000D01*
X147066513Y-98019685D01*
X147112268Y-98072489D01*
X147122212Y-98141647D01*
X147093187Y-98205202D01*
X147074625Y-98226622D01*
X147074622Y-98226628D01*
X147014834Y-98357543D01*
X146994353Y-98500000D01*
X147014834Y-98642456D01*
X147074622Y-98773371D01*
X147074623Y-98773373D01*
X147168872Y-98882143D01*
X147289947Y-98959953D01*
X147289950Y-98959954D01*
X147289949Y-98959954D01*
X147428036Y-99000499D01*
X147428038Y-99000500D01*
X147428039Y-99000500D01*
X147571962Y-99000500D01*
X147571962Y-99000499D01*
X147710053Y-98959953D01*
X147831128Y-98882143D01*
X147925377Y-98773373D01*
X147985165Y-98642457D01*
X148005647Y-98500000D01*
X147985165Y-98357543D01*
X147925377Y-98226627D01*
X147925375Y-98226625D01*
X147925374Y-98226622D01*
X147906813Y-98205202D01*
X147877788Y-98141647D01*
X147887732Y-98072488D01*
X147933487Y-98019684D01*
X148000526Y-98000000D01*
X149076000Y-98000000D01*
X149143039Y-98019685D01*
X149188794Y-98072489D01*
X149200000Y-98124000D01*
X149200000Y-103076000D01*
X149180315Y-103143039D01*
X149127511Y-103188794D01*
X149076000Y-103200000D01*
X142324000Y-103200000D01*
X142256961Y-103180315D01*
X142211206Y-103127511D01*
X142200000Y-103076000D01*
X142200000Y-98124000D01*
X142219685Y-98056961D01*
X142272489Y-98011206D01*
X142324000Y-98000000D01*
X145715693Y-98000000D01*
X145722684Y-98000500D01*
G37*
G04 #@! TD.AperFunction*
G04 #@! TA.AperFunction,Conductor*
G36*
X155200000Y-103200000D02*
G01*
X151724000Y-103200000D01*
X151656961Y-103180315D01*
X151611206Y-103127511D01*
X151600000Y-103076000D01*
X151600000Y-98124000D01*
X151619685Y-98056961D01*
X151672489Y-98011206D01*
X151724000Y-98000000D01*
X155200000Y-98000000D01*
X155200000Y-103200000D01*
G37*
G04 #@! TD.AperFunction*
G04 #@! TA.AperFunction,Conductor*
G36*
X155000000Y-103800000D02*
G01*
X154400000Y-103200000D01*
X155000000Y-103200000D01*
X155000000Y-103800000D01*
G37*
G04 #@! TD.AperFunction*
M02*
