G04 #@! TF.GenerationSoftware,KiCad,Pcbnew,7.0.11*
G04 #@! TF.CreationDate,2025-04-13T23:55:20+09:00*
G04 #@! TF.ProjectId,sch16t_evt,73636831-3674-45f6-9576-742e6b696361,rev?*
G04 #@! TF.SameCoordinates,Original*
G04 #@! TF.FileFunction,Soldermask,Bot*
G04 #@! TF.FilePolarity,Negative*
%FSLAX46Y46*%
G04 Gerber Fmt 4.6, Leading zero omitted, Abs format (unit mm)*
G04 Created by KiCad (PCBNEW 7.0.11) date 2025-04-13 23:55:20*
%MOMM*%
%LPD*%
G01*
G04 APERTURE LIST*
G04 Aperture macros list*
%AMRoundRect*
0 Rectangle with rounded corners*
0 $1 Rounding radius*
0 $2 $3 $4 $5 $6 $7 $8 $9 X,Y pos of 4 corners*
0 Add a 4 corners polygon primitive as box body*
4,1,4,$2,$3,$4,$5,$6,$7,$8,$9,$2,$3,0*
0 Add four circle primitives for the rounded corners*
1,1,$1+$1,$2,$3*
1,1,$1+$1,$4,$5*
1,1,$1+$1,$6,$7*
1,1,$1+$1,$8,$9*
0 Add four rect primitives between the rounded corners*
20,1,$1+$1,$2,$3,$4,$5,0*
20,1,$1+$1,$4,$5,$6,$7,0*
20,1,$1+$1,$6,$7,$8,$9,0*
20,1,$1+$1,$8,$9,$2,$3,0*%
G04 Aperture macros list end*
%ADD10C,0.010000*%
%ADD11C,2.200000*%
%ADD12R,1.700000X1.700000*%
%ADD13O,1.700000X1.700000*%
%ADD14C,0.650000*%
%ADD15RoundRect,0.250000X0.325000X0.650000X-0.325000X0.650000X-0.325000X-0.650000X0.325000X-0.650000X0*%
%ADD16RoundRect,0.250000X0.650000X-0.325000X0.650000X0.325000X-0.650000X0.325000X-0.650000X-0.325000X0*%
%ADD17RoundRect,0.150000X0.150000X-0.512500X0.150000X0.512500X-0.150000X0.512500X-0.150000X-0.512500X0*%
%ADD18RoundRect,0.225000X-0.225000X-0.250000X0.225000X-0.250000X0.225000X0.250000X-0.225000X0.250000X0*%
%ADD19RoundRect,0.150000X-0.150000X0.587500X-0.150000X-0.587500X0.150000X-0.587500X0.150000X0.587500X0*%
%ADD20RoundRect,0.250000X0.250000X1.500000X-0.250000X1.500000X-0.250000X-1.500000X0.250000X-1.500000X0*%
%ADD21RoundRect,0.250001X0.499999X1.449999X-0.499999X1.449999X-0.499999X-1.449999X0.499999X-1.449999X0*%
%ADD22RoundRect,0.135000X0.185000X-0.135000X0.185000X0.135000X-0.185000X0.135000X-0.185000X-0.135000X0*%
%ADD23RoundRect,0.150000X0.512500X0.150000X-0.512500X0.150000X-0.512500X-0.150000X0.512500X-0.150000X0*%
%ADD24RoundRect,0.135000X-0.185000X0.135000X-0.185000X-0.135000X0.185000X-0.135000X0.185000X0.135000X0*%
%ADD25RoundRect,0.102000X0.400000X0.200000X-0.400000X0.200000X-0.400000X-0.200000X0.400000X-0.200000X0*%
%ADD26RoundRect,0.102000X0.200000X0.400000X-0.200000X0.400000X-0.200000X-0.400000X0.200000X-0.400000X0*%
%ADD27RoundRect,0.102000X0.725000X0.725000X-0.725000X0.725000X-0.725000X-0.725000X0.725000X-0.725000X0*%
%ADD28RoundRect,0.102000X0.350000X0.350000X-0.350000X0.350000X-0.350000X-0.350000X0.350000X-0.350000X0*%
%ADD29RoundRect,0.112500X0.187500X0.112500X-0.187500X0.112500X-0.187500X-0.112500X0.187500X-0.112500X0*%
G04 APERTURE END LIST*
D10*
X152800000Y-89450000D02*
X152800000Y-90450000D01*
X151150000Y-90450000D01*
X151150000Y-88800000D01*
X152150000Y-88800000D01*
X152800000Y-89450000D01*
G36*
X152800000Y-89450000D02*
G01*
X152800000Y-90450000D01*
X151150000Y-90450000D01*
X151150000Y-88800000D01*
X152150000Y-88800000D01*
X152800000Y-89450000D01*
G37*
D11*
X162000000Y-88000000D03*
D12*
X137000000Y-96210000D03*
D13*
X137000000Y-98750000D03*
X137000000Y-101290000D03*
X137000000Y-103830000D03*
D11*
X162000000Y-112000000D03*
D14*
X147110000Y-108395000D03*
X152890000Y-108395000D03*
D11*
X138000000Y-112000000D03*
D12*
X163000000Y-96210000D03*
D13*
X163000000Y-98750000D03*
X163000000Y-101290000D03*
X163000000Y-103830000D03*
D11*
X138000000Y-88000000D03*
D15*
X158550000Y-99250000D03*
X155600000Y-99250000D03*
D16*
X153250000Y-102550000D03*
X153250000Y-99600000D03*
D17*
X157450000Y-104487500D03*
X156500000Y-104487500D03*
X155550000Y-104487500D03*
X155550000Y-102212500D03*
X157450000Y-102212500D03*
D18*
X158147000Y-91750000D03*
X159697000Y-91750000D03*
D19*
X145200000Y-102462500D03*
X147100000Y-102462500D03*
X146150000Y-104337500D03*
D20*
X151000000Y-107000000D03*
X149000000Y-107000000D03*
D21*
X153350000Y-112750000D03*
X146650000Y-112750000D03*
D16*
X142900000Y-101900000D03*
X142900000Y-98950000D03*
D22*
X140750000Y-102000000D03*
X140750000Y-100980000D03*
D23*
X147475000Y-98500000D03*
X147475000Y-99450000D03*
X147475000Y-100400000D03*
X145200000Y-100400000D03*
X145200000Y-98500000D03*
D24*
X140750000Y-98580000D03*
X140750000Y-99600000D03*
D25*
X155900000Y-87600000D03*
X155900000Y-88400000D03*
X155900000Y-89200000D03*
X155900000Y-90000000D03*
X155900000Y-90800000D03*
X155900000Y-91600000D03*
X155900000Y-92400000D03*
X155900000Y-93200000D03*
X155900000Y-94000000D03*
X155900000Y-94800000D03*
X155900000Y-95600000D03*
D26*
X154800000Y-96500000D03*
X154000000Y-96500000D03*
X153200000Y-96500000D03*
X152400000Y-96500000D03*
X151600000Y-96500000D03*
X150800000Y-96500000D03*
X150000000Y-96500000D03*
X149200000Y-96500000D03*
X148400000Y-96500000D03*
X147600000Y-96500000D03*
X146800000Y-96500000D03*
X146000000Y-96500000D03*
X145200000Y-96500000D03*
D25*
X144100000Y-95600000D03*
X144100000Y-94800000D03*
X144100000Y-94000000D03*
X144100000Y-93200000D03*
X144100000Y-92400000D03*
X144100000Y-91600000D03*
X144100000Y-90800000D03*
X144100000Y-90000000D03*
X144100000Y-89200000D03*
X144100000Y-88400000D03*
X144100000Y-87600000D03*
D26*
X145200000Y-86700000D03*
X146000000Y-86700000D03*
X146800000Y-86700000D03*
X147600000Y-86700000D03*
X148400000Y-86700000D03*
X149200000Y-86700000D03*
X150000000Y-86700000D03*
X150800000Y-86700000D03*
X151600000Y-86700000D03*
X152400000Y-86700000D03*
X153200000Y-86700000D03*
X154000000Y-86700000D03*
X154800000Y-86700000D03*
D27*
X150000000Y-89625000D03*
X148025000Y-89625000D03*
X151975000Y-91600000D03*
X150000000Y-91600000D03*
X148025000Y-91600000D03*
X151975000Y-93575000D03*
X150000000Y-93575000D03*
X148025000Y-93575000D03*
D28*
X144050000Y-86650000D03*
X144050000Y-96550000D03*
X155950000Y-96550000D03*
X155950000Y-86650000D03*
D16*
X150037500Y-102500000D03*
X150037500Y-99550000D03*
D29*
X143500000Y-104400000D03*
X141400000Y-104400000D03*
D18*
X158150000Y-93655000D03*
X159700000Y-93655000D03*
M02*
