G04 #@! TF.GenerationSoftware,KiCad,Pcbnew,7.0.11*
G04 #@! TF.CreationDate,2025-04-13T23:55:20+09:00*
G04 #@! TF.ProjectId,sch16t_evt,73636831-3674-45f6-9576-742e6b696361,rev?*
G04 #@! TF.SameCoordinates,Original*
G04 #@! TF.FileFunction,Copper,L2,Inr*
G04 #@! TF.FilePolarity,Positive*
%FSLAX46Y46*%
G04 Gerber Fmt 4.6, Leading zero omitted, Abs format (unit mm)*
G04 Created by KiCad (PCBNEW 7.0.11) date 2025-04-13 23:55:20*
%MOMM*%
%LPD*%
G01*
G04 APERTURE LIST*
G04 #@! TA.AperFunction,ComponentPad*
%ADD10R,1.700000X1.700000*%
G04 #@! TD*
G04 #@! TA.AperFunction,ComponentPad*
%ADD11O,1.700000X1.700000*%
G04 #@! TD*
G04 #@! TA.AperFunction,ViaPad*
%ADD12C,0.600000*%
G04 #@! TD*
G04 #@! TA.AperFunction,Conductor*
%ADD13C,0.250000*%
G04 #@! TD*
G04 APERTURE END LIST*
D10*
X137000000Y-96210000D03*
D11*
X137000000Y-98750000D03*
X137000000Y-101290000D03*
X137000000Y-103830000D03*
D10*
X163000000Y-96210000D03*
D11*
X163000000Y-98750000D03*
X163000000Y-101290000D03*
X163000000Y-103830000D03*
D12*
X152000000Y-100000000D03*
X152000000Y-98600000D03*
X153200000Y-99600000D03*
X146200000Y-102800000D03*
X146200000Y-102000000D03*
X156500000Y-104400000D03*
X156500000Y-102000000D03*
X148900000Y-99500000D03*
X148100000Y-99500000D03*
X147300000Y-99500000D03*
X145600000Y-99500000D03*
X150000000Y-89500000D03*
X151000000Y-114000000D03*
X162000000Y-91000000D03*
X145250000Y-89750000D03*
X146750000Y-88500000D03*
X139000000Y-102500000D03*
X140500000Y-86000000D03*
X140500000Y-88000000D03*
X144250000Y-111250000D03*
X138000000Y-90750000D03*
X162000000Y-93000000D03*
X146500000Y-109750000D03*
X154500000Y-93750000D03*
X153250000Y-92500000D03*
X145250000Y-92500000D03*
X151000000Y-112250000D03*
X144250000Y-109750000D03*
X146750000Y-89750000D03*
X148000000Y-88000000D03*
X157750000Y-86000000D03*
X145250000Y-88500000D03*
X150000000Y-88000000D03*
X159700000Y-93655000D03*
X136000000Y-90750000D03*
X148000000Y-89500000D03*
X138000000Y-107250000D03*
X150000000Y-91500000D03*
X140750000Y-94750000D03*
X149000000Y-112250000D03*
X140750000Y-114000000D03*
X146400000Y-99500000D03*
X140750000Y-96250000D03*
X152000000Y-88000000D03*
X159500000Y-88000000D03*
X153250000Y-93750000D03*
X139000000Y-100000000D03*
X144250000Y-107250000D03*
X139000000Y-105000000D03*
X142750000Y-114000000D03*
X136000000Y-109250000D03*
X149000000Y-114000000D03*
X157750000Y-88000000D03*
X142750000Y-112000000D03*
X164000000Y-91000000D03*
X160000000Y-102500000D03*
X154500000Y-92500000D03*
X140750000Y-112000000D03*
X142500000Y-86000000D03*
X138000000Y-92750000D03*
X136000000Y-92750000D03*
X142500000Y-88000000D03*
X164000000Y-93000000D03*
X136000000Y-107250000D03*
X145500000Y-108500000D03*
X146750000Y-92500000D03*
X159500000Y-86000000D03*
X140750000Y-93250000D03*
X143100000Y-106000000D03*
X155900000Y-89200000D03*
X158500000Y-101200000D03*
X158150000Y-94800000D03*
X161200000Y-104500000D03*
X147700000Y-104100000D03*
X152500000Y-104900000D03*
X152500000Y-104100000D03*
X146900000Y-104900000D03*
X154100000Y-104100000D03*
X153300000Y-104100000D03*
X153300000Y-104900000D03*
X147700000Y-104900000D03*
X146900000Y-104100000D03*
X154100000Y-104900000D03*
X156900000Y-93200000D03*
X146000000Y-95400000D03*
X150800000Y-98125000D03*
X157600000Y-106400000D03*
X149999997Y-98125000D03*
X157600000Y-108200000D03*
X149300000Y-109700000D03*
X159100000Y-111390000D03*
X157600000Y-111390000D03*
X151100000Y-109700000D03*
X142000000Y-91600000D03*
X142000000Y-90800000D03*
X149200000Y-95400000D03*
X148400000Y-95400000D03*
X156900000Y-94800000D03*
X156900000Y-94000000D03*
X142900000Y-108500000D03*
X147500000Y-98500000D03*
X139900000Y-99000000D03*
X142000000Y-92400000D03*
X146800000Y-95400000D03*
X142000000Y-94800000D03*
X150799988Y-95200000D03*
X142000000Y-93200000D03*
X151599991Y-95200000D03*
X142000000Y-95600000D03*
X152399994Y-95200000D03*
X142000000Y-94000000D03*
X153199997Y-95200000D03*
X145800000Y-97500000D03*
X154000000Y-95200000D03*
D13*
X142000000Y-91600000D02*
X137600000Y-91600000D01*
X137000000Y-92200000D02*
X137000000Y-96210000D01*
X137600000Y-91600000D02*
X137000000Y-92200000D01*
X149200000Y-95400000D02*
X149200000Y-95316116D01*
X142800000Y-95683884D02*
X142600000Y-95883884D01*
X142800000Y-95683884D02*
X142800000Y-95675000D01*
X142600000Y-95883884D02*
X142600000Y-100700000D01*
X142600000Y-100700000D02*
X142010000Y-101290000D01*
X142800000Y-95675000D02*
X143700000Y-94775000D01*
X148658884Y-94775000D02*
X143700000Y-94775000D01*
X142010000Y-101290000D02*
X137000000Y-101290000D01*
X149200000Y-95316116D02*
X148658884Y-94775000D01*
X148400000Y-95400000D02*
X148400000Y-96400000D01*
X147925000Y-96875000D02*
X143955000Y-96875000D01*
X143115000Y-97715000D02*
X143115000Y-102985000D01*
X148400000Y-96400000D02*
X147925000Y-96875000D01*
X143955000Y-96875000D02*
X143115000Y-97715000D01*
X143115000Y-102985000D02*
X142270000Y-103830000D01*
X142270000Y-103830000D02*
X137000000Y-103830000D01*
X156900000Y-98400000D02*
X156900000Y-94800000D01*
X163000000Y-101290000D02*
X161110000Y-99400000D01*
X161110000Y-99400000D02*
X157900000Y-99400000D01*
X157900000Y-99400000D02*
X156900000Y-98400000D01*
X144900000Y-98900000D02*
X144900000Y-108000000D01*
X144900000Y-108000000D02*
X144400000Y-108500000D01*
X144400000Y-108500000D02*
X142900000Y-108500000D01*
X145300000Y-98500000D02*
X144900000Y-98900000D01*
X147500000Y-98500000D02*
X145300000Y-98500000D01*
X153199997Y-95116119D02*
X153199997Y-95200000D01*
X152083878Y-94000000D02*
X153199997Y-95116119D01*
X142000000Y-94000000D02*
X152083878Y-94000000D01*
G04 #@! TA.AperFunction,Conductor*
G36*
X142591802Y-93872429D02*
G01*
X142598670Y-93878174D01*
X142600000Y-93883592D01*
X142600000Y-94116407D01*
X142596573Y-94124680D01*
X142591801Y-94127571D01*
X142124987Y-94273970D01*
X142116068Y-94273176D01*
X142110691Y-94267318D01*
X142000883Y-94004509D01*
X142000857Y-93995556D01*
X142000862Y-93995542D01*
X142110691Y-93732680D01*
X142117042Y-93726370D01*
X142124986Y-93726029D01*
X142591802Y-93872429D01*
G37*
G04 #@! TD.AperFunction*
G04 #@! TA.AperFunction,Conductor*
G36*
X152922394Y-94659113D02*
G01*
X153400357Y-94979966D01*
X153405316Y-94987422D01*
X153403550Y-94996201D01*
X153402137Y-94997926D01*
X153202370Y-95199029D01*
X153198513Y-95201606D01*
X152933922Y-95310251D01*
X152924967Y-95310224D01*
X152918655Y-95303872D01*
X152918550Y-95303607D01*
X152899427Y-95253602D01*
X152898774Y-95247760D01*
X152905641Y-95200000D01*
X152885159Y-95057543D01*
X152825371Y-94926627D01*
X152747157Y-94836362D01*
X152744329Y-94827865D01*
X152747724Y-94820430D01*
X152907601Y-94660553D01*
X152915873Y-94657127D01*
X152922394Y-94659113D01*
G37*
G04 #@! TD.AperFunction*
G04 #@! TA.AperFunction,Conductor*
G36*
X147383931Y-98226823D02*
G01*
X147389309Y-98232682D01*
X147499115Y-98495489D01*
X147499142Y-98504444D01*
X147499115Y-98504511D01*
X147389309Y-98767317D01*
X147382957Y-98773629D01*
X147375012Y-98773970D01*
X146908199Y-98627571D01*
X146901330Y-98621825D01*
X146900000Y-98616407D01*
X146900000Y-98383592D01*
X146903427Y-98375319D01*
X146908196Y-98372429D01*
X147375013Y-98226029D01*
X147383931Y-98226823D01*
G37*
G04 #@! TD.AperFunction*
G04 #@! TA.AperFunction,Conductor*
G36*
X137335836Y-103049791D02*
G01*
X137336413Y-103050049D01*
X138693366Y-103701814D01*
X138699339Y-103708484D01*
X138700000Y-103712360D01*
X138700000Y-103947639D01*
X138696573Y-103955912D01*
X138693366Y-103958186D01*
X137336413Y-104609950D01*
X137327471Y-104610442D01*
X137320800Y-104604469D01*
X137320542Y-104603892D01*
X137000865Y-103834489D01*
X137000856Y-103825534D01*
X137000865Y-103825511D01*
X137320542Y-103056107D01*
X137326881Y-103049782D01*
X137335836Y-103049791D01*
G37*
G04 #@! TD.AperFunction*
G04 #@! TA.AperFunction,Conductor*
G36*
X137127874Y-94513427D02*
G01*
X137128503Y-94514107D01*
X137842990Y-95351781D01*
X137845751Y-95360300D01*
X137842366Y-95367642D01*
X137008278Y-96202712D01*
X137000007Y-96206144D01*
X136991732Y-96202722D01*
X136991722Y-96202712D01*
X136157633Y-95367642D01*
X136154211Y-95359367D01*
X136157007Y-95351783D01*
X136871497Y-94514107D01*
X136879473Y-94510037D01*
X136880399Y-94510000D01*
X137119601Y-94510000D01*
X137127874Y-94513427D01*
G37*
G04 #@! TD.AperFunction*
G04 #@! TA.AperFunction,Conductor*
G36*
X148667318Y-95510691D02*
G01*
X148673629Y-95517042D01*
X148673970Y-95524987D01*
X148527571Y-95991801D01*
X148521825Y-95998670D01*
X148516407Y-96000000D01*
X148283593Y-96000000D01*
X148275320Y-95996573D01*
X148272429Y-95991801D01*
X148126029Y-95524987D01*
X148126823Y-95516068D01*
X148132679Y-95510692D01*
X148395490Y-95400883D01*
X148404444Y-95400857D01*
X148667318Y-95510691D01*
G37*
G04 #@! TD.AperFunction*
G04 #@! TA.AperFunction,Conductor*
G36*
X161893251Y-100001968D02*
G01*
X162375027Y-100171102D01*
X163313629Y-100500611D01*
X163320300Y-100506584D01*
X163320792Y-100515526D01*
X163320567Y-100516116D01*
X163002562Y-101286214D01*
X162996237Y-101292553D01*
X162996214Y-101292562D01*
X162226116Y-101610567D01*
X162217161Y-101610558D01*
X162210836Y-101604219D01*
X162210611Y-101603629D01*
X162100755Y-101290707D01*
X161824818Y-100504702D01*
X161711968Y-100183251D01*
X161712460Y-100174309D01*
X161714731Y-100171105D01*
X161881103Y-100004733D01*
X161889375Y-100001307D01*
X161893251Y-100001968D01*
G37*
G04 #@! TD.AperFunction*
G04 #@! TA.AperFunction,Conductor*
G36*
X137335836Y-100509791D02*
G01*
X137336413Y-100510049D01*
X138693366Y-101161814D01*
X138699339Y-101168484D01*
X138700000Y-101172360D01*
X138700000Y-101407639D01*
X138696573Y-101415912D01*
X138693366Y-101418186D01*
X137336413Y-102069950D01*
X137327471Y-102070442D01*
X137320800Y-102064469D01*
X137320542Y-102063892D01*
X137000865Y-101294489D01*
X137000856Y-101285534D01*
X137000865Y-101285511D01*
X137320542Y-100516107D01*
X137326881Y-100509782D01*
X137335836Y-100509791D01*
G37*
G04 #@! TD.AperFunction*
G04 #@! TA.AperFunction,Conductor*
G36*
X143491802Y-108372429D02*
G01*
X143498670Y-108378174D01*
X143500000Y-108383592D01*
X143500000Y-108616407D01*
X143496573Y-108624680D01*
X143491801Y-108627571D01*
X143024987Y-108773970D01*
X143016068Y-108773176D01*
X143010691Y-108767318D01*
X142900883Y-108504509D01*
X142900857Y-108495556D01*
X142900862Y-108495542D01*
X143010691Y-108232680D01*
X143017042Y-108226370D01*
X143024986Y-108226029D01*
X143491802Y-108372429D01*
G37*
G04 #@! TD.AperFunction*
G04 #@! TA.AperFunction,Conductor*
G36*
X157167318Y-94910691D02*
G01*
X157173629Y-94917042D01*
X157173970Y-94924987D01*
X157027571Y-95391801D01*
X157021825Y-95398670D01*
X157016407Y-95400000D01*
X156783593Y-95400000D01*
X156775320Y-95396573D01*
X156772429Y-95391801D01*
X156626029Y-94924987D01*
X156626823Y-94916068D01*
X156632679Y-94910692D01*
X156895490Y-94800883D01*
X156904444Y-94800857D01*
X157167318Y-94910691D01*
G37*
G04 #@! TD.AperFunction*
G04 #@! TA.AperFunction,Conductor*
G36*
X141883931Y-91326823D02*
G01*
X141889309Y-91332682D01*
X141999115Y-91595489D01*
X141999142Y-91604444D01*
X141999115Y-91604511D01*
X141889309Y-91867317D01*
X141882957Y-91873629D01*
X141875012Y-91873970D01*
X141408199Y-91727571D01*
X141401330Y-91721825D01*
X141400000Y-91716407D01*
X141400000Y-91483592D01*
X141403427Y-91475319D01*
X141408196Y-91472429D01*
X141875013Y-91326029D01*
X141883931Y-91326823D01*
G37*
G04 #@! TD.AperFunction*
G04 #@! TA.AperFunction,Conductor*
G36*
X148922399Y-94859112D02*
G01*
X149400360Y-95179966D01*
X149405319Y-95187422D01*
X149403553Y-95196201D01*
X149402140Y-95197926D01*
X149202373Y-95399029D01*
X149198516Y-95401606D01*
X148933925Y-95510251D01*
X148924970Y-95510224D01*
X148918658Y-95503872D01*
X148918568Y-95503646D01*
X148899431Y-95453606D01*
X148898779Y-95447766D01*
X148905647Y-95400000D01*
X148885165Y-95257543D01*
X148825377Y-95126627D01*
X148747162Y-95036361D01*
X148744334Y-95027864D01*
X148747729Y-95020429D01*
X148907606Y-94860552D01*
X148915878Y-94857126D01*
X148922399Y-94859112D01*
G37*
G04 #@! TD.AperFunction*
M02*
