M48
; DRILL file {KiCad 7.0.11} date Sun Apr 13 23:55:18 2025
; FORMAT={-:-/ absolute / metric / decimal}
; #@! TF.CreationDate,2025-04-13T23:55:18+09:00
; #@! TF.GenerationSoftware,Kicad,Pcbnew,7.0.11
; #@! TF.FileFunction,MixedPlating,1,4
FMAT,2
METRIC
; #@! TA.AperFunction,Plated,PTH,ViaDrill
T1C0.300
; #@! TA.AperFunction,Plated,PTH,ComponentDrill
T2C1.000
; #@! TA.AperFunction,NonPlated,NPTH,ComponentDrill
T3C0.650
; #@! TA.AperFunction,NonPlated,NPTH,ComponentDrill
T4C2.200
%
G90
G05
T1
X136.0Y-90.75
X136.0Y-92.75
X136.0Y-107.25
X136.0Y-109.25
X138.0Y-90.75
X138.0Y-92.75
X138.0Y-107.25
X139.0Y-100.0
X139.0Y-102.5
X139.0Y-105.0
X139.9Y-99.0
X140.5Y-86.0
X140.5Y-88.0
X140.75Y-93.25
X140.75Y-94.75
X140.75Y-96.25
X140.75Y-112.0
X140.75Y-114.0
X142.0Y-90.8
X142.0Y-91.6
X142.0Y-92.4
X142.0Y-93.2
X142.0Y-94.0
X142.0Y-94.8
X142.0Y-95.6
X142.5Y-86.0
X142.5Y-88.0
X142.75Y-112.0
X142.75Y-114.0
X142.9Y-108.5
X143.1Y-106.0
X144.25Y-107.25
X144.25Y-109.75
X144.25Y-111.25
X145.25Y-88.5
X145.25Y-89.75
X145.25Y-92.5
X145.5Y-108.5
X145.6Y-99.5
X145.8Y-97.5
X146.0Y-95.4
X146.2Y-102.0
X146.2Y-102.8
X146.4Y-99.5
X146.5Y-109.75
X146.75Y-88.5
X146.75Y-89.75
X146.75Y-92.5
X146.8Y-95.4
X146.9Y-104.1
X146.9Y-104.9
X147.3Y-99.5
X147.5Y-98.5
X147.7Y-104.1
X147.7Y-104.9
X148.0Y-88.0
X148.0Y-89.5
X148.1Y-99.5
X148.4Y-95.4
X148.9Y-99.5
X149.0Y-112.25
X149.0Y-114.0
X149.2Y-95.4
X149.3Y-109.7
X150.0Y-98.125
X150.0Y-88.0
X150.0Y-89.5
X150.0Y-91.5
X150.8Y-95.2
X150.8Y-98.125
X151.0Y-112.25
X151.0Y-114.0
X151.1Y-109.7
X151.6Y-95.2
X152.0Y-88.0
X152.0Y-98.6
X152.0Y-100.0
X152.4Y-95.2
X152.5Y-104.1
X152.5Y-104.9
X153.2Y-95.2
X153.2Y-99.6
X153.25Y-92.5
X153.25Y-93.75
X153.3Y-104.1
X153.3Y-104.9
X154.0Y-95.2
X154.1Y-104.1
X154.1Y-104.9
X154.5Y-92.5
X154.5Y-93.75
X155.9Y-89.2
X156.5Y-102.0
X156.5Y-104.4
X156.9Y-93.2
X156.9Y-94.0
X156.9Y-94.8
X157.6Y-106.4
X157.6Y-108.2
X157.6Y-111.39
X157.75Y-86.0
X157.75Y-88.0
X158.15Y-94.8
X158.5Y-101.2
X159.1Y-111.39
X159.5Y-86.0
X159.5Y-88.0
X159.7Y-93.655
X160.0Y-102.5
X161.2Y-104.5
X162.0Y-91.0
X162.0Y-93.0
X164.0Y-91.0
X164.0Y-93.0
T2
X137.0Y-96.21
X137.0Y-98.75
X137.0Y-101.29
X137.0Y-103.83
X163.0Y-96.21
X163.0Y-98.75
X163.0Y-101.29
X163.0Y-103.83
T3
X147.11Y-108.395
X152.89Y-108.395
T4
X138.0Y-88.0
X138.0Y-112.0
X162.0Y-88.0
X162.0Y-112.0
M30
