G04 #@! TF.GenerationSoftware,KiCad,Pcbnew,7.0.11*
G04 #@! TF.CreationDate,2025-04-13T23:55:20+09:00*
G04 #@! TF.ProjectId,sch16t_evt,73636831-3674-45f6-9576-742e6b696361,rev?*
G04 #@! TF.SameCoordinates,Original*
G04 #@! TF.FileFunction,Copper,L1,Top*
G04 #@! TF.FilePolarity,Positive*
%FSLAX46Y46*%
G04 Gerber Fmt 4.6, Leading zero omitted, Abs format (unit mm)*
G04 Created by KiCad (PCBNEW 7.0.11) date 2025-04-13 23:55:20*
%MOMM*%
%LPD*%
G01*
G04 APERTURE LIST*
G04 Aperture macros list*
%AMRoundRect*
0 Rectangle with rounded corners*
0 $1 Rounding radius*
0 $2 $3 $4 $5 $6 $7 $8 $9 X,Y pos of 4 corners*
0 Add a 4 corners polygon primitive as box body*
4,1,4,$2,$3,$4,$5,$6,$7,$8,$9,$2,$3,0*
0 Add four circle primitives for the rounded corners*
1,1,$1+$1,$2,$3*
1,1,$1+$1,$4,$5*
1,1,$1+$1,$6,$7*
1,1,$1+$1,$8,$9*
0 Add four rect primitives between the rounded corners*
20,1,$1+$1,$2,$3,$4,$5,0*
20,1,$1+$1,$4,$5,$6,$7,0*
20,1,$1+$1,$6,$7,$8,$9,0*
20,1,$1+$1,$8,$9,$2,$3,0*%
G04 Aperture macros list end*
G04 #@! TA.AperFunction,SMDPad,CuDef*
%ADD10RoundRect,0.112500X-0.187500X-0.112500X0.187500X-0.112500X0.187500X0.112500X-0.187500X0.112500X0*%
G04 #@! TD*
G04 #@! TA.AperFunction,SMDPad,CuDef*
%ADD11RoundRect,0.140000X0.170000X-0.140000X0.170000X0.140000X-0.170000X0.140000X-0.170000X-0.140000X0*%
G04 #@! TD*
G04 #@! TA.AperFunction,ComponentPad*
%ADD12R,1.700000X1.700000*%
G04 #@! TD*
G04 #@! TA.AperFunction,ComponentPad*
%ADD13O,1.700000X1.700000*%
G04 #@! TD*
G04 #@! TA.AperFunction,SMDPad,CuDef*
%ADD14RoundRect,0.135000X0.185000X-0.135000X0.185000X0.135000X-0.185000X0.135000X-0.185000X-0.135000X0*%
G04 #@! TD*
G04 #@! TA.AperFunction,SMDPad,CuDef*
%ADD15RoundRect,0.135000X-0.185000X0.135000X-0.185000X-0.135000X0.185000X-0.135000X0.185000X0.135000X0*%
G04 #@! TD*
G04 #@! TA.AperFunction,SMDPad,CuDef*
%ADD16RoundRect,0.250000X-0.475000X0.250000X-0.475000X-0.250000X0.475000X-0.250000X0.475000X0.250000X0*%
G04 #@! TD*
G04 #@! TA.AperFunction,SMDPad,CuDef*
%ADD17RoundRect,0.243750X-0.243750X-0.456250X0.243750X-0.456250X0.243750X0.456250X-0.243750X0.456250X0*%
G04 #@! TD*
G04 #@! TA.AperFunction,SMDPad,CuDef*
%ADD18RoundRect,0.150000X-0.150000X-0.200000X0.150000X-0.200000X0.150000X0.200000X-0.150000X0.200000X0*%
G04 #@! TD*
G04 #@! TA.AperFunction,SMDPad,CuDef*
%ADD19RoundRect,0.140000X-0.140000X-0.170000X0.140000X-0.170000X0.140000X0.170000X-0.140000X0.170000X0*%
G04 #@! TD*
G04 #@! TA.AperFunction,SMDPad,CuDef*
%ADD20R,0.650000X1.050000*%
G04 #@! TD*
G04 #@! TA.AperFunction,SMDPad,CuDef*
%ADD21RoundRect,0.150000X-0.150000X-0.425000X0.150000X-0.425000X0.150000X0.425000X-0.150000X0.425000X0*%
G04 #@! TD*
G04 #@! TA.AperFunction,SMDPad,CuDef*
%ADD22RoundRect,0.075000X-0.075000X-0.500000X0.075000X-0.500000X0.075000X0.500000X-0.075000X0.500000X0*%
G04 #@! TD*
G04 #@! TA.AperFunction,SMDPad,CuDef*
%ADD23RoundRect,0.250000X-0.840000X-0.750000X0.840000X-0.750000X0.840000X0.750000X-0.840000X0.750000X0*%
G04 #@! TD*
G04 #@! TA.AperFunction,SMDPad,CuDef*
%ADD24R,2.000000X0.500000*%
G04 #@! TD*
G04 #@! TA.AperFunction,SMDPad,CuDef*
%ADD25RoundRect,0.225000X-0.225000X-0.250000X0.225000X-0.250000X0.225000X0.250000X-0.225000X0.250000X0*%
G04 #@! TD*
G04 #@! TA.AperFunction,SMDPad,CuDef*
%ADD26RoundRect,0.140000X0.140000X0.170000X-0.140000X0.170000X-0.140000X-0.170000X0.140000X-0.170000X0*%
G04 #@! TD*
G04 #@! TA.AperFunction,SMDPad,CuDef*
%ADD27RoundRect,0.135000X0.135000X0.185000X-0.135000X0.185000X-0.135000X-0.185000X0.135000X-0.185000X0*%
G04 #@! TD*
G04 #@! TA.AperFunction,ViaPad*
%ADD28C,0.600000*%
G04 #@! TD*
G04 #@! TA.AperFunction,Conductor*
%ADD29C,0.500000*%
G04 #@! TD*
G04 #@! TA.AperFunction,Conductor*
%ADD30C,0.250000*%
G04 #@! TD*
G04 #@! TA.AperFunction,Conductor*
%ADD31C,0.200000*%
G04 #@! TD*
G04 APERTURE END LIST*
D10*
X158200000Y-96200000D03*
X160300000Y-96200000D03*
D11*
X159000000Y-91075000D03*
X159000000Y-90115000D03*
D12*
X137000000Y-96210000D03*
D13*
X137000000Y-98750000D03*
X137000000Y-101290000D03*
X137000000Y-103830000D03*
D14*
X151000000Y-91120000D03*
X151000000Y-90100000D03*
D15*
X141300000Y-99000000D03*
X141300000Y-100020000D03*
X142000000Y-106250000D03*
X142000000Y-107270000D03*
D16*
X141250000Y-102800000D03*
X141250000Y-104700000D03*
D17*
X138750000Y-106770000D03*
X140625000Y-106770000D03*
D18*
X159000000Y-106400000D03*
X157600000Y-106400000D03*
D19*
X158500000Y-101200000D03*
X159460000Y-101200000D03*
D20*
X156000000Y-86925000D03*
X156000000Y-91075000D03*
X153850000Y-86925000D03*
X153850000Y-91075000D03*
D11*
X157700000Y-91075000D03*
X157700000Y-90115000D03*
D21*
X146800000Y-107320000D03*
X147600000Y-107320000D03*
D22*
X148750000Y-107320000D03*
X149750000Y-107320000D03*
X150250000Y-107320000D03*
X151250000Y-107320000D03*
D21*
X152400000Y-107320000D03*
X153200000Y-107320000D03*
X153200000Y-107320000D03*
X152400000Y-107320000D03*
D22*
X151750000Y-107320000D03*
X150750000Y-107320000D03*
X149250000Y-107320000D03*
X148250000Y-107320000D03*
D21*
X147600000Y-107320000D03*
X146800000Y-107320000D03*
D23*
X144890000Y-107895000D03*
X144890000Y-111825000D03*
X155110000Y-107895000D03*
X155110000Y-111825000D03*
D15*
X157600000Y-111390000D03*
X157600000Y-112410000D03*
D24*
X144000000Y-95600000D03*
X144000000Y-96400000D03*
X144000000Y-97200000D03*
X144000000Y-98000000D03*
X144000000Y-98800000D03*
X144000000Y-99600000D03*
X144000000Y-100400000D03*
X144000000Y-101200000D03*
X144000000Y-102000000D03*
X144000000Y-102800000D03*
X144000000Y-103600000D03*
X144000000Y-104400000D03*
X156000000Y-104400000D03*
X156000000Y-103600000D03*
X156000000Y-102800000D03*
X156000000Y-102000000D03*
X156000000Y-101200000D03*
X156000000Y-100400000D03*
X156000000Y-99600000D03*
X156000000Y-98800000D03*
X156000000Y-98000000D03*
X156000000Y-97200000D03*
X156000000Y-96400000D03*
X156000000Y-95600000D03*
D25*
X158500000Y-99700000D03*
X160050000Y-99700000D03*
D20*
X146000000Y-86925000D03*
X146000000Y-91075000D03*
X143850000Y-86925000D03*
X143850000Y-91075000D03*
D25*
X158500000Y-103613000D03*
X160050000Y-103613000D03*
D18*
X159000000Y-108200000D03*
X157600000Y-108200000D03*
X159000000Y-110000000D03*
X157600000Y-110000000D03*
D14*
X142000000Y-109520000D03*
X142000000Y-108500000D03*
D26*
X141300000Y-101200000D03*
X140340000Y-101200000D03*
D17*
X138750000Y-109000000D03*
X140625000Y-109000000D03*
D11*
X147800000Y-91075000D03*
X147800000Y-90115000D03*
D12*
X163000000Y-96210000D03*
D13*
X163000000Y-98750000D03*
X163000000Y-101290000D03*
X163000000Y-103830000D03*
D15*
X159100000Y-111390000D03*
X159100000Y-112410000D03*
D27*
X158720000Y-93200000D03*
X157700000Y-93200000D03*
D28*
X152000000Y-100000000D03*
X152000000Y-98600000D03*
X153200000Y-99600000D03*
X146200000Y-102800000D03*
X146200000Y-102000000D03*
X156500000Y-104400000D03*
X156500000Y-102000000D03*
X148900000Y-99500000D03*
X148100000Y-99500000D03*
X147300000Y-99500000D03*
X145600000Y-99500000D03*
X150000000Y-89500000D03*
X151000000Y-114000000D03*
X162000000Y-91000000D03*
X145250000Y-89750000D03*
X146750000Y-88500000D03*
X139000000Y-102500000D03*
X140500000Y-86000000D03*
X140500000Y-88000000D03*
X144250000Y-111250000D03*
X138000000Y-90750000D03*
X162000000Y-93000000D03*
X146500000Y-109750000D03*
X154500000Y-93750000D03*
X153250000Y-92500000D03*
X145250000Y-92500000D03*
X151000000Y-112250000D03*
X144250000Y-109750000D03*
X146750000Y-89750000D03*
X148000000Y-88000000D03*
X157750000Y-86000000D03*
X145250000Y-88500000D03*
X150000000Y-88000000D03*
X159700000Y-93655000D03*
X136000000Y-90750000D03*
X148000000Y-89500000D03*
X138000000Y-107250000D03*
X150000000Y-91500000D03*
X140750000Y-94750000D03*
X149000000Y-112250000D03*
X140750000Y-114000000D03*
X146400000Y-99500000D03*
X140750000Y-96250000D03*
X152000000Y-88000000D03*
X159500000Y-88000000D03*
X153250000Y-93750000D03*
X139000000Y-100000000D03*
X144250000Y-107250000D03*
X139000000Y-105000000D03*
X142750000Y-114000000D03*
X136000000Y-109250000D03*
X149000000Y-114000000D03*
X157750000Y-88000000D03*
X142750000Y-112000000D03*
X164000000Y-91000000D03*
X160000000Y-102500000D03*
X154500000Y-92500000D03*
X140750000Y-112000000D03*
X142500000Y-86000000D03*
X138000000Y-92750000D03*
X136000000Y-92750000D03*
X142500000Y-88000000D03*
X164000000Y-93000000D03*
X136000000Y-107250000D03*
X145500000Y-108500000D03*
X146750000Y-92500000D03*
X159500000Y-86000000D03*
X140750000Y-93250000D03*
X143100000Y-106000000D03*
X155900000Y-89200000D03*
X158500000Y-101200000D03*
X158150000Y-94800000D03*
X161200000Y-104500000D03*
X147700000Y-104100000D03*
X152500000Y-104900000D03*
X152500000Y-104100000D03*
X146900000Y-104900000D03*
X154100000Y-104100000D03*
X153300000Y-104100000D03*
X153300000Y-104900000D03*
X147700000Y-104900000D03*
X146900000Y-104100000D03*
X154100000Y-104900000D03*
X156900000Y-93200000D03*
X146000000Y-95400000D03*
X150800000Y-98125000D03*
X157600000Y-106400000D03*
X149999997Y-98125000D03*
X157600000Y-108200000D03*
X149300000Y-109700000D03*
X159100000Y-111390000D03*
X157600000Y-111390000D03*
X151100000Y-109700000D03*
X142000000Y-91600000D03*
X142000000Y-90800000D03*
X149200000Y-95400000D03*
X148400000Y-95400000D03*
X156900000Y-94800000D03*
X156900000Y-94000000D03*
X142900000Y-108500000D03*
X147500000Y-98500000D03*
X139900000Y-99000000D03*
X142000000Y-92400000D03*
X146800000Y-95400000D03*
X142000000Y-94800000D03*
X150799988Y-95200000D03*
X142000000Y-93200000D03*
X151599991Y-95200000D03*
X142000000Y-95600000D03*
X152399994Y-95200000D03*
X142000000Y-94000000D03*
X153199997Y-95200000D03*
X145800000Y-97500000D03*
X154000000Y-95200000D03*
D29*
X146200000Y-102000000D02*
X156000000Y-102000000D01*
X156000000Y-102000000D02*
X159500000Y-102000000D01*
X155110000Y-107895000D02*
X156215000Y-109000000D01*
X146400000Y-99100000D02*
X146100000Y-98800000D01*
X144000000Y-102000000D02*
X146200000Y-102000000D01*
X144000000Y-98000000D02*
X144000000Y-98800000D01*
X160201388Y-97200000D02*
X159530000Y-96528612D01*
X159500000Y-102000000D02*
X160000000Y-102500000D01*
X142500000Y-88000000D02*
X143000000Y-88500000D01*
X144000000Y-100400000D02*
X146200000Y-100400000D01*
X161450000Y-97200000D02*
X160201388Y-97200000D01*
X163000000Y-98750000D02*
X161450000Y-97200000D01*
X143000000Y-88500000D02*
X143000000Y-95000000D01*
X143000000Y-95000000D02*
X143600000Y-95600000D01*
X159530000Y-96528612D02*
X159530000Y-93825000D01*
X146400000Y-100200000D02*
X146200000Y-100400000D01*
X146400000Y-99100000D02*
X146400000Y-99500000D01*
X150000000Y-89500000D02*
X150000000Y-91500000D01*
X146400000Y-99500000D02*
X146400000Y-100200000D01*
X146100000Y-98800000D02*
X144000000Y-98800000D01*
X156215000Y-109000000D02*
X158200000Y-109000000D01*
X159530000Y-93825000D02*
X159700000Y-93655000D01*
X143600000Y-95600000D02*
X144000000Y-95600000D01*
X158200000Y-109000000D02*
X159000000Y-108200000D01*
D30*
X152400000Y-107320000D02*
X152400000Y-107895051D01*
X152400000Y-110000000D02*
X157600000Y-110000000D01*
X152190000Y-109800000D02*
X152200000Y-109800000D01*
X152190000Y-109985051D02*
X152204949Y-110000000D01*
X141025001Y-107900000D02*
X142400000Y-107900000D01*
X148000000Y-110500000D02*
X149800000Y-110500000D01*
X147800000Y-110300000D02*
X148000000Y-110500000D01*
X152204949Y-110000000D02*
X152400000Y-110000000D01*
X140625000Y-108300001D02*
X141025001Y-107900000D01*
X152190000Y-109800000D02*
X152190000Y-109985051D01*
X152400000Y-107895051D02*
X152190000Y-108105051D01*
X152000000Y-110500000D02*
X150200000Y-110500000D01*
X149800000Y-110500000D02*
X150000000Y-110500000D01*
X143100000Y-107200000D02*
X143100000Y-106000000D01*
X152200000Y-109800000D02*
X152400000Y-110000000D01*
X152190000Y-109985051D02*
X152190000Y-110310000D01*
X147600000Y-107320000D02*
X147600000Y-107895051D01*
X152190000Y-110310000D02*
X152190000Y-110210000D01*
X147800000Y-110020000D02*
X147800000Y-110300000D01*
X152190000Y-110210000D02*
X152400000Y-110000000D01*
D29*
X147600000Y-107320000D02*
X147600000Y-106692316D01*
X146907684Y-106000000D02*
X143100000Y-106000000D01*
D30*
X147600000Y-107895051D02*
X147810000Y-108105051D01*
D29*
X147600000Y-106692316D02*
X146907684Y-106000000D01*
D30*
X150200000Y-110500000D02*
X150000000Y-110500000D01*
X147810000Y-108105051D02*
X147810000Y-110010000D01*
X142400000Y-107900000D02*
X143100000Y-107200000D01*
X152190000Y-110310000D02*
X152000000Y-110500000D01*
X140625000Y-109000000D02*
X140625000Y-108300001D01*
X152190000Y-108105051D02*
X152190000Y-109800000D01*
X147810000Y-110010000D02*
X147800000Y-110020000D01*
X140974999Y-101835000D02*
X140500000Y-101835000D01*
X141300000Y-101509999D02*
X140974999Y-101835000D01*
D29*
X141300000Y-101200000D02*
X144000000Y-101200000D01*
X152500000Y-90100000D02*
X151000000Y-90100000D01*
X158720000Y-94230000D02*
X158720000Y-93200000D01*
D30*
X140500000Y-101835000D02*
X140200000Y-102135000D01*
D29*
X158150000Y-94800000D02*
X158720000Y-94230000D01*
D30*
X140525000Y-105525000D02*
X141825000Y-105525000D01*
D29*
X155900000Y-89200000D02*
X153400000Y-89200000D01*
D30*
X140200000Y-105200000D02*
X140525000Y-105525000D01*
X142000000Y-105700000D02*
X142000000Y-106250000D01*
D29*
X158500000Y-101200000D02*
X156000000Y-101200000D01*
X158500000Y-99700000D02*
X158500000Y-101200000D01*
D30*
X140200000Y-102135000D02*
X140200000Y-105200000D01*
D29*
X144000000Y-101200000D02*
X156000000Y-101200000D01*
X141300000Y-100020000D02*
X141300000Y-101200000D01*
X153400000Y-89200000D02*
X152500000Y-90100000D01*
D30*
X141825000Y-105525000D02*
X142000000Y-105700000D01*
X141300000Y-101200000D02*
X141300000Y-101509999D01*
D31*
X144000000Y-103600000D02*
X144000000Y-102800000D01*
X144000000Y-102800000D02*
X141250000Y-102800000D01*
D29*
X158800000Y-97900000D02*
X160400000Y-97900000D01*
X158200000Y-97300000D02*
X158800000Y-97900000D01*
X161200000Y-98700000D02*
X161200000Y-104500000D01*
X160400000Y-97900000D02*
X161200000Y-98700000D01*
X158200000Y-96200000D02*
X158200000Y-97300000D01*
D30*
X156013000Y-103613000D02*
X156000000Y-103600000D01*
X158500000Y-103613000D02*
X156013000Y-103613000D01*
X156000000Y-103600000D02*
X156000000Y-102800000D01*
X157700000Y-91075000D02*
X157700000Y-93200000D01*
X157700000Y-93200000D02*
X156900000Y-93200000D01*
X159000000Y-91075000D02*
X156000000Y-91075000D01*
X147800000Y-91075000D02*
X146075000Y-91075000D01*
X146000000Y-95400000D02*
X146000000Y-91075000D01*
X139700000Y-109586088D02*
X140138912Y-110025000D01*
X139700000Y-109200000D02*
X139700000Y-109586088D01*
X139500000Y-109000000D02*
X139700000Y-109200000D01*
X140138912Y-110025000D02*
X141495000Y-110025000D01*
X141495000Y-110025000D02*
X142000000Y-109520000D01*
X138750000Y-109000000D02*
X139500000Y-109000000D01*
X149507236Y-106420000D02*
X150230000Y-106420000D01*
X157600000Y-106500000D02*
X157600000Y-106400000D01*
X149250000Y-107320000D02*
X149250000Y-106677236D01*
X150250000Y-106400000D02*
X150250000Y-106677236D01*
X150430000Y-105970000D02*
X150250000Y-106150000D01*
X150230000Y-106420000D02*
X150250000Y-106400000D01*
X150250000Y-106677236D02*
X150250000Y-107320000D01*
X157500000Y-106400000D02*
X156661496Y-106400000D01*
X157500000Y-106400000D02*
X157500000Y-106400000D01*
X150250000Y-106150000D02*
X150250000Y-106400000D01*
X157600000Y-106400000D02*
X157500000Y-106400000D01*
X156661496Y-106400000D02*
X156231496Y-105970000D01*
X149250000Y-106677236D02*
X149507236Y-106420000D01*
X156231496Y-105970000D02*
X150430000Y-105970000D01*
X157600000Y-106500000D02*
X157600000Y-106500000D01*
X150492764Y-108220000D02*
X150750000Y-107962764D01*
X151007236Y-106420000D02*
X156045100Y-106420000D01*
X150750000Y-107320000D02*
X150750000Y-106677236D01*
X149750000Y-107320000D02*
X149750000Y-107962764D01*
X156700000Y-107900000D02*
X157000000Y-108200000D01*
X150750000Y-107962764D02*
X150750000Y-107320000D01*
X149750000Y-107962764D02*
X150007236Y-108220000D01*
X156045100Y-106420000D02*
X156700000Y-107074900D01*
X150007236Y-108220000D02*
X150492764Y-108220000D01*
X156700000Y-107074900D02*
X156700000Y-107900000D01*
X157000000Y-108200000D02*
X157600000Y-108200000D01*
X150750000Y-106677236D02*
X151007236Y-106420000D01*
D29*
X163000000Y-96210000D02*
X160310000Y-96210000D01*
X160310000Y-96210000D02*
X160300000Y-96200000D01*
D31*
X141500000Y-107270000D02*
X141400000Y-107170000D01*
X141300000Y-106770000D02*
X140625000Y-106770000D01*
X141400000Y-106870000D02*
X141300000Y-106770000D01*
X141400000Y-107170000D02*
X141400000Y-106870000D01*
X142000000Y-107270000D02*
X141500000Y-107270000D01*
D30*
X149300000Y-109700000D02*
X148750000Y-109150000D01*
X148750000Y-109150000D02*
X148750000Y-107320000D01*
X151740000Y-107330000D02*
X151750000Y-107320000D01*
X151740000Y-109060000D02*
X151740000Y-107330000D01*
X151100000Y-109700000D02*
X151740000Y-109060000D01*
X142000000Y-108500000D02*
X142900000Y-108500000D01*
D31*
X142300000Y-99400000D02*
X142400000Y-99500000D01*
X141300000Y-99000000D02*
X142100000Y-99000000D01*
X144000000Y-99600000D02*
X142500000Y-99600000D01*
D30*
X139900000Y-99000000D02*
X141300000Y-99000000D01*
D31*
X142300000Y-99200000D02*
X142100000Y-99000000D01*
X142500000Y-99600000D02*
X142400000Y-99500000D01*
X142300000Y-99200000D02*
X142300000Y-99400000D01*
D30*
X150600000Y-93900000D02*
X151000000Y-93500000D01*
X147200000Y-93900000D02*
X150600000Y-93900000D01*
X146800000Y-94300000D02*
X147200000Y-93900000D01*
X151000000Y-93500000D02*
X151000000Y-91120000D01*
X146800000Y-95400000D02*
X146800000Y-94300000D01*
X156000000Y-99600000D02*
X154500000Y-99600000D01*
X154500000Y-99600000D02*
X150799988Y-95899988D01*
X150799988Y-95899988D02*
X150799988Y-95200000D01*
X151599991Y-95899991D02*
X154500000Y-98800000D01*
X154500000Y-98800000D02*
X156000000Y-98800000D01*
X151599991Y-95200000D02*
X151599991Y-95899991D01*
X154499994Y-98000000D02*
X152399994Y-95900000D01*
X156000000Y-98000000D02*
X154499994Y-98000000D01*
X152399994Y-95900000D02*
X152399994Y-95200000D01*
X153199997Y-95813601D02*
X153199997Y-95200000D01*
X156000000Y-97200000D02*
X154586396Y-97200000D01*
X154586396Y-97200000D02*
X153199997Y-95813601D01*
X154000000Y-95800000D02*
X154000000Y-95200000D01*
X156000000Y-96400000D02*
X154600000Y-96400000D01*
X154000000Y-95800000D02*
X154600000Y-96400000D01*
G04 #@! TA.AperFunction,Conductor*
G36*
X147606366Y-106352737D02*
G01*
X147608796Y-106356283D01*
X147781602Y-106747574D01*
X147782039Y-106755877D01*
X147603058Y-107313380D01*
X147597266Y-107320210D01*
X147593048Y-107321449D01*
X147313330Y-107348584D01*
X147304764Y-107345972D01*
X147300555Y-107338069D01*
X147300500Y-107336939D01*
X147300500Y-106861743D01*
X147300500Y-106861740D01*
X147290573Y-106793607D01*
X147250544Y-106711727D01*
X147249392Y-106707508D01*
X147248768Y-106699588D01*
X147251534Y-106691073D01*
X147252146Y-106690411D01*
X147589821Y-106352736D01*
X147598093Y-106349310D01*
X147606366Y-106352737D01*
G37*
G04 #@! TD.AperFunction*
G04 #@! TA.AperFunction,Conductor*
G36*
X158183228Y-103171496D02*
G01*
X158496080Y-103606165D01*
X158498132Y-103614882D01*
X158496080Y-103619835D01*
X158183228Y-104054503D01*
X158175614Y-104059216D01*
X158167991Y-104057863D01*
X157605959Y-103741355D01*
X157600432Y-103734309D01*
X157600000Y-103731160D01*
X157600000Y-103494839D01*
X157603427Y-103486566D01*
X157605959Y-103484644D01*
X158167993Y-103168135D01*
X158176881Y-103167063D01*
X158183228Y-103171496D01*
G37*
G04 #@! TD.AperFunction*
G04 #@! TA.AperFunction,Conductor*
G36*
X151867309Y-95310691D02*
G01*
X151873620Y-95317042D01*
X151873961Y-95324987D01*
X151727562Y-95791801D01*
X151721816Y-95798670D01*
X151716398Y-95800000D01*
X151483584Y-95800000D01*
X151475311Y-95796573D01*
X151472420Y-95791801D01*
X151326020Y-95324987D01*
X151326814Y-95316068D01*
X151332670Y-95310692D01*
X151595481Y-95200883D01*
X151604435Y-95200857D01*
X151867309Y-95310691D01*
G37*
G04 #@! TD.AperFunction*
G04 #@! TA.AperFunction,Conductor*
G36*
X147613608Y-107339559D02*
G01*
X147897356Y-107741257D01*
X147899500Y-107748007D01*
X147899500Y-107829113D01*
X147898415Y-108011856D01*
X147894988Y-108020060D01*
X147730188Y-108184860D01*
X147721915Y-108188287D01*
X147713642Y-108184860D01*
X147713376Y-108184584D01*
X147447115Y-107898310D01*
X147443990Y-107889918D01*
X147444393Y-107887269D01*
X147592764Y-107343229D01*
X147598247Y-107336151D01*
X147607130Y-107335021D01*
X147613608Y-107339559D01*
G37*
G04 #@! TD.AperFunction*
G04 #@! TA.AperFunction,Conductor*
G36*
X146006150Y-91086305D02*
G01*
X146009953Y-91090108D01*
X146321207Y-91593862D01*
X146322641Y-91602701D01*
X146321218Y-91606144D01*
X146128426Y-91919432D01*
X146121172Y-91924682D01*
X146118462Y-91925000D01*
X145881538Y-91925000D01*
X145873265Y-91921573D01*
X145871574Y-91919432D01*
X145678781Y-91606144D01*
X145677363Y-91597302D01*
X145678792Y-91593862D01*
X145990047Y-91090108D01*
X145997311Y-91084871D01*
X146006150Y-91086305D01*
G37*
G04 #@! TD.AperFunction*
G04 #@! TA.AperFunction,Conductor*
G36*
X141994482Y-109518106D02*
G01*
X142001967Y-109523021D01*
X142003114Y-109525156D01*
X142107898Y-109780404D01*
X142107870Y-109789359D01*
X142102783Y-109795060D01*
X141654707Y-110045477D01*
X141645813Y-110046522D01*
X141640726Y-110043537D01*
X141476197Y-109879008D01*
X141472770Y-109870735D01*
X141474027Y-109865459D01*
X141676025Y-109466023D01*
X141682815Y-109460189D01*
X141688652Y-109459812D01*
X141994482Y-109518106D01*
G37*
G04 #@! TD.AperFunction*
G04 #@! TA.AperFunction,Conductor*
G36*
X161447507Y-103903427D02*
G01*
X161450894Y-103910728D01*
X161498947Y-104487370D01*
X161496219Y-104495900D01*
X161488259Y-104500002D01*
X161487326Y-104500042D01*
X161200039Y-104500999D01*
X161199961Y-104500999D01*
X160912673Y-104500042D01*
X160904411Y-104496588D01*
X160901012Y-104488303D01*
X160901052Y-104487370D01*
X160949106Y-103910728D01*
X160953208Y-103902768D01*
X160960766Y-103900000D01*
X161439234Y-103900000D01*
X161447507Y-103903427D01*
G37*
G04 #@! TD.AperFunction*
G04 #@! TA.AperFunction,Conductor*
G36*
X156008257Y-102807290D02*
G01*
X156008290Y-102807323D01*
X156244061Y-103044037D01*
X156247471Y-103052317D01*
X156246236Y-103057526D01*
X156128234Y-103293532D01*
X156121469Y-103299400D01*
X156117769Y-103300000D01*
X155882231Y-103300000D01*
X155873958Y-103296573D01*
X155871766Y-103293532D01*
X155753763Y-103057526D01*
X155753128Y-103048594D01*
X155755935Y-103044040D01*
X155991710Y-102807322D01*
X155999977Y-102803880D01*
X156008257Y-102807290D01*
G37*
G04 #@! TD.AperFunction*
G04 #@! TA.AperFunction,Conductor*
G36*
X157707296Y-91079825D02*
G01*
X157972847Y-91291814D01*
X157977175Y-91299653D01*
X157976180Y-91305840D01*
X157828131Y-91628183D01*
X157821564Y-91634271D01*
X157817499Y-91635000D01*
X157582501Y-91635000D01*
X157574228Y-91631573D01*
X157571869Y-91628183D01*
X157423819Y-91305840D01*
X157423480Y-91296892D01*
X157427149Y-91291816D01*
X157692702Y-91079825D01*
X157701304Y-91077343D01*
X157707296Y-91079825D01*
G37*
G04 #@! TD.AperFunction*
G04 #@! TA.AperFunction,Conductor*
G36*
X147606366Y-106352737D02*
G01*
X147608796Y-106356283D01*
X147781602Y-106747574D01*
X147782039Y-106755877D01*
X147603058Y-107313380D01*
X147597266Y-107320210D01*
X147593048Y-107321449D01*
X147313330Y-107348584D01*
X147304764Y-107345972D01*
X147300555Y-107338069D01*
X147300500Y-107336939D01*
X147300500Y-106861743D01*
X147300500Y-106861740D01*
X147290573Y-106793607D01*
X147250544Y-106711727D01*
X147249392Y-106707508D01*
X147248768Y-106699588D01*
X147251534Y-106691073D01*
X147252146Y-106690411D01*
X147589821Y-106352736D01*
X147598093Y-106349310D01*
X147606366Y-106352737D01*
G37*
G04 #@! TD.AperFunction*
G04 #@! TA.AperFunction,Conductor*
G36*
X156811971Y-100402381D02*
G01*
X156852346Y-100410412D01*
X156897043Y-100428927D01*
X156920913Y-100444877D01*
X156955122Y-100479086D01*
X156971072Y-100502956D01*
X156989588Y-100547655D01*
X156997617Y-100588020D01*
X157000000Y-100612210D01*
X157000000Y-100987789D01*
X156997617Y-101011982D01*
X156989588Y-101052344D01*
X156971072Y-101097043D01*
X156955122Y-101120913D01*
X156920913Y-101155122D01*
X156897043Y-101171072D01*
X156852344Y-101189588D01*
X156835841Y-101192870D01*
X156811978Y-101197617D01*
X156787789Y-101200000D01*
X156556353Y-101200000D01*
X156542469Y-101199220D01*
X156500002Y-101194435D01*
X156499998Y-101194435D01*
X156457531Y-101199220D01*
X156443647Y-101200000D01*
X155212211Y-101200000D01*
X155188020Y-101197617D01*
X155172023Y-101194435D01*
X155147656Y-101189588D01*
X155102956Y-101171072D01*
X155079086Y-101155122D01*
X155044877Y-101120913D01*
X155028927Y-101097043D01*
X155010412Y-101052346D01*
X155002381Y-101011971D01*
X155000000Y-100987789D01*
X155000000Y-100612210D01*
X155002381Y-100588029D01*
X155010412Y-100547651D01*
X155028927Y-100502956D01*
X155044877Y-100479086D01*
X155079086Y-100444877D01*
X155102956Y-100428927D01*
X155147653Y-100410412D01*
X155188027Y-100402381D01*
X155212211Y-100400000D01*
X156787789Y-100400000D01*
X156811971Y-100402381D01*
G37*
G04 #@! TD.AperFunction*
G04 #@! TA.AperFunction,Conductor*
G36*
X139245068Y-108597216D02*
G01*
X139453186Y-108793352D01*
X139738716Y-109062444D01*
X139742387Y-109070611D01*
X139739207Y-109078982D01*
X139738965Y-109079231D01*
X139570954Y-109247242D01*
X139570444Y-109247722D01*
X139211939Y-109565667D01*
X139203476Y-109568593D01*
X139195423Y-109564677D01*
X139194999Y-109564171D01*
X138756329Y-109008210D01*
X138753895Y-108999593D01*
X138757997Y-108991997D01*
X139229529Y-108596763D01*
X139238070Y-108594076D01*
X139245068Y-108597216D01*
G37*
G04 #@! TD.AperFunction*
G04 #@! TA.AperFunction,Conductor*
G36*
X141849336Y-100949052D02*
G01*
X141857273Y-100953198D01*
X141860000Y-100960706D01*
X141860000Y-101439293D01*
X141856573Y-101447566D01*
X141849336Y-101450947D01*
X141528784Y-101479443D01*
X141520240Y-101476762D01*
X141518604Y-101475088D01*
X141465964Y-101409149D01*
X141304825Y-101207297D01*
X141302343Y-101198696D01*
X141304825Y-101192703D01*
X141518604Y-100924910D01*
X141526444Y-100920583D01*
X141528780Y-100920556D01*
X141849336Y-100949052D01*
G37*
G04 #@! TD.AperFunction*
G04 #@! TA.AperFunction,Conductor*
G36*
X151441950Y-109193423D02*
G01*
X151606576Y-109358049D01*
X151610003Y-109366322D01*
X151608673Y-109371740D01*
X151382106Y-109805346D01*
X151375237Y-109811092D01*
X151367292Y-109810751D01*
X151103815Y-109702563D01*
X151097463Y-109696251D01*
X151097436Y-109696184D01*
X150989248Y-109432707D01*
X150989275Y-109423752D01*
X150994651Y-109417894D01*
X151428262Y-109191325D01*
X151437178Y-109190532D01*
X151441950Y-109193423D01*
G37*
G04 #@! TD.AperFunction*
G04 #@! TA.AperFunction,Conductor*
G36*
X157491802Y-93072429D02*
G01*
X157498670Y-93078174D01*
X157500000Y-93083592D01*
X157500000Y-93316407D01*
X157496573Y-93324680D01*
X157491801Y-93327571D01*
X157024987Y-93473970D01*
X157016068Y-93473176D01*
X157010691Y-93467318D01*
X156900883Y-93204509D01*
X156900857Y-93195556D01*
X156900862Y-93195542D01*
X157010691Y-92932680D01*
X157017042Y-92926370D01*
X157024986Y-92926029D01*
X157491802Y-93072429D01*
G37*
G04 #@! TD.AperFunction*
G04 #@! TA.AperFunction,Conductor*
G36*
X143112618Y-105701051D02*
G01*
X143689272Y-105749106D01*
X143697232Y-105753208D01*
X143700000Y-105760766D01*
X143700000Y-106239234D01*
X143696573Y-106247507D01*
X143689272Y-106250894D01*
X143112629Y-106298947D01*
X143104099Y-106296219D01*
X143099997Y-106288259D01*
X143099957Y-106287345D01*
X143099000Y-106000000D01*
X143099957Y-105712671D01*
X143103411Y-105704411D01*
X143111696Y-105701012D01*
X143112618Y-105701051D01*
G37*
G04 #@! TD.AperFunction*
G04 #@! TA.AperFunction,Conductor*
G36*
X150758152Y-107363858D02*
G01*
X150759360Y-107367321D01*
X150852884Y-107886411D01*
X150852471Y-107892179D01*
X150786218Y-108091326D01*
X150780355Y-108098095D01*
X150771423Y-108098735D01*
X150766843Y-108095906D01*
X150606741Y-107935804D01*
X150603320Y-107927891D01*
X150602134Y-107889348D01*
X150600503Y-107836373D01*
X150600499Y-107836152D01*
X150600499Y-107820055D01*
X150600993Y-107816698D01*
X150736641Y-107366023D01*
X150742307Y-107359089D01*
X150751217Y-107358192D01*
X150758152Y-107363858D01*
G37*
G04 #@! TD.AperFunction*
G04 #@! TA.AperFunction,Conductor*
G36*
X141033592Y-101150826D02*
G01*
X141295514Y-101198350D01*
X141303041Y-101203199D01*
X141303437Y-101203810D01*
X141478586Y-101493568D01*
X141479933Y-101502420D01*
X141476875Y-101507864D01*
X141198670Y-101788046D01*
X141190409Y-101791502D01*
X141182124Y-101788104D01*
X141017113Y-101623093D01*
X141013686Y-101614820D01*
X141013686Y-101614780D01*
X141019812Y-101162178D01*
X141023351Y-101153955D01*
X141031669Y-101150640D01*
X141033592Y-101150826D01*
G37*
G04 #@! TD.AperFunction*
G04 #@! TA.AperFunction,Conductor*
G36*
X162156968Y-95366960D02*
G01*
X162992712Y-96201722D01*
X162996144Y-96209993D01*
X162992722Y-96218268D01*
X162992712Y-96218278D01*
X162156968Y-97053039D01*
X162148693Y-97056461D01*
X162141953Y-97054320D01*
X162140138Y-97053039D01*
X161304953Y-96463496D01*
X161300170Y-96455925D01*
X161300000Y-96453937D01*
X161300000Y-95966062D01*
X161303427Y-95957789D01*
X161304947Y-95956507D01*
X162141955Y-95365678D01*
X162150688Y-95363708D01*
X162156968Y-95366960D01*
G37*
G04 #@! TD.AperFunction*
G04 #@! TA.AperFunction,Conductor*
G36*
X141769247Y-107016759D02*
G01*
X141992854Y-107262092D01*
X141995894Y-107270514D01*
X141992121Y-107278591D01*
X141744076Y-107506381D01*
X141735664Y-107509452D01*
X141729904Y-107507649D01*
X141484551Y-107352337D01*
X141378002Y-107284890D01*
X141372846Y-107277570D01*
X141374375Y-107268747D01*
X141375983Y-107266737D01*
X141505693Y-107137027D01*
X141508817Y-107134795D01*
X141755460Y-107014129D01*
X141764396Y-107013573D01*
X141769247Y-107016759D01*
G37*
G04 #@! TD.AperFunction*
G04 #@! TA.AperFunction,Conductor*
G36*
X149233156Y-106544093D02*
G01*
X149393258Y-106704195D01*
X149396679Y-106712108D01*
X149399494Y-106803558D01*
X149399500Y-106803918D01*
X149399500Y-106819936D01*
X149399004Y-106823308D01*
X149263358Y-107273975D01*
X149257692Y-107280910D01*
X149248782Y-107281807D01*
X149241847Y-107276141D01*
X149240640Y-107272681D01*
X149147115Y-106753587D01*
X149147528Y-106747819D01*
X149159409Y-106712108D01*
X149213782Y-106548670D01*
X149219644Y-106541904D01*
X149228576Y-106541264D01*
X149233156Y-106544093D01*
G37*
G04 #@! TD.AperFunction*
G04 #@! TA.AperFunction,Conductor*
G36*
X141544386Y-98743767D02*
G01*
X141883119Y-98896889D01*
X141889246Y-98903419D01*
X141890000Y-98907550D01*
X141890000Y-99092449D01*
X141886573Y-99100722D01*
X141883119Y-99103110D01*
X141544388Y-99256231D01*
X141535438Y-99256516D01*
X141530937Y-99253468D01*
X141390505Y-99100000D01*
X141306226Y-99007897D01*
X141303170Y-98999482D01*
X141306227Y-98992102D01*
X141530939Y-98746529D01*
X141539051Y-98742740D01*
X141544386Y-98743767D01*
G37*
G04 #@! TD.AperFunction*
G04 #@! TA.AperFunction,Conductor*
G36*
X152402697Y-107336753D02*
G01*
X152407235Y-107343231D01*
X152555604Y-107887264D01*
X152554474Y-107896147D01*
X152552883Y-107898310D01*
X152286650Y-108184554D01*
X152278507Y-108188278D01*
X152270115Y-108185153D01*
X152269810Y-108184859D01*
X152105011Y-108020060D01*
X152101584Y-108011857D01*
X152100499Y-107829206D01*
X152100499Y-107748003D01*
X152102641Y-107741260D01*
X152386392Y-107339558D01*
X152393963Y-107334778D01*
X152402697Y-107336753D01*
G37*
G04 #@! TD.AperFunction*
G04 #@! TA.AperFunction,Conductor*
G36*
X152402697Y-107336753D02*
G01*
X152407235Y-107343231D01*
X152555604Y-107887264D01*
X152554474Y-107896147D01*
X152552883Y-107898310D01*
X152286650Y-108184554D01*
X152278507Y-108188278D01*
X152270115Y-108185153D01*
X152269810Y-108184859D01*
X152105011Y-108020060D01*
X152101584Y-108011857D01*
X152100499Y-107829206D01*
X152100499Y-107748003D01*
X152102641Y-107741260D01*
X152386392Y-107339558D01*
X152393963Y-107334778D01*
X152402697Y-107336753D01*
G37*
G04 #@! TD.AperFunction*
G04 #@! TA.AperFunction,Conductor*
G36*
X146332855Y-90754834D02*
G01*
X146644432Y-90946573D01*
X146649682Y-90953827D01*
X146650000Y-90956537D01*
X146650000Y-91193462D01*
X146646573Y-91201735D01*
X146644432Y-91203426D01*
X146332858Y-91395164D01*
X146324016Y-91396582D01*
X146318466Y-91393486D01*
X146126125Y-91201735D01*
X146007310Y-91083285D01*
X146003871Y-91075018D01*
X146007285Y-91066740D01*
X146007311Y-91066714D01*
X146318467Y-90756512D01*
X146326744Y-90753099D01*
X146332855Y-90754834D01*
G37*
G04 #@! TD.AperFunction*
G04 #@! TA.AperFunction,Conductor*
G36*
X157345904Y-106106920D02*
G01*
X157594314Y-106392319D01*
X157597161Y-106400809D01*
X157594314Y-106407681D01*
X157345904Y-106693079D01*
X157337888Y-106697070D01*
X157331724Y-106695800D01*
X157168408Y-106611711D01*
X157006344Y-106528266D01*
X157000557Y-106521432D01*
X157000000Y-106517864D01*
X157000000Y-106282135D01*
X157003427Y-106273862D01*
X157006341Y-106271734D01*
X157331726Y-106104198D01*
X157340647Y-106103458D01*
X157345904Y-106106920D01*
G37*
G04 #@! TD.AperFunction*
G04 #@! TA.AperFunction,Conductor*
G36*
X143367318Y-106110691D02*
G01*
X143373629Y-106117042D01*
X143373970Y-106124987D01*
X143227571Y-106591801D01*
X143221825Y-106598670D01*
X143216407Y-106600000D01*
X142983593Y-106600000D01*
X142975320Y-106596573D01*
X142972429Y-106591801D01*
X142826029Y-106124987D01*
X142826823Y-106116068D01*
X142832679Y-106110692D01*
X143095490Y-106000883D01*
X143104444Y-106000857D01*
X143367318Y-106110691D01*
G37*
G04 #@! TD.AperFunction*
G04 #@! TA.AperFunction,Conductor*
G36*
X140491802Y-98872429D02*
G01*
X140498670Y-98878174D01*
X140500000Y-98883592D01*
X140500000Y-99116407D01*
X140496573Y-99124680D01*
X140491801Y-99127571D01*
X140024987Y-99273970D01*
X140016068Y-99273176D01*
X140010691Y-99267318D01*
X139900883Y-99004509D01*
X139900857Y-98995556D01*
X139900862Y-98995542D01*
X140010691Y-98732680D01*
X140017042Y-98726370D01*
X140024986Y-98726029D01*
X140491802Y-98872429D01*
G37*
G04 #@! TD.AperFunction*
G04 #@! TA.AperFunction,Conductor*
G36*
X157483931Y-106126823D02*
G01*
X157489309Y-106132682D01*
X157599115Y-106395489D01*
X157599142Y-106404444D01*
X157599115Y-106404511D01*
X157489309Y-106667317D01*
X157482957Y-106673629D01*
X157475012Y-106673970D01*
X157008199Y-106527571D01*
X157001330Y-106521825D01*
X157000000Y-106516407D01*
X157000000Y-106283592D01*
X157003427Y-106275319D01*
X157008196Y-106272429D01*
X157475013Y-106126029D01*
X157483931Y-106126823D01*
G37*
G04 #@! TD.AperFunction*
G04 #@! TA.AperFunction,Conductor*
G36*
X143955550Y-99588649D02*
G01*
X143962746Y-99593978D01*
X143964066Y-99602835D01*
X143958737Y-99610031D01*
X143955550Y-99611351D01*
X143004701Y-99848825D01*
X142995846Y-99847507D01*
X142755680Y-99703408D01*
X142750349Y-99696213D01*
X142750000Y-99693375D01*
X142750000Y-99506625D01*
X142753427Y-99498352D01*
X142755680Y-99496592D01*
X142995846Y-99352491D01*
X143004701Y-99351174D01*
X143955550Y-99588649D01*
G37*
G04 #@! TD.AperFunction*
G04 #@! TA.AperFunction,Conductor*
G36*
X141827785Y-102323172D02*
G01*
X142469187Y-102696615D01*
X142474612Y-102703739D01*
X142475000Y-102706726D01*
X142475000Y-102893273D01*
X142471573Y-102901546D01*
X142469187Y-102903384D01*
X141827788Y-103276826D01*
X141818914Y-103278027D01*
X141814369Y-103275668D01*
X141259641Y-102808953D01*
X141255516Y-102801004D01*
X141258220Y-102792468D01*
X141259641Y-102791047D01*
X141814371Y-102324330D01*
X141822905Y-102321627D01*
X141827785Y-102323172D01*
G37*
G04 #@! TD.AperFunction*
G04 #@! TA.AperFunction,Conductor*
G36*
X157825213Y-92613427D02*
G01*
X157827872Y-92617532D01*
X157956890Y-92955906D01*
X157956636Y-92964857D01*
X157953856Y-92968706D01*
X157707898Y-93193772D01*
X157699482Y-93196829D01*
X157692102Y-93193772D01*
X157446143Y-92968706D01*
X157442352Y-92960592D01*
X157443108Y-92955909D01*
X157572128Y-92617531D01*
X157578277Y-92611022D01*
X157583060Y-92610000D01*
X157816940Y-92610000D01*
X157825213Y-92613427D01*
G37*
G04 #@! TD.AperFunction*
G04 #@! TA.AperFunction,Conductor*
G36*
X150733156Y-106544093D02*
G01*
X150893258Y-106704195D01*
X150896679Y-106712108D01*
X150899494Y-106803558D01*
X150899500Y-106803918D01*
X150899500Y-106819936D01*
X150899004Y-106823308D01*
X150763358Y-107273975D01*
X150757692Y-107280910D01*
X150748782Y-107281807D01*
X150741847Y-107276141D01*
X150740640Y-107272681D01*
X150647115Y-106753587D01*
X150647528Y-106747819D01*
X150659409Y-106712108D01*
X150713782Y-106548670D01*
X150719644Y-106541904D01*
X150728576Y-106541264D01*
X150733156Y-106544093D01*
G37*
G04 #@! TD.AperFunction*
G04 #@! TA.AperFunction,Conductor*
G36*
X149761763Y-107362721D02*
G01*
X149763358Y-107366024D01*
X149899004Y-107816694D01*
X149899500Y-107820066D01*
X149899500Y-107836049D01*
X149899494Y-107836409D01*
X149896679Y-107927891D01*
X149893258Y-107935804D01*
X149733156Y-108095906D01*
X149724883Y-108099333D01*
X149716610Y-108095906D01*
X149713782Y-108091329D01*
X149647528Y-107892179D01*
X149647115Y-107886411D01*
X149656189Y-107836049D01*
X149740640Y-107367319D01*
X149745479Y-107359787D01*
X149754229Y-107357881D01*
X149761763Y-107362721D01*
G37*
G04 #@! TD.AperFunction*
G04 #@! TA.AperFunction,Conductor*
G36*
X142783931Y-108226823D02*
G01*
X142789309Y-108232682D01*
X142899115Y-108495489D01*
X142899142Y-108504444D01*
X142899115Y-108504511D01*
X142789309Y-108767317D01*
X142782957Y-108773629D01*
X142775012Y-108773970D01*
X142308199Y-108627571D01*
X142301330Y-108621825D01*
X142300000Y-108616407D01*
X142300000Y-108383592D01*
X142303427Y-108375319D01*
X142308196Y-108372429D01*
X142775013Y-108226029D01*
X142783931Y-108226823D01*
G37*
G04 #@! TD.AperFunction*
G04 #@! TA.AperFunction,Conductor*
G36*
X155529453Y-99482231D02*
G01*
X155955550Y-99588649D01*
X155962746Y-99593978D01*
X155964066Y-99602835D01*
X155958737Y-99610031D01*
X155955550Y-99611351D01*
X155004198Y-99848951D01*
X154996131Y-99848065D01*
X154756468Y-99728234D01*
X154750600Y-99721469D01*
X154750000Y-99717769D01*
X154750000Y-99482231D01*
X154753427Y-99473958D01*
X154756468Y-99471766D01*
X154996132Y-99351933D01*
X155004196Y-99351048D01*
X155529453Y-99482231D01*
G37*
G04 #@! TD.AperFunction*
G04 #@! TA.AperFunction,Conductor*
G36*
X151007743Y-91125838D02*
G01*
X151263372Y-91351593D01*
X151267305Y-91359638D01*
X151266178Y-91365420D01*
X151128184Y-91653357D01*
X151121518Y-91659336D01*
X151117633Y-91660000D01*
X150882367Y-91660000D01*
X150874094Y-91656573D01*
X150871816Y-91653357D01*
X150733821Y-91365420D01*
X150733336Y-91356478D01*
X150736624Y-91351596D01*
X150992256Y-91125838D01*
X151000725Y-91122931D01*
X151007743Y-91125838D01*
G37*
G04 #@! TD.AperFunction*
G04 #@! TA.AperFunction,Conductor*
G36*
X151759677Y-107356308D02*
G01*
X151760680Y-107358831D01*
X151892064Y-107848790D01*
X151892346Y-107853474D01*
X151866434Y-108034954D01*
X151861872Y-108042659D01*
X151854851Y-108045000D01*
X151625946Y-108045000D01*
X151617673Y-108041573D01*
X151614272Y-108034078D01*
X151612439Y-108006586D01*
X151600524Y-107827861D01*
X151600499Y-107827139D01*
X151600499Y-107820035D01*
X151600989Y-107816693D01*
X151738172Y-107358502D01*
X151743826Y-107351563D01*
X151752735Y-107350653D01*
X151759677Y-107356308D01*
G37*
G04 #@! TD.AperFunction*
G04 #@! TA.AperFunction,Conductor*
G36*
X155529453Y-97082231D02*
G01*
X155955550Y-97188649D01*
X155962746Y-97193978D01*
X155964066Y-97202835D01*
X155958737Y-97210031D01*
X155955550Y-97211351D01*
X155004198Y-97448951D01*
X154996131Y-97448065D01*
X154756468Y-97328234D01*
X154750600Y-97321469D01*
X154750000Y-97317769D01*
X154750000Y-97082231D01*
X154753427Y-97073958D01*
X154756468Y-97071766D01*
X154996132Y-96951933D01*
X155004196Y-96951048D01*
X155529453Y-97082231D01*
G37*
G04 #@! TD.AperFunction*
G04 #@! TA.AperFunction,Conductor*
G36*
X156126042Y-103103427D02*
G01*
X156128234Y-103106468D01*
X156246236Y-103342473D01*
X156246871Y-103351405D01*
X156244061Y-103355962D01*
X156008290Y-103592676D01*
X156000023Y-103596119D01*
X155991743Y-103592709D01*
X155991710Y-103592676D01*
X155755938Y-103355962D01*
X155752528Y-103347682D01*
X155753762Y-103342474D01*
X155871766Y-103106468D01*
X155878531Y-103100600D01*
X155882231Y-103100000D01*
X156117769Y-103100000D01*
X156126042Y-103103427D01*
G37*
G04 #@! TD.AperFunction*
G04 #@! TA.AperFunction,Conductor*
G36*
X155529453Y-97882231D02*
G01*
X155955550Y-97988649D01*
X155962746Y-97993978D01*
X155964066Y-98002835D01*
X155958737Y-98010031D01*
X155955550Y-98011351D01*
X155004198Y-98248951D01*
X154996131Y-98248065D01*
X154756468Y-98128234D01*
X154750600Y-98121469D01*
X154750000Y-98117769D01*
X154750000Y-97882231D01*
X154753427Y-97873958D01*
X154756468Y-97871766D01*
X154996132Y-97751933D01*
X155004196Y-97751048D01*
X155529453Y-97882231D01*
G37*
G04 #@! TD.AperFunction*
G04 #@! TA.AperFunction,Conductor*
G36*
X146124680Y-94803427D02*
G01*
X146127571Y-94808199D01*
X146273970Y-95275012D01*
X146273176Y-95283931D01*
X146267317Y-95289309D01*
X146004511Y-95399115D01*
X145995556Y-95399142D01*
X145995489Y-95399115D01*
X145732682Y-95289309D01*
X145726370Y-95282957D01*
X145726029Y-95275013D01*
X145872429Y-94808199D01*
X145878175Y-94801330D01*
X145883593Y-94800000D01*
X146116407Y-94800000D01*
X146124680Y-94803427D01*
G37*
G04 #@! TD.AperFunction*
G04 #@! TA.AperFunction,Conductor*
G36*
X154267318Y-95310691D02*
G01*
X154273629Y-95317042D01*
X154273970Y-95324987D01*
X154127571Y-95791801D01*
X154121825Y-95798670D01*
X154116407Y-95800000D01*
X153883593Y-95800000D01*
X153875320Y-95796573D01*
X153872429Y-95791801D01*
X153726029Y-95324987D01*
X153726823Y-95316068D01*
X153732679Y-95310692D01*
X153995490Y-95200883D01*
X154004444Y-95200857D01*
X154267318Y-95310691D01*
G37*
G04 #@! TD.AperFunction*
G04 #@! TA.AperFunction,Conductor*
G36*
X142244091Y-108243108D02*
G01*
X142582468Y-108372128D01*
X142588978Y-108378277D01*
X142590000Y-108383060D01*
X142590000Y-108616939D01*
X142586573Y-108625212D01*
X142582468Y-108627871D01*
X142244093Y-108756890D01*
X142235142Y-108756636D01*
X142231293Y-108753856D01*
X142006227Y-108507898D01*
X142003170Y-108499482D01*
X142006227Y-108492102D01*
X142231293Y-108246142D01*
X142239407Y-108242352D01*
X142244091Y-108243108D01*
G37*
G04 #@! TD.AperFunction*
G04 #@! TA.AperFunction,Conductor*
G36*
X146924680Y-94803427D02*
G01*
X146927571Y-94808199D01*
X147073970Y-95275012D01*
X147073176Y-95283931D01*
X147067317Y-95289309D01*
X146804511Y-95399115D01*
X146795556Y-95399142D01*
X146795489Y-95399115D01*
X146532682Y-95289309D01*
X146526370Y-95282957D01*
X146526029Y-95275013D01*
X146672429Y-94808199D01*
X146678175Y-94801330D01*
X146683593Y-94800000D01*
X146916407Y-94800000D01*
X146924680Y-94803427D01*
G37*
G04 #@! TD.AperFunction*
G04 #@! TA.AperFunction,Conductor*
G36*
X143955550Y-102788649D02*
G01*
X143962746Y-102793978D01*
X143964066Y-102802835D01*
X143958737Y-102810031D01*
X143955550Y-102811351D01*
X143004701Y-103048825D01*
X142995846Y-103047507D01*
X142755680Y-102903408D01*
X142750349Y-102896213D01*
X142750000Y-102893375D01*
X142750000Y-102706625D01*
X142753427Y-102698352D01*
X142755680Y-102696592D01*
X142995846Y-102552491D01*
X143004701Y-102551174D01*
X143955550Y-102788649D01*
G37*
G04 #@! TD.AperFunction*
G04 #@! TA.AperFunction,Conductor*
G36*
X158777514Y-90808910D02*
G01*
X158781835Y-90812147D01*
X158994752Y-91067507D01*
X158997418Y-91076056D01*
X158994752Y-91082493D01*
X158781835Y-91337852D01*
X158773905Y-91342011D01*
X158768561Y-91341245D01*
X158417412Y-91202919D01*
X158410970Y-91196698D01*
X158410000Y-91192033D01*
X158410000Y-90957966D01*
X158413427Y-90949693D01*
X158417411Y-90947080D01*
X158768562Y-90808754D01*
X158777514Y-90808910D01*
G37*
G04 #@! TD.AperFunction*
G04 #@! TA.AperFunction,Conductor*
G36*
X157468403Y-92936626D02*
G01*
X157597114Y-93082367D01*
X157694160Y-93192255D01*
X157697068Y-93200725D01*
X157694160Y-93207745D01*
X157468405Y-93463372D01*
X157460360Y-93467305D01*
X157454578Y-93466178D01*
X157166643Y-93328183D01*
X157160664Y-93321517D01*
X157160000Y-93317632D01*
X157160000Y-93082367D01*
X157163427Y-93074094D01*
X157166641Y-93071816D01*
X157454579Y-92933820D01*
X157463520Y-92933336D01*
X157468403Y-92936626D01*
G37*
G04 #@! TD.AperFunction*
G04 #@! TA.AperFunction,Conductor*
G36*
X158747507Y-100603427D02*
G01*
X158750894Y-100610728D01*
X158798947Y-101187370D01*
X158796219Y-101195900D01*
X158788259Y-101200002D01*
X158787326Y-101200042D01*
X158500039Y-101200999D01*
X158499961Y-101200999D01*
X158212673Y-101200042D01*
X158204411Y-101196588D01*
X158201012Y-101188303D01*
X158201052Y-101187370D01*
X158249106Y-100610728D01*
X158253208Y-100602768D01*
X158260766Y-100600000D01*
X158739234Y-100600000D01*
X158747507Y-100603427D01*
G37*
G04 #@! TD.AperFunction*
G04 #@! TA.AperFunction,Conductor*
G36*
X153467315Y-95310691D02*
G01*
X153473626Y-95317042D01*
X153473967Y-95324987D01*
X153327568Y-95791801D01*
X153321822Y-95798670D01*
X153316404Y-95800000D01*
X153083590Y-95800000D01*
X153075317Y-95796573D01*
X153072426Y-95791801D01*
X152926026Y-95324987D01*
X152926820Y-95316068D01*
X152932676Y-95310692D01*
X153195487Y-95200883D01*
X153204441Y-95200857D01*
X153467315Y-95310691D01*
G37*
G04 #@! TD.AperFunction*
G04 #@! TA.AperFunction,Conductor*
G36*
X158747379Y-100613427D02*
G01*
X158750776Y-100620866D01*
X158779492Y-101022893D01*
X158776664Y-101031390D01*
X158773920Y-101033712D01*
X158506098Y-101197275D01*
X158497251Y-101198663D01*
X158493902Y-101197275D01*
X158226079Y-101033712D01*
X158220804Y-101026476D01*
X158220507Y-101022897D01*
X158249224Y-100620866D01*
X158253231Y-100612858D01*
X158260894Y-100610000D01*
X158739106Y-100610000D01*
X158747379Y-100613427D01*
G37*
G04 #@! TD.AperFunction*
G04 #@! TA.AperFunction,Conductor*
G36*
X147613608Y-107339559D02*
G01*
X147897356Y-107741257D01*
X147899500Y-107748007D01*
X147899500Y-107829113D01*
X147898415Y-108011856D01*
X147894988Y-108020060D01*
X147730188Y-108184860D01*
X147721915Y-108188287D01*
X147713642Y-108184860D01*
X147713376Y-108184584D01*
X147447115Y-107898310D01*
X147443990Y-107889918D01*
X147444393Y-107887269D01*
X147592764Y-107343229D01*
X147598247Y-107336151D01*
X147607130Y-107335021D01*
X147613608Y-107339559D01*
G37*
G04 #@! TD.AperFunction*
G04 #@! TA.AperFunction,Conductor*
G36*
X151067306Y-95310691D02*
G01*
X151073617Y-95317042D01*
X151073958Y-95324987D01*
X150927559Y-95791801D01*
X150921813Y-95798670D01*
X150916395Y-95800000D01*
X150683581Y-95800000D01*
X150675308Y-95796573D01*
X150672417Y-95791801D01*
X150526017Y-95324987D01*
X150526811Y-95316068D01*
X150532667Y-95310692D01*
X150795478Y-95200883D01*
X150804432Y-95200857D01*
X151067306Y-95310691D01*
G37*
G04 #@! TD.AperFunction*
G04 #@! TA.AperFunction,Conductor*
G36*
X158279759Y-100923237D02*
G01*
X158281395Y-100924911D01*
X158495173Y-101192701D01*
X158497656Y-101201304D01*
X158495173Y-101207299D01*
X158281395Y-101475088D01*
X158273555Y-101479416D01*
X158271215Y-101479443D01*
X157950664Y-101450947D01*
X157942727Y-101446801D01*
X157940000Y-101439293D01*
X157940000Y-100960706D01*
X157943427Y-100952433D01*
X157950664Y-100949052D01*
X158271216Y-100920556D01*
X158279759Y-100923237D01*
G37*
G04 #@! TD.AperFunction*
G04 #@! TA.AperFunction,Conductor*
G36*
X155529453Y-98682231D02*
G01*
X155955550Y-98788649D01*
X155962746Y-98793978D01*
X155964066Y-98802835D01*
X155958737Y-98810031D01*
X155955550Y-98811351D01*
X155004198Y-99048951D01*
X154996131Y-99048065D01*
X154756468Y-98928234D01*
X154750600Y-98921469D01*
X154750000Y-98917769D01*
X154750000Y-98682231D01*
X154753427Y-98673958D01*
X154756468Y-98671766D01*
X154996132Y-98551933D01*
X155004196Y-98551048D01*
X155529453Y-98682231D01*
G37*
G04 #@! TD.AperFunction*
G04 #@! TA.AperFunction,Conductor*
G36*
X148971736Y-109191325D02*
G01*
X149405346Y-109417893D01*
X149411092Y-109424762D01*
X149410751Y-109432707D01*
X149302563Y-109696184D01*
X149296251Y-109702536D01*
X149296184Y-109702563D01*
X149032707Y-109810751D01*
X149023752Y-109810724D01*
X149017893Y-109805346D01*
X148791325Y-109371737D01*
X148790532Y-109362821D01*
X148793421Y-109358051D01*
X148958050Y-109193422D01*
X148966322Y-109189996D01*
X148971736Y-109191325D01*
G37*
G04 #@! TD.AperFunction*
G04 #@! TA.AperFunction,Conductor*
G36*
X156332855Y-90754834D02*
G01*
X156644432Y-90946573D01*
X156649682Y-90953827D01*
X156650000Y-90956537D01*
X156650000Y-91193462D01*
X156646573Y-91201735D01*
X156644432Y-91203426D01*
X156332858Y-91395164D01*
X156324016Y-91396582D01*
X156318466Y-91393486D01*
X156126125Y-91201735D01*
X156007310Y-91083285D01*
X156003871Y-91075018D01*
X156007285Y-91066740D01*
X156007311Y-91066714D01*
X156318467Y-90756512D01*
X156326744Y-90753099D01*
X156332855Y-90754834D01*
G37*
G04 #@! TD.AperFunction*
G04 #@! TA.AperFunction,Conductor*
G36*
X141064857Y-98743363D02*
G01*
X141068706Y-98746143D01*
X141293772Y-98992102D01*
X141296829Y-99000518D01*
X141293772Y-99007898D01*
X141068706Y-99253856D01*
X141060592Y-99257647D01*
X141055906Y-99256890D01*
X140717532Y-99127871D01*
X140711022Y-99121722D01*
X140710000Y-99116939D01*
X140710000Y-98883060D01*
X140713427Y-98874787D01*
X140717532Y-98872128D01*
X141055907Y-98743109D01*
X141064857Y-98743363D01*
G37*
G04 #@! TD.AperFunction*
G04 #@! TA.AperFunction,Conductor*
G36*
X157003843Y-103362349D02*
G01*
X157243620Y-103484743D01*
X157249430Y-103491556D01*
X157250000Y-103495163D01*
X157250000Y-103730421D01*
X157246573Y-103738694D01*
X157243083Y-103741098D01*
X157003692Y-103848345D01*
X156996074Y-103849019D01*
X156045416Y-103611592D01*
X156038220Y-103606263D01*
X156036900Y-103597406D01*
X156042229Y-103590210D01*
X156045522Y-103588863D01*
X156995804Y-103361392D01*
X157003843Y-103362349D01*
G37*
G04 #@! TD.AperFunction*
G04 #@! TA.AperFunction,Conductor*
G36*
X144008257Y-102807290D02*
G01*
X144008290Y-102807323D01*
X144243566Y-103043540D01*
X144246976Y-103051820D01*
X144245309Y-103057817D01*
X144103408Y-103294320D01*
X144096213Y-103299651D01*
X144093375Y-103300000D01*
X143906625Y-103300000D01*
X143898352Y-103296573D01*
X143896592Y-103294320D01*
X143754690Y-103057817D01*
X143753372Y-103048959D01*
X143756431Y-103043542D01*
X143991710Y-102807322D01*
X143999977Y-102803880D01*
X144008257Y-102807290D01*
G37*
G04 #@! TD.AperFunction*
G04 #@! TA.AperFunction,Conductor*
G36*
X142125906Y-105713427D02*
G01*
X142128184Y-105716643D01*
X142266178Y-106004578D01*
X142266663Y-106013520D01*
X142263372Y-106018405D01*
X142007745Y-106244160D01*
X141999275Y-106247068D01*
X141992255Y-106244160D01*
X141736627Y-106018405D01*
X141732694Y-106010360D01*
X141733820Y-106004580D01*
X141871816Y-105716642D01*
X141878482Y-105710664D01*
X141882367Y-105710000D01*
X142117633Y-105710000D01*
X142125906Y-105713427D01*
G37*
G04 #@! TD.AperFunction*
G04 #@! TA.AperFunction,Conductor*
G36*
X157483931Y-107926823D02*
G01*
X157489309Y-107932682D01*
X157599115Y-108195489D01*
X157599142Y-108204444D01*
X157599115Y-108204511D01*
X157489309Y-108467317D01*
X157482957Y-108473629D01*
X157475012Y-108473970D01*
X157008199Y-108327571D01*
X157001330Y-108321825D01*
X157000000Y-108316407D01*
X157000000Y-108083592D01*
X157003427Y-108075319D01*
X157008196Y-108072429D01*
X157475013Y-107926029D01*
X157483931Y-107926823D01*
G37*
G04 #@! TD.AperFunction*
G04 #@! TA.AperFunction,Conductor*
G36*
X147577514Y-90808910D02*
G01*
X147581835Y-90812147D01*
X147794752Y-91067507D01*
X147797418Y-91076056D01*
X147794752Y-91082493D01*
X147581835Y-91337852D01*
X147573905Y-91342011D01*
X147568561Y-91341245D01*
X147217412Y-91202919D01*
X147210970Y-91196698D01*
X147210000Y-91192033D01*
X147210000Y-90957966D01*
X147213427Y-90949693D01*
X147217411Y-90947080D01*
X147568562Y-90808754D01*
X147577514Y-90808910D01*
G37*
G04 #@! TD.AperFunction*
G04 #@! TA.AperFunction,Conductor*
G36*
X158507187Y-99704597D02*
G01*
X158825857Y-99952764D01*
X158926487Y-100031131D01*
X158930909Y-100038918D01*
X158930472Y-100043832D01*
X158752556Y-100616770D01*
X158746829Y-100623654D01*
X158741382Y-100625000D01*
X158258618Y-100625000D01*
X158250345Y-100621573D01*
X158247444Y-100616770D01*
X158069527Y-100043832D01*
X158070347Y-100034915D01*
X158073510Y-100031132D01*
X158492811Y-99704597D01*
X158501444Y-99702218D01*
X158507187Y-99704597D01*
G37*
G04 #@! TD.AperFunction*
G04 #@! TA.AperFunction,Conductor*
G36*
X150372801Y-106598427D02*
G01*
X150376156Y-106605408D01*
X150399428Y-106814852D01*
X150399500Y-106816144D01*
X150399500Y-106819957D01*
X150399008Y-106823313D01*
X150261208Y-107283565D01*
X150255553Y-107290507D01*
X150246644Y-107291417D01*
X150239702Y-107285762D01*
X150238792Y-107283565D01*
X150100991Y-106823309D01*
X150100499Y-106819953D01*
X150100499Y-106816153D01*
X150100571Y-106814861D01*
X150123844Y-106605408D01*
X150128163Y-106597564D01*
X150135472Y-106595000D01*
X150364528Y-106595000D01*
X150372801Y-106598427D01*
G37*
G04 #@! TD.AperFunction*
G04 #@! TA.AperFunction,Conductor*
G36*
X157345904Y-109706920D02*
G01*
X157594314Y-109992319D01*
X157597161Y-110000809D01*
X157594314Y-110007681D01*
X157345904Y-110293079D01*
X157337888Y-110297070D01*
X157331724Y-110295800D01*
X157168408Y-110211711D01*
X157006344Y-110128266D01*
X157000557Y-110121432D01*
X157000000Y-110117864D01*
X157000000Y-109882135D01*
X157003427Y-109873862D01*
X157006341Y-109871734D01*
X157331726Y-109704198D01*
X157340647Y-109703458D01*
X157345904Y-109706920D01*
G37*
G04 #@! TD.AperFunction*
G04 #@! TA.AperFunction,Conductor*
G36*
X152667312Y-95310691D02*
G01*
X152673623Y-95317042D01*
X152673964Y-95324987D01*
X152527565Y-95791801D01*
X152521819Y-95798670D01*
X152516401Y-95800000D01*
X152283587Y-95800000D01*
X152275314Y-95796573D01*
X152272423Y-95791801D01*
X152126023Y-95324987D01*
X152126817Y-95316068D01*
X152132673Y-95310692D01*
X152395484Y-95200883D01*
X152404438Y-95200857D01*
X152667312Y-95310691D01*
G37*
G04 #@! TD.AperFunction*
G04 #@! TA.AperFunction,Conductor*
G36*
X154211971Y-103802381D02*
G01*
X154252346Y-103810412D01*
X154297043Y-103828927D01*
X154320913Y-103844877D01*
X154355122Y-103879086D01*
X154371072Y-103902956D01*
X154389588Y-103947655D01*
X154397617Y-103988020D01*
X154400000Y-104012210D01*
X154400000Y-104987789D01*
X154397617Y-105011982D01*
X154389588Y-105052344D01*
X154371072Y-105097043D01*
X154355122Y-105120913D01*
X154320913Y-105155122D01*
X154297043Y-105171072D01*
X154252344Y-105189588D01*
X154235841Y-105192870D01*
X154211978Y-105197617D01*
X154187789Y-105200000D01*
X146812211Y-105200000D01*
X146788020Y-105197617D01*
X146772744Y-105194578D01*
X146747656Y-105189588D01*
X146702956Y-105171072D01*
X146679086Y-105155122D01*
X146644877Y-105120913D01*
X146628927Y-105097043D01*
X146610412Y-105052346D01*
X146602381Y-105011971D01*
X146600000Y-104987789D01*
X146600000Y-104012210D01*
X146602381Y-103988029D01*
X146610412Y-103947651D01*
X146628927Y-103902956D01*
X146644877Y-103879086D01*
X146679086Y-103844877D01*
X146702956Y-103828927D01*
X146747653Y-103810412D01*
X146788027Y-103802381D01*
X146812211Y-103800000D01*
X154187789Y-103800000D01*
X154211971Y-103802381D01*
G37*
G04 #@! TD.AperFunction*
G04 #@! TA.AperFunction,Conductor*
G36*
X158405099Y-94206572D02*
G01*
X158743427Y-94544900D01*
X158746854Y-94553173D01*
X158744086Y-94560731D01*
X158370318Y-95002457D01*
X158362358Y-95006559D01*
X158353828Y-95003831D01*
X158353140Y-95003200D01*
X158149293Y-94800707D01*
X158149238Y-94800652D01*
X157946799Y-94596859D01*
X157943400Y-94588574D01*
X157946854Y-94580312D01*
X157947523Y-94579697D01*
X158389270Y-94205912D01*
X158397798Y-94203185D01*
X158405099Y-94206572D01*
G37*
G04 #@! TD.AperFunction*
G04 #@! TA.AperFunction,Conductor*
G36*
X155529453Y-96282231D02*
G01*
X155955550Y-96388649D01*
X155962746Y-96393978D01*
X155964066Y-96402835D01*
X155958737Y-96410031D01*
X155955550Y-96411351D01*
X155004198Y-96648951D01*
X154996131Y-96648065D01*
X154756468Y-96528234D01*
X154750600Y-96521469D01*
X154750000Y-96517769D01*
X154750000Y-96282231D01*
X154753427Y-96273958D01*
X154756468Y-96271766D01*
X154996132Y-96151933D01*
X155004196Y-96151048D01*
X155529453Y-96282231D01*
G37*
G04 #@! TD.AperFunction*
G04 #@! TA.AperFunction,Conductor*
G36*
X157345904Y-107906920D02*
G01*
X157594314Y-108192319D01*
X157597161Y-108200809D01*
X157594314Y-108207681D01*
X157345904Y-108493079D01*
X157337888Y-108497070D01*
X157331724Y-108495800D01*
X157168408Y-108411711D01*
X157006344Y-108328266D01*
X157000557Y-108321432D01*
X157000000Y-108317864D01*
X157000000Y-108082135D01*
X157003427Y-108073862D01*
X157006341Y-108071734D01*
X157331726Y-107904198D01*
X157340647Y-107903458D01*
X157345904Y-107906920D01*
G37*
G04 #@! TD.AperFunction*
G04 #@! TA.AperFunction,Conductor*
G36*
X158495900Y-100903780D02*
G01*
X158500002Y-100911740D01*
X158500042Y-100912673D01*
X158501000Y-101200000D01*
X158501000Y-101200078D01*
X158500042Y-101487326D01*
X158496588Y-101495588D01*
X158488303Y-101498987D01*
X158487370Y-101498947D01*
X157910728Y-101450894D01*
X157902768Y-101446792D01*
X157900000Y-101439234D01*
X157900000Y-100960766D01*
X157903427Y-100952493D01*
X157910728Y-100949106D01*
X158487371Y-100901052D01*
X158495900Y-100903780D01*
G37*
G04 #@! TD.AperFunction*
G04 #@! TA.AperFunction,Conductor*
G36*
X155895900Y-88903780D02*
G01*
X155900002Y-88911740D01*
X155900042Y-88912673D01*
X155901000Y-89200000D01*
X155901000Y-89200078D01*
X155900042Y-89487326D01*
X155896588Y-89495588D01*
X155888303Y-89498987D01*
X155887370Y-89498947D01*
X155310728Y-89450894D01*
X155302768Y-89446792D01*
X155300000Y-89439234D01*
X155300000Y-88960766D01*
X155303427Y-88952493D01*
X155310728Y-88949106D01*
X155887371Y-88901052D01*
X155895900Y-88903780D01*
G37*
G04 #@! TD.AperFunction*
G04 #@! TA.AperFunction,Conductor*
G36*
X140888799Y-107874370D02*
G01*
X141055190Y-108040761D01*
X141058548Y-108047769D01*
X141111867Y-108537938D01*
X141109355Y-108546533D01*
X141108231Y-108547745D01*
X140636665Y-108989126D01*
X140628283Y-108992278D01*
X140620128Y-108988579D01*
X140617850Y-108985034D01*
X140342962Y-108316302D01*
X140342986Y-108307349D01*
X140346389Y-108302789D01*
X140873135Y-107873572D01*
X140881714Y-107871003D01*
X140888799Y-107874370D01*
G37*
G04 #@! TD.AperFunction*
G04 #@! TA.AperFunction,Conductor*
G36*
X148760297Y-107354237D02*
G01*
X148761207Y-107356434D01*
X148899008Y-107816689D01*
X148899500Y-107820045D01*
X148899500Y-107823847D01*
X148899428Y-107825139D01*
X148876156Y-108034592D01*
X148871837Y-108042436D01*
X148864528Y-108045000D01*
X148635472Y-108045000D01*
X148627199Y-108041573D01*
X148623844Y-108034592D01*
X148615381Y-107958429D01*
X148600570Y-107825131D01*
X148600499Y-107823871D01*
X148600499Y-107820035D01*
X148600991Y-107816689D01*
X148738792Y-107356431D01*
X148744446Y-107349492D01*
X148753355Y-107348582D01*
X148760297Y-107354237D01*
G37*
G04 #@! TD.AperFunction*
G04 #@! TA.AperFunction,Conductor*
G36*
X141119703Y-106350327D02*
G01*
X141120117Y-106350826D01*
X141464333Y-106791132D01*
X141466728Y-106799759D01*
X141463388Y-106806610D01*
X141329289Y-106940709D01*
X141329287Y-106940712D01*
X141100991Y-107308031D01*
X141093713Y-107313249D01*
X141084878Y-107311792D01*
X141082129Y-107309420D01*
X140769595Y-106940712D01*
X140631730Y-106778067D01*
X140628996Y-106769541D01*
X140632940Y-106761708D01*
X141103194Y-106349245D01*
X141111671Y-106346367D01*
X141119703Y-106350327D01*
G37*
G04 #@! TD.AperFunction*
G04 #@! TA.AperFunction,Conductor*
G36*
X144101648Y-103103427D02*
G01*
X144103408Y-103105680D01*
X144245309Y-103342182D01*
X144246627Y-103351040D01*
X144243566Y-103356459D01*
X144008290Y-103592676D01*
X144000023Y-103596119D01*
X143991743Y-103592709D01*
X143991710Y-103592676D01*
X143756433Y-103356459D01*
X143753023Y-103348179D01*
X143754689Y-103342184D01*
X143896592Y-103105680D01*
X143903787Y-103100349D01*
X143906625Y-103100000D01*
X144093375Y-103100000D01*
X144101648Y-103103427D01*
G37*
G04 #@! TD.AperFunction*
G04 #@! TA.AperFunction,Conductor*
G36*
X141547379Y-100613427D02*
G01*
X141550776Y-100620866D01*
X141579492Y-101022893D01*
X141576664Y-101031390D01*
X141573920Y-101033712D01*
X141306098Y-101197275D01*
X141297251Y-101198663D01*
X141293902Y-101197275D01*
X141026079Y-101033712D01*
X141020804Y-101026476D01*
X141020507Y-101022897D01*
X141049224Y-100620866D01*
X141053231Y-100612858D01*
X141060894Y-100610000D01*
X141539106Y-100610000D01*
X141547379Y-100613427D01*
G37*
G04 #@! TD.AperFunction*
G04 #@! TA.AperFunction,Conductor*
G36*
X143343039Y-85520185D02*
G01*
X143388794Y-85572989D01*
X143400000Y-85624500D01*
X143400000Y-86000000D01*
X145111417Y-86000000D01*
X145178456Y-86019685D01*
X145224211Y-86072489D01*
X145234155Y-86141647D01*
X145227599Y-86167333D01*
X145180908Y-86292517D01*
X145176103Y-86337218D01*
X145174501Y-86352123D01*
X145174500Y-86352135D01*
X145174500Y-87497870D01*
X145174501Y-87497876D01*
X145180908Y-87557483D01*
X145231202Y-87692328D01*
X145231206Y-87692335D01*
X145317452Y-87807544D01*
X145317455Y-87807547D01*
X145432664Y-87893793D01*
X145432671Y-87893797D01*
X145477618Y-87910561D01*
X145567517Y-87944091D01*
X145627127Y-87950500D01*
X146372872Y-87950499D01*
X146432483Y-87944091D01*
X146567331Y-87893796D01*
X146682546Y-87807546D01*
X146768796Y-87692331D01*
X146819091Y-87557483D01*
X146825500Y-87497873D01*
X146825499Y-86352128D01*
X146819091Y-86292517D01*
X146783918Y-86198213D01*
X146772401Y-86167333D01*
X146767417Y-86097641D01*
X146800902Y-86036318D01*
X146862226Y-86002834D01*
X146888583Y-86000000D01*
X155111417Y-86000000D01*
X155178456Y-86019685D01*
X155224211Y-86072489D01*
X155234155Y-86141647D01*
X155227599Y-86167333D01*
X155180908Y-86292517D01*
X155176103Y-86337218D01*
X155174501Y-86352123D01*
X155174500Y-86352135D01*
X155174500Y-87497870D01*
X155174501Y-87497876D01*
X155180908Y-87557483D01*
X155231202Y-87692328D01*
X155231206Y-87692335D01*
X155317452Y-87807544D01*
X155317455Y-87807547D01*
X155432664Y-87893793D01*
X155432671Y-87893797D01*
X155477618Y-87910561D01*
X155567517Y-87944091D01*
X155627127Y-87950500D01*
X156372872Y-87950499D01*
X156432483Y-87944091D01*
X156567331Y-87893796D01*
X156682546Y-87807546D01*
X156768796Y-87692331D01*
X156819091Y-87557483D01*
X156825500Y-87497873D01*
X156825499Y-86352128D01*
X156819091Y-86292517D01*
X156772400Y-86167333D01*
X156768797Y-86157671D01*
X156768793Y-86157664D01*
X156682548Y-86042456D01*
X156682546Y-86042455D01*
X156682546Y-86042454D01*
X156649686Y-86017855D01*
X156607817Y-85961921D01*
X156600000Y-85918590D01*
X156600000Y-85624500D01*
X156619685Y-85557461D01*
X156672489Y-85511706D01*
X156724000Y-85500500D01*
X161934108Y-85500500D01*
X161996249Y-85500500D01*
X162003736Y-85500726D01*
X162293796Y-85518271D01*
X162308657Y-85520075D01*
X162512662Y-85557461D01*
X162590798Y-85571780D01*
X162605335Y-85575363D01*
X162879172Y-85660695D01*
X162893163Y-85666000D01*
X163154743Y-85783727D01*
X163167989Y-85790680D01*
X163413465Y-85939075D01*
X163425776Y-85947573D01*
X163546886Y-86042456D01*
X163651573Y-86124473D01*
X163662781Y-86134403D01*
X163865596Y-86337218D01*
X163875526Y-86348426D01*
X163878426Y-86352127D01*
X163995481Y-86501538D01*
X164052422Y-86574217D01*
X164060926Y-86586537D01*
X164108321Y-86664938D01*
X164209316Y-86832004D01*
X164216275Y-86845263D01*
X164333997Y-87106831D01*
X164339306Y-87120832D01*
X164424635Y-87394663D01*
X164428219Y-87409201D01*
X164479923Y-87691340D01*
X164481728Y-87706205D01*
X164499274Y-87996263D01*
X164499500Y-88003750D01*
X164499500Y-94736000D01*
X164479815Y-94803039D01*
X164427011Y-94848794D01*
X164375500Y-94860000D01*
X163909167Y-94860000D01*
X163901188Y-94859572D01*
X163901183Y-94859678D01*
X163897879Y-94859500D01*
X163897873Y-94859500D01*
X163897866Y-94859500D01*
X162191008Y-94859500D01*
X162183137Y-94859250D01*
X162182308Y-94859197D01*
X162174624Y-94859500D01*
X162102131Y-94859500D01*
X162102122Y-94859501D01*
X162042518Y-94865908D01*
X162010440Y-94877872D01*
X162000841Y-94881012D01*
X161978603Y-94887297D01*
X161978597Y-94887300D01*
X161967114Y-94893160D01*
X161954091Y-94898889D01*
X161907665Y-94916205D01*
X161885557Y-94932756D01*
X161867614Y-94943937D01*
X161850442Y-94952700D01*
X161340455Y-95312692D01*
X161174530Y-95429816D01*
X161164630Y-95436804D01*
X161098509Y-95459383D01*
X161093121Y-95459500D01*
X160437774Y-95459500D01*
X160412698Y-95456938D01*
X160365857Y-95447266D01*
X160365856Y-95447266D01*
X160190488Y-95452369D01*
X160190484Y-95452369D01*
X160190483Y-95452370D01*
X160123658Y-95470275D01*
X160091569Y-95474500D01*
X160050596Y-95474500D01*
X160015847Y-95477234D01*
X159986569Y-95485740D01*
X159867113Y-95520445D01*
X159867111Y-95520445D01*
X159867111Y-95520446D01*
X159733805Y-95599282D01*
X159733796Y-95599289D01*
X159624289Y-95708796D01*
X159624282Y-95708805D01*
X159545445Y-95842112D01*
X159545443Y-95842118D01*
X159533076Y-95884686D01*
X159495470Y-95943572D01*
X159431997Y-95972778D01*
X159362811Y-95963032D01*
X159309876Y-95917428D01*
X159290001Y-95850445D01*
X159290000Y-95850091D01*
X159290000Y-94763402D01*
X159309685Y-94696363D01*
X159319012Y-94683695D01*
X159332898Y-94667147D01*
X159351302Y-94645214D01*
X159351304Y-94645209D01*
X159355274Y-94639175D01*
X159355325Y-94639208D01*
X159359372Y-94632856D01*
X159359320Y-94632824D01*
X159363108Y-94626680D01*
X159363111Y-94626677D01*
X159394821Y-94558673D01*
X159396362Y-94555488D01*
X159430040Y-94488433D01*
X159430043Y-94488417D01*
X159432509Y-94481646D01*
X159432567Y-94481667D01*
X159435043Y-94474546D01*
X159434986Y-94474527D01*
X159437255Y-94467678D01*
X159437255Y-94467676D01*
X159437257Y-94467673D01*
X159452435Y-94394157D01*
X159453200Y-94390708D01*
X159470500Y-94317721D01*
X159470500Y-94317719D01*
X159470501Y-94317715D01*
X159471339Y-94310548D01*
X159471398Y-94310554D01*
X159472164Y-94303054D01*
X159472105Y-94303049D01*
X159472734Y-94295859D01*
X159471703Y-94260442D01*
X159470552Y-94220869D01*
X159470500Y-94217262D01*
X159470500Y-93561932D01*
X159475424Y-93527336D01*
X159487665Y-93485204D01*
X159490500Y-93449181D01*
X159490499Y-92950820D01*
X159490382Y-92949330D01*
X159490000Y-92939605D01*
X159490000Y-91840606D01*
X159509685Y-91773567D01*
X159550881Y-91733873D01*
X159552298Y-91733035D01*
X159565687Y-91725117D01*
X159680117Y-91610687D01*
X159762494Y-91471395D01*
X159807643Y-91315993D01*
X159810500Y-91279690D01*
X159810500Y-90870310D01*
X159807643Y-90834007D01*
X159800370Y-90808974D01*
X159767858Y-90697069D01*
X159762494Y-90678605D01*
X159680117Y-90539313D01*
X159680115Y-90539311D01*
X159680112Y-90539307D01*
X159565692Y-90424887D01*
X159565684Y-90424881D01*
X159484740Y-90377011D01*
X159426395Y-90342506D01*
X159426394Y-90342505D01*
X159426393Y-90342505D01*
X159426390Y-90342504D01*
X159270997Y-90297357D01*
X159270991Y-90297356D01*
X159234697Y-90294500D01*
X159234690Y-90294500D01*
X158765310Y-90294500D01*
X158765302Y-90294500D01*
X158729008Y-90297356D01*
X158729002Y-90297357D01*
X158609759Y-90332001D01*
X158603739Y-90333588D01*
X158583287Y-90338431D01*
X158361316Y-90425870D01*
X158291727Y-90432126D01*
X158252748Y-90417231D01*
X158184740Y-90377011D01*
X158126395Y-90342506D01*
X158126394Y-90342505D01*
X158126393Y-90342505D01*
X158126390Y-90342504D01*
X157970997Y-90297357D01*
X157970991Y-90297356D01*
X157934697Y-90294500D01*
X157934690Y-90294500D01*
X157465310Y-90294500D01*
X157465302Y-90294500D01*
X157429010Y-90297356D01*
X157350788Y-90320082D01*
X157280918Y-90319882D01*
X157222248Y-90281939D01*
X157204328Y-90254505D01*
X157185799Y-90215763D01*
X156844336Y-89501795D01*
X156716295Y-89234072D01*
X156704940Y-89194455D01*
X156685369Y-89020750D01*
X156685368Y-89020745D01*
X156625789Y-88850478D01*
X156529816Y-88697738D01*
X156402262Y-88570184D01*
X156329972Y-88524761D01*
X156249523Y-88474211D01*
X156079254Y-88414631D01*
X156079249Y-88414630D01*
X155900004Y-88394435D01*
X155900002Y-88394435D01*
X155900000Y-88394435D01*
X155885285Y-88396092D01*
X155875080Y-88397242D01*
X155853817Y-88397800D01*
X155851190Y-88397644D01*
X155845393Y-88397298D01*
X155845392Y-88397298D01*
X155845391Y-88397298D01*
X155740545Y-88406035D01*
X155268727Y-88445353D01*
X155240283Y-88448667D01*
X155225937Y-88449500D01*
X153463705Y-88449500D01*
X153445735Y-88448191D01*
X153421972Y-88444710D01*
X153376760Y-88448667D01*
X153372632Y-88449028D01*
X153361826Y-88449500D01*
X153356282Y-88449500D01*
X153325488Y-88453099D01*
X153321905Y-88453465D01*
X153247200Y-88460001D01*
X153240134Y-88461461D01*
X153240122Y-88461404D01*
X153232753Y-88463038D01*
X153232767Y-88463095D01*
X153225743Y-88464759D01*
X153155245Y-88490417D01*
X153151845Y-88491598D01*
X153080665Y-88515186D01*
X153080663Y-88515186D01*
X153080660Y-88515188D01*
X153074123Y-88518236D01*
X153074098Y-88518184D01*
X153067310Y-88521470D01*
X153067336Y-88521521D01*
X153060884Y-88524761D01*
X152998236Y-88565965D01*
X152995196Y-88567902D01*
X152931347Y-88607285D01*
X152925682Y-88611765D01*
X152925646Y-88611719D01*
X152919798Y-88616484D01*
X152919835Y-88616528D01*
X152914310Y-88621164D01*
X152862848Y-88675709D01*
X152860336Y-88678294D01*
X152225451Y-89313181D01*
X152164128Y-89346666D01*
X152137770Y-89349500D01*
X151361933Y-89349500D01*
X151327338Y-89344576D01*
X151294594Y-89335063D01*
X151285205Y-89332335D01*
X151285202Y-89332334D01*
X151249181Y-89329500D01*
X150750830Y-89329500D01*
X150750808Y-89329501D01*
X150714794Y-89332335D01*
X150560611Y-89377129D01*
X150560606Y-89377131D01*
X150422404Y-89458863D01*
X150422396Y-89458869D01*
X150308869Y-89572396D01*
X150308863Y-89572404D01*
X150227131Y-89710606D01*
X150227129Y-89710611D01*
X150182335Y-89864791D01*
X150182334Y-89864797D01*
X150179500Y-89900811D01*
X150179500Y-90299169D01*
X150179501Y-90299191D01*
X150182335Y-90335205D01*
X150227129Y-90489388D01*
X150227132Y-90489395D01*
X150261128Y-90546881D01*
X150278309Y-90614605D01*
X150261128Y-90673119D01*
X150227132Y-90730604D01*
X150227129Y-90730611D01*
X150182335Y-90884791D01*
X150182334Y-90884797D01*
X150179500Y-90920811D01*
X150179500Y-91319169D01*
X150179501Y-91319191D01*
X150182335Y-91355205D01*
X150227129Y-91509388D01*
X150227133Y-91509397D01*
X150304197Y-91639707D01*
X150309284Y-91649232D01*
X150362321Y-91759897D01*
X150374500Y-91813486D01*
X150374500Y-93150500D01*
X150354815Y-93217539D01*
X150302011Y-93263294D01*
X150250500Y-93274500D01*
X147285862Y-93274500D01*
X147270537Y-93270000D01*
X147230000Y-93270000D01*
X146749500Y-93270000D01*
X146682461Y-93250315D01*
X146636706Y-93197511D01*
X146625500Y-93146000D01*
X146625500Y-92111299D01*
X146643894Y-92046311D01*
X146751732Y-91871075D01*
X146756437Y-91861850D01*
X146767629Y-91843888D01*
X146768796Y-91842331D01*
X146772826Y-91831522D01*
X146778545Y-91818519D01*
X146788389Y-91799227D01*
X146789812Y-91795784D01*
X146790595Y-91792821D01*
X146791081Y-91792016D01*
X146791136Y-91791855D01*
X146791171Y-91791867D01*
X146826753Y-91733035D01*
X146889494Y-91702289D01*
X146910480Y-91700500D01*
X147077791Y-91700500D01*
X147123239Y-91709129D01*
X147383289Y-91811569D01*
X147416848Y-91820453D01*
X147430769Y-91824139D01*
X147433631Y-91824933D01*
X147445403Y-91828353D01*
X147529007Y-91852643D01*
X147565310Y-91855500D01*
X147565318Y-91855500D01*
X148034682Y-91855500D01*
X148034690Y-91855500D01*
X148070993Y-91852643D01*
X148070995Y-91852642D01*
X148070997Y-91852642D01*
X148143629Y-91831540D01*
X148226395Y-91807494D01*
X148365687Y-91725117D01*
X148480117Y-91610687D01*
X148562494Y-91471395D01*
X148607643Y-91315993D01*
X148610500Y-91279690D01*
X148610500Y-90870310D01*
X148607643Y-90834007D01*
X148600370Y-90808974D01*
X148567858Y-90697069D01*
X148562494Y-90678605D01*
X148480117Y-90539313D01*
X148480115Y-90539311D01*
X148480112Y-90539307D01*
X148365692Y-90424887D01*
X148365684Y-90424881D01*
X148284740Y-90377011D01*
X148226395Y-90342506D01*
X148226394Y-90342505D01*
X148226393Y-90342505D01*
X148226390Y-90342504D01*
X148070997Y-90297357D01*
X148070991Y-90297356D01*
X148034697Y-90294500D01*
X148034690Y-90294500D01*
X147565310Y-90294500D01*
X147565302Y-90294500D01*
X147529008Y-90297356D01*
X147529002Y-90297357D01*
X147409759Y-90332001D01*
X147403739Y-90333588D01*
X147383287Y-90338431D01*
X147123236Y-90440871D01*
X147077789Y-90449500D01*
X146907791Y-90449500D01*
X146840752Y-90429815D01*
X146794997Y-90377011D01*
X146791609Y-90368833D01*
X146768797Y-90307671D01*
X146768793Y-90307664D01*
X146682547Y-90192455D01*
X146682544Y-90192452D01*
X146567335Y-90106206D01*
X146567328Y-90106202D01*
X146432486Y-90055910D01*
X146432485Y-90055909D01*
X146432483Y-90055909D01*
X146372873Y-90049500D01*
X146372863Y-90049500D01*
X145627129Y-90049500D01*
X145627123Y-90049501D01*
X145567516Y-90055908D01*
X145432671Y-90106202D01*
X145432664Y-90106206D01*
X145317455Y-90192452D01*
X145317452Y-90192455D01*
X145231206Y-90307664D01*
X145231202Y-90307671D01*
X145180908Y-90442517D01*
X145175869Y-90489393D01*
X145174501Y-90502123D01*
X145174500Y-90502135D01*
X145174500Y-91647870D01*
X145174501Y-91647874D01*
X145180909Y-91707483D01*
X145185712Y-91720361D01*
X145190738Y-91737531D01*
X145191066Y-91739051D01*
X145201412Y-91762932D01*
X145203813Y-91768893D01*
X145231202Y-91842328D01*
X145231205Y-91842333D01*
X145233426Y-91845300D01*
X145246131Y-91867196D01*
X145246222Y-91867149D01*
X145247256Y-91869134D01*
X145247928Y-91870292D01*
X145248266Y-91871073D01*
X145264536Y-91897511D01*
X145356105Y-92046311D01*
X145374500Y-92111298D01*
X145374500Y-94687662D01*
X145368818Y-94724768D01*
X145243692Y-95123746D01*
X145235344Y-95153528D01*
X145234347Y-95158809D01*
X145233783Y-95158702D01*
X145229349Y-95178684D01*
X145214631Y-95220748D01*
X145214630Y-95220751D01*
X145194435Y-95399996D01*
X145194435Y-95400004D01*
X145207369Y-95514803D01*
X145195314Y-95583625D01*
X145147965Y-95635004D01*
X145080354Y-95652628D01*
X145070894Y-95651975D01*
X145047883Y-95649501D01*
X145047881Y-95649500D01*
X145047873Y-95649500D01*
X145047864Y-95649500D01*
X142952129Y-95649500D01*
X142952118Y-95649501D01*
X142935488Y-95651289D01*
X142866729Y-95638881D01*
X142815593Y-95591269D01*
X142799017Y-95541882D01*
X142785369Y-95420750D01*
X142785367Y-95420742D01*
X142756958Y-95339552D01*
X142750000Y-95298598D01*
X142750000Y-95101397D01*
X142756959Y-95060442D01*
X142770848Y-95020750D01*
X142785368Y-94979255D01*
X142794423Y-94898889D01*
X142805565Y-94800003D01*
X142805565Y-94799996D01*
X142785369Y-94620750D01*
X142785367Y-94620742D01*
X142756958Y-94539552D01*
X142750000Y-94498598D01*
X142750000Y-94301397D01*
X142756959Y-94260442D01*
X142770806Y-94220869D01*
X142785368Y-94179255D01*
X142800780Y-94042468D01*
X142805565Y-94000003D01*
X142805565Y-93999996D01*
X142785369Y-93820750D01*
X142785367Y-93820742D01*
X142756958Y-93739552D01*
X142750000Y-93698598D01*
X142750000Y-93501397D01*
X142756959Y-93460442D01*
X142760897Y-93449188D01*
X142785368Y-93379255D01*
X142805565Y-93200000D01*
X142785368Y-93020745D01*
X142785367Y-93020742D01*
X142756958Y-92939552D01*
X142750000Y-92898598D01*
X142750000Y-92701397D01*
X142756959Y-92660442D01*
X142770270Y-92622402D01*
X142785368Y-92579255D01*
X142794120Y-92501577D01*
X142805565Y-92400003D01*
X142805565Y-92399996D01*
X142785369Y-92220750D01*
X142785367Y-92220742D01*
X142756958Y-92139552D01*
X142750000Y-92098598D01*
X142750000Y-91901397D01*
X142756959Y-91860442D01*
X142759688Y-91852643D01*
X142785368Y-91779255D01*
X142790454Y-91734110D01*
X142817519Y-91669699D01*
X142875113Y-91630143D01*
X142944950Y-91628004D01*
X143004857Y-91663961D01*
X143029856Y-91704662D01*
X143081202Y-91842328D01*
X143081206Y-91842335D01*
X143167452Y-91957544D01*
X143167455Y-91957547D01*
X143282664Y-92043793D01*
X143282671Y-92043797D01*
X143327618Y-92060561D01*
X143417517Y-92094091D01*
X143477127Y-92100500D01*
X144222872Y-92100499D01*
X144282483Y-92094091D01*
X144417331Y-92043796D01*
X144532546Y-91957546D01*
X144618796Y-91842331D01*
X144669091Y-91707483D01*
X144675500Y-91647873D01*
X144675499Y-90502128D01*
X144669091Y-90442517D01*
X144665215Y-90432126D01*
X144618797Y-90307671D01*
X144618793Y-90307664D01*
X144532547Y-90192455D01*
X144532544Y-90192452D01*
X144417335Y-90106206D01*
X144417328Y-90106202D01*
X144282486Y-90055910D01*
X144282485Y-90055909D01*
X144282483Y-90055909D01*
X144222873Y-90049500D01*
X144222863Y-90049500D01*
X143477129Y-90049500D01*
X143477123Y-90049501D01*
X143417516Y-90055908D01*
X143282671Y-90106202D01*
X143282664Y-90106206D01*
X143167455Y-90192452D01*
X143167452Y-90192455D01*
X143081206Y-90307664D01*
X143081202Y-90307671D01*
X143030908Y-90442517D01*
X143025869Y-90489393D01*
X143024501Y-90502123D01*
X143024500Y-90502135D01*
X143024500Y-90574331D01*
X143004815Y-90641370D01*
X142952011Y-90687125D01*
X142882853Y-90697069D01*
X142819297Y-90668044D01*
X142783459Y-90615286D01*
X142725790Y-90450480D01*
X142725789Y-90450478D01*
X142629816Y-90297738D01*
X142502262Y-90170184D01*
X142484353Y-90158931D01*
X142349523Y-90074211D01*
X142179254Y-90014631D01*
X142179249Y-90014630D01*
X142000004Y-89994435D01*
X141999996Y-89994435D01*
X141820750Y-90014630D01*
X141820745Y-90014631D01*
X141650476Y-90074211D01*
X141497737Y-90170184D01*
X141370184Y-90297737D01*
X141274211Y-90450476D01*
X141214631Y-90620745D01*
X141214630Y-90620750D01*
X141194435Y-90799996D01*
X141194435Y-90800002D01*
X141199220Y-90842468D01*
X141200000Y-90856352D01*
X141200000Y-91543647D01*
X141199220Y-91557531D01*
X141194435Y-91599998D01*
X141194435Y-91600002D01*
X141199220Y-91642468D01*
X141200000Y-91656352D01*
X141200000Y-92343647D01*
X141199220Y-92357531D01*
X141194435Y-92399998D01*
X141194435Y-92400002D01*
X141199220Y-92442468D01*
X141200000Y-92456352D01*
X141200000Y-93143647D01*
X141199220Y-93157531D01*
X141194435Y-93199998D01*
X141194435Y-93200002D01*
X141199220Y-93242468D01*
X141200000Y-93256352D01*
X141200000Y-93943647D01*
X141199220Y-93957531D01*
X141194435Y-93999998D01*
X141194435Y-94000002D01*
X141199220Y-94042468D01*
X141200000Y-94056352D01*
X141200000Y-94743647D01*
X141199220Y-94757531D01*
X141194435Y-94799998D01*
X141194435Y-94800002D01*
X141199220Y-94842468D01*
X141200000Y-94856352D01*
X141200000Y-95543647D01*
X141199220Y-95557531D01*
X141194435Y-95599998D01*
X141194435Y-95600003D01*
X141214630Y-95779249D01*
X141214631Y-95779254D01*
X141274211Y-95949523D01*
X141365037Y-96094071D01*
X141370184Y-96102262D01*
X141497738Y-96229816D01*
X141650478Y-96325789D01*
X141813838Y-96382951D01*
X141848031Y-96401358D01*
X142631979Y-96998651D01*
X142640388Y-97005998D01*
X142642451Y-97007542D01*
X142642454Y-97007546D01*
X142739121Y-97079911D01*
X142757669Y-97093796D01*
X142757671Y-97093797D01*
X142892517Y-97144091D01*
X142892516Y-97144091D01*
X142899444Y-97144835D01*
X142952127Y-97150500D01*
X144899441Y-97150499D01*
X144966480Y-97170184D01*
X145012235Y-97222987D01*
X145022179Y-97292146D01*
X145016484Y-97315450D01*
X145014632Y-97320740D01*
X145014630Y-97320750D01*
X144994435Y-97499996D01*
X144994435Y-97500002D01*
X144999220Y-97542468D01*
X145000000Y-97556352D01*
X145000000Y-98725500D01*
X144980315Y-98792539D01*
X144927511Y-98838294D01*
X144876000Y-98849500D01*
X142952132Y-98849500D01*
X142952117Y-98849501D01*
X142943164Y-98850464D01*
X142930532Y-98851172D01*
X142930348Y-98851172D01*
X142930346Y-98851173D01*
X142930339Y-98851173D01*
X142930336Y-98851174D01*
X142921481Y-98852491D01*
X142921471Y-98852493D01*
X142921404Y-98852503D01*
X142921075Y-98852561D01*
X142919874Y-98852730D01*
X142919846Y-98852735D01*
X142919845Y-98852734D01*
X142912907Y-98853716D01*
X142892515Y-98855909D01*
X142886225Y-98857395D01*
X142816456Y-98853647D01*
X142759789Y-98812774D01*
X142759347Y-98812202D01*
X142728282Y-98771718D01*
X142728281Y-98771717D01*
X142703228Y-98752493D01*
X142691034Y-98741799D01*
X142558199Y-98608964D01*
X142547504Y-98596769D01*
X142528283Y-98571719D01*
X142496333Y-98547203D01*
X142402841Y-98475464D01*
X142400569Y-98474523D01*
X142256762Y-98414956D01*
X142256760Y-98414955D01*
X142160827Y-98402326D01*
X142100001Y-98394318D01*
X142100000Y-98394318D01*
X142068697Y-98398439D01*
X142052513Y-98399500D01*
X142036733Y-98399500D01*
X141985656Y-98388492D01*
X141968348Y-98380668D01*
X141752608Y-98283144D01*
X141752605Y-98283143D01*
X141749300Y-98281649D01*
X141749378Y-98281475D01*
X141746597Y-98280132D01*
X141746555Y-98280230D01*
X141739392Y-98277130D01*
X141673277Y-98257922D01*
X141670360Y-98257036D01*
X141657814Y-98253054D01*
X141639942Y-98247381D01*
X141639939Y-98247380D01*
X141639938Y-98247380D01*
X141638349Y-98247074D01*
X141636845Y-98246784D01*
X141625693Y-98244098D01*
X141585204Y-98232335D01*
X141585197Y-98232334D01*
X141549181Y-98229500D01*
X141050830Y-98229500D01*
X141050808Y-98229501D01*
X141014799Y-98232334D01*
X141004439Y-98235344D01*
X140909055Y-98263055D01*
X140901712Y-98264947D01*
X140875810Y-98270779D01*
X140639290Y-98360962D01*
X140569637Y-98366453D01*
X140558007Y-98363416D01*
X140176254Y-98243693D01*
X140146465Y-98235342D01*
X140141192Y-98234347D01*
X140141298Y-98233783D01*
X140121314Y-98229348D01*
X140079254Y-98214631D01*
X139900004Y-98194435D01*
X139899996Y-98194435D01*
X139720750Y-98214630D01*
X139720745Y-98214631D01*
X139550476Y-98274211D01*
X139397737Y-98370184D01*
X139270184Y-98497737D01*
X139174211Y-98650476D01*
X139114631Y-98820745D01*
X139114630Y-98820750D01*
X139094435Y-98999996D01*
X139094435Y-99000003D01*
X139114630Y-99179249D01*
X139114631Y-99179254D01*
X139174211Y-99349523D01*
X139270184Y-99502262D01*
X139397738Y-99629816D01*
X139464200Y-99671577D01*
X139528101Y-99711729D01*
X139550478Y-99725789D01*
X139644781Y-99758787D01*
X139720745Y-99785368D01*
X139720750Y-99785369D01*
X139899996Y-99805565D01*
X139900000Y-99805565D01*
X139900004Y-99805565D01*
X140079249Y-99785369D01*
X140079250Y-99785368D01*
X140079255Y-99785368D01*
X140139918Y-99764140D01*
X140160978Y-99758788D01*
X140176254Y-99756307D01*
X140318397Y-99711728D01*
X140388252Y-99710450D01*
X140447711Y-99747143D01*
X140477894Y-99810157D01*
X140479500Y-99830047D01*
X140479500Y-100219169D01*
X140479501Y-100219191D01*
X140482335Y-100255205D01*
X140527129Y-100409388D01*
X140527131Y-100409393D01*
X140532232Y-100418018D01*
X140549500Y-100481139D01*
X140549500Y-100550868D01*
X140546669Y-100577213D01*
X140545010Y-100584842D01*
X140545009Y-100584845D01*
X140516291Y-100986887D01*
X140516739Y-101064709D01*
X140516739Y-101064712D01*
X140517035Y-101068283D01*
X140517312Y-101070134D01*
X140517235Y-101070688D01*
X140517371Y-101072323D01*
X140517005Y-101072353D01*
X140507740Y-101139345D01*
X140462270Y-101192394D01*
X140408779Y-101209175D01*
X140409080Y-101211070D01*
X140401372Y-101212290D01*
X140382129Y-101217881D01*
X140363079Y-101221825D01*
X140343211Y-101224334D01*
X140343210Y-101224334D01*
X140302599Y-101240413D01*
X140291554Y-101244194D01*
X140249614Y-101256379D01*
X140249610Y-101256381D01*
X140232366Y-101266579D01*
X140214905Y-101275133D01*
X140196274Y-101282510D01*
X140196262Y-101282517D01*
X140160933Y-101308185D01*
X140151173Y-101314596D01*
X140113580Y-101336829D01*
X140099414Y-101350995D01*
X140084624Y-101363627D01*
X140068414Y-101375404D01*
X140068408Y-101375410D01*
X140040574Y-101409056D01*
X140032712Y-101417696D01*
X139816206Y-101634201D01*
X139803943Y-101644027D01*
X139804126Y-101644248D01*
X139798119Y-101649216D01*
X139752096Y-101698225D01*
X139749389Y-101701018D01*
X139729889Y-101720517D01*
X139729875Y-101720534D01*
X139727407Y-101723715D01*
X139719843Y-101732570D01*
X139689937Y-101764418D01*
X139689936Y-101764420D01*
X139680284Y-101781976D01*
X139669610Y-101798226D01*
X139657329Y-101814061D01*
X139657324Y-101814068D01*
X139639975Y-101854158D01*
X139634838Y-101864644D01*
X139613803Y-101902906D01*
X139608822Y-101922307D01*
X139602521Y-101940710D01*
X139594562Y-101959102D01*
X139594561Y-101959105D01*
X139587728Y-102002243D01*
X139585360Y-102013674D01*
X139574501Y-102055971D01*
X139574500Y-102055982D01*
X139574500Y-102076016D01*
X139572973Y-102095415D01*
X139569840Y-102115194D01*
X139569840Y-102115195D01*
X139573950Y-102158674D01*
X139574500Y-102170343D01*
X139574500Y-105084138D01*
X139570000Y-105099463D01*
X139570000Y-107228637D01*
X139550315Y-107295676D01*
X139533681Y-107316318D01*
X139086818Y-107763181D01*
X139025495Y-107796666D01*
X138999137Y-107799500D01*
X138456644Y-107799500D01*
X138354723Y-107809913D01*
X138189577Y-107864637D01*
X138189566Y-107864642D01*
X138041500Y-107955971D01*
X138041496Y-107955974D01*
X137918474Y-108078996D01*
X137918471Y-108079000D01*
X137827142Y-108227066D01*
X137827137Y-108227077D01*
X137772413Y-108392223D01*
X137762000Y-108494144D01*
X137762000Y-109505855D01*
X137772413Y-109607776D01*
X137827137Y-109772922D01*
X137827142Y-109772933D01*
X137918471Y-109920999D01*
X137918474Y-109921003D01*
X138041496Y-110044025D01*
X138041500Y-110044028D01*
X138189566Y-110135357D01*
X138189569Y-110135358D01*
X138189575Y-110135362D01*
X138354725Y-110190087D01*
X138456652Y-110200500D01*
X138456657Y-110200500D01*
X139043343Y-110200500D01*
X139043348Y-110200500D01*
X139145275Y-110190087D01*
X139278578Y-110145914D01*
X139348405Y-110143513D01*
X139405262Y-110175940D01*
X139638106Y-110408784D01*
X139647929Y-110421045D01*
X139648151Y-110420863D01*
X139653123Y-110426873D01*
X139653126Y-110426877D01*
X139684982Y-110456792D01*
X139702135Y-110472900D01*
X139704933Y-110475612D01*
X139724434Y-110495114D01*
X139724438Y-110495117D01*
X139724441Y-110495120D01*
X139727614Y-110497581D01*
X139736486Y-110505159D01*
X139768330Y-110535062D01*
X139785888Y-110544714D01*
X139802147Y-110555395D01*
X139817976Y-110567673D01*
X139858067Y-110585021D01*
X139868538Y-110590151D01*
X139891092Y-110602550D01*
X139906814Y-110611194D01*
X139906816Y-110611195D01*
X139906820Y-110611197D01*
X139926228Y-110616180D01*
X139944631Y-110622481D01*
X139963013Y-110630436D01*
X139963014Y-110630436D01*
X139963016Y-110630437D01*
X140006162Y-110637270D01*
X140017584Y-110639636D01*
X140059893Y-110650500D01*
X140079928Y-110650500D01*
X140099326Y-110652026D01*
X140119106Y-110655159D01*
X140119107Y-110655160D01*
X140119107Y-110655159D01*
X140119108Y-110655160D01*
X140162587Y-110651050D01*
X140174256Y-110650500D01*
X141412257Y-110650500D01*
X141427877Y-110652224D01*
X141427904Y-110651939D01*
X141435660Y-110652671D01*
X141435667Y-110652673D01*
X141502873Y-110650561D01*
X141506768Y-110650500D01*
X141534346Y-110650500D01*
X141534350Y-110650500D01*
X141538324Y-110649997D01*
X141549963Y-110649080D01*
X141593627Y-110647709D01*
X141612869Y-110642117D01*
X141631912Y-110638174D01*
X141651792Y-110635664D01*
X141692401Y-110619585D01*
X141703444Y-110615803D01*
X141745390Y-110603618D01*
X141762629Y-110593422D01*
X141780103Y-110584862D01*
X141798727Y-110577488D01*
X141798727Y-110577487D01*
X141798732Y-110577486D01*
X141834083Y-110551800D01*
X141843814Y-110545408D01*
X141881420Y-110523170D01*
X141895589Y-110508999D01*
X141910379Y-110496368D01*
X141926587Y-110484594D01*
X141930217Y-110480206D01*
X141965269Y-110450999D01*
X142229293Y-110303442D01*
X142280073Y-110288068D01*
X142285204Y-110287665D01*
X142439393Y-110242869D01*
X142577598Y-110161135D01*
X142691135Y-110047598D01*
X142710202Y-110015354D01*
X142718745Y-110002751D01*
X143369669Y-109159300D01*
X143397049Y-109134438D01*
X143396822Y-109134153D01*
X143401260Y-109130614D01*
X143401863Y-109130066D01*
X143402262Y-109129816D01*
X143529816Y-109002262D01*
X143625789Y-108849522D01*
X143685368Y-108679255D01*
X143685717Y-108676163D01*
X143705565Y-108500002D01*
X143704905Y-108494144D01*
X143701564Y-108464496D01*
X143700800Y-108448704D01*
X143718431Y-107320326D01*
X143722312Y-107291430D01*
X143725500Y-107279019D01*
X143725500Y-107258983D01*
X143727027Y-107239582D01*
X143730160Y-107219804D01*
X143726049Y-107176327D01*
X143725500Y-107164658D01*
X143725500Y-106874500D01*
X143745185Y-106807461D01*
X143797989Y-106761706D01*
X143849500Y-106750500D01*
X146545454Y-106750500D01*
X146612493Y-106770185D01*
X146633130Y-106786814D01*
X146758682Y-106912365D01*
X146792166Y-106973686D01*
X146795000Y-107000045D01*
X146795000Y-107336953D01*
X146795597Y-107361505D01*
X146795651Y-107362628D01*
X146795654Y-107362654D01*
X146798514Y-107385192D01*
X146799500Y-107400801D01*
X146799500Y-107810709D01*
X146801428Y-107835205D01*
X146787062Y-107903582D01*
X146753297Y-107943305D01*
X146699552Y-107984545D01*
X146682328Y-108006990D01*
X146625298Y-108081315D01*
X146607300Y-108104770D01*
X146549313Y-108244763D01*
X146549312Y-108244765D01*
X146529534Y-108394999D01*
X146529534Y-108395000D01*
X146549312Y-108545234D01*
X146549313Y-108545236D01*
X146604825Y-108679255D01*
X146607302Y-108685233D01*
X146699549Y-108805451D01*
X146819767Y-108897698D01*
X146959764Y-108955687D01*
X147072280Y-108970500D01*
X147076305Y-108971030D01*
X147076038Y-108973051D01*
X147133965Y-108994099D01*
X147176310Y-109049675D01*
X147184500Y-109093993D01*
X147184500Y-109886370D01*
X147180604Y-109917207D01*
X147174501Y-109940976D01*
X147174500Y-109940985D01*
X147174500Y-109961016D01*
X147172973Y-109980415D01*
X147169840Y-110000194D01*
X147169840Y-110000195D01*
X147173950Y-110043674D01*
X147174500Y-110055343D01*
X147174500Y-110217255D01*
X147172775Y-110232872D01*
X147173061Y-110232899D01*
X147172326Y-110240665D01*
X147174439Y-110307872D01*
X147174500Y-110311767D01*
X147174500Y-110339357D01*
X147175003Y-110343335D01*
X147175918Y-110354967D01*
X147177290Y-110398624D01*
X147177291Y-110398627D01*
X147182880Y-110417867D01*
X147186824Y-110436911D01*
X147188604Y-110450998D01*
X147189336Y-110456792D01*
X147205414Y-110497403D01*
X147209197Y-110508452D01*
X147216928Y-110535062D01*
X147221382Y-110550390D01*
X147224342Y-110555396D01*
X147231580Y-110567634D01*
X147240138Y-110585103D01*
X147247514Y-110603732D01*
X147273181Y-110639060D01*
X147279593Y-110648821D01*
X147301828Y-110686417D01*
X147301833Y-110686424D01*
X147315990Y-110700580D01*
X147328628Y-110715376D01*
X147335236Y-110724472D01*
X147340406Y-110731587D01*
X147362059Y-110749500D01*
X147374057Y-110759425D01*
X147382698Y-110767288D01*
X147499194Y-110883784D01*
X147509019Y-110896048D01*
X147509240Y-110895866D01*
X147514210Y-110901874D01*
X147563239Y-110947915D01*
X147566036Y-110950626D01*
X147585530Y-110970120D01*
X147588695Y-110972575D01*
X147597571Y-110980156D01*
X147629418Y-111010062D01*
X147629422Y-111010064D01*
X147646973Y-111019713D01*
X147663231Y-111030392D01*
X147679064Y-111042674D01*
X147714410Y-111057968D01*
X147719155Y-111060022D01*
X147729635Y-111065155D01*
X147767908Y-111086197D01*
X147787312Y-111091179D01*
X147805710Y-111097478D01*
X147824105Y-111105438D01*
X147867254Y-111112271D01*
X147878680Y-111114638D01*
X147920981Y-111125500D01*
X147941016Y-111125500D01*
X147960413Y-111127026D01*
X147980196Y-111130160D01*
X148023675Y-111126050D01*
X148035344Y-111125500D01*
X149720981Y-111125500D01*
X149920981Y-111125500D01*
X150120981Y-111125500D01*
X151917257Y-111125500D01*
X151932877Y-111127224D01*
X151932904Y-111126939D01*
X151940660Y-111127671D01*
X151940667Y-111127673D01*
X152007873Y-111125561D01*
X152011768Y-111125500D01*
X152039346Y-111125500D01*
X152039350Y-111125500D01*
X152043324Y-111124997D01*
X152054963Y-111124080D01*
X152098627Y-111122709D01*
X152117869Y-111117117D01*
X152136912Y-111113174D01*
X152156792Y-111110664D01*
X152197401Y-111094585D01*
X152208444Y-111090803D01*
X152250390Y-111078618D01*
X152267629Y-111068422D01*
X152285103Y-111059862D01*
X152303727Y-111052488D01*
X152303727Y-111052487D01*
X152303732Y-111052486D01*
X152339083Y-111026800D01*
X152348814Y-111020408D01*
X152386420Y-110998170D01*
X152400589Y-110983999D01*
X152415379Y-110971368D01*
X152431587Y-110959594D01*
X152459438Y-110925926D01*
X152467279Y-110917309D01*
X152573786Y-110810802D01*
X152586048Y-110800980D01*
X152585865Y-110800759D01*
X152591868Y-110795791D01*
X152591877Y-110795786D01*
X152637934Y-110746739D01*
X152640582Y-110744006D01*
X152660120Y-110724470D01*
X152662570Y-110721310D01*
X152670154Y-110712429D01*
X152700062Y-110680582D01*
X152700063Y-110680578D01*
X152702940Y-110676620D01*
X152758268Y-110633951D01*
X152803262Y-110625500D01*
X156656000Y-110625500D01*
X156723039Y-110645185D01*
X156768794Y-110697989D01*
X156780000Y-110749500D01*
X156780000Y-111179592D01*
X156779618Y-111189319D01*
X156779500Y-111190809D01*
X156779500Y-111589169D01*
X156779501Y-111589191D01*
X156782335Y-111625205D01*
X156827129Y-111779388D01*
X156827131Y-111779393D01*
X156908863Y-111917595D01*
X156908869Y-111917603D01*
X157022396Y-112031130D01*
X157022400Y-112031133D01*
X157022402Y-112031135D01*
X157160607Y-112112869D01*
X157201268Y-112124682D01*
X157314791Y-112157664D01*
X157314794Y-112157664D01*
X157314796Y-112157665D01*
X157350819Y-112160500D01*
X157357176Y-112160499D01*
X157398143Y-112167458D01*
X157420745Y-112175368D01*
X157420750Y-112175368D01*
X157420752Y-112175369D01*
X157599996Y-112195565D01*
X157600000Y-112195565D01*
X157600004Y-112195565D01*
X157779246Y-112175369D01*
X157779245Y-112175369D01*
X157779255Y-112175368D01*
X157801860Y-112167457D01*
X157842815Y-112160499D01*
X157849168Y-112160499D01*
X157849180Y-112160499D01*
X157885204Y-112157665D01*
X157929059Y-112144924D01*
X157963654Y-112140000D01*
X158736346Y-112140000D01*
X158770940Y-112144923D01*
X158814796Y-112157665D01*
X158850819Y-112160500D01*
X158857176Y-112160499D01*
X158898143Y-112167458D01*
X158920745Y-112175368D01*
X158920750Y-112175368D01*
X158920752Y-112175369D01*
X159099996Y-112195565D01*
X159100000Y-112195565D01*
X159100004Y-112195565D01*
X159279246Y-112175369D01*
X159279245Y-112175369D01*
X159279255Y-112175368D01*
X159301860Y-112167457D01*
X159342815Y-112160499D01*
X159349168Y-112160499D01*
X159349180Y-112160499D01*
X159385204Y-112157665D01*
X159539393Y-112112869D01*
X159677598Y-112031135D01*
X159708733Y-112000000D01*
X160644341Y-112000000D01*
X160664936Y-112235403D01*
X160664938Y-112235413D01*
X160726094Y-112463655D01*
X160726096Y-112463659D01*
X160726097Y-112463663D01*
X160776031Y-112570746D01*
X160825964Y-112677828D01*
X160825965Y-112677830D01*
X160961505Y-112871402D01*
X161128597Y-113038494D01*
X161322169Y-113174034D01*
X161322171Y-113174035D01*
X161536337Y-113273903D01*
X161764592Y-113335063D01*
X161941032Y-113350499D01*
X161941033Y-113350500D01*
X161941034Y-113350500D01*
X162058967Y-113350500D01*
X162058967Y-113350499D01*
X162235408Y-113335063D01*
X162463663Y-113273903D01*
X162677829Y-113174035D01*
X162871401Y-113038495D01*
X163038495Y-112871401D01*
X163174035Y-112677830D01*
X163273903Y-112463663D01*
X163335063Y-112235408D01*
X163355659Y-112000000D01*
X163335063Y-111764592D01*
X163273903Y-111536337D01*
X163174035Y-111322171D01*
X163174034Y-111322169D01*
X163038494Y-111128597D01*
X162871402Y-110961505D01*
X162677830Y-110825965D01*
X162677828Y-110825964D01*
X162543127Y-110763152D01*
X162463663Y-110726097D01*
X162463659Y-110726096D01*
X162463655Y-110726094D01*
X162235413Y-110664938D01*
X162235403Y-110664936D01*
X162058967Y-110649500D01*
X162058966Y-110649500D01*
X161941034Y-110649500D01*
X161941033Y-110649500D01*
X161764596Y-110664936D01*
X161764586Y-110664938D01*
X161536344Y-110726094D01*
X161536335Y-110726098D01*
X161322171Y-110825964D01*
X161322169Y-110825965D01*
X161128597Y-110961505D01*
X160961506Y-111128597D01*
X160961501Y-111128604D01*
X160825967Y-111322165D01*
X160825965Y-111322169D01*
X160726098Y-111536335D01*
X160726094Y-111536344D01*
X160664938Y-111764586D01*
X160664936Y-111764596D01*
X160644341Y-111999999D01*
X160644341Y-112000000D01*
X159708733Y-112000000D01*
X159791135Y-111917598D01*
X159872869Y-111779393D01*
X159917665Y-111625204D01*
X159920500Y-111589181D01*
X159920499Y-111190820D01*
X159917665Y-111154796D01*
X159872869Y-111000607D01*
X159791135Y-110862402D01*
X159791133Y-110862400D01*
X159791130Y-110862396D01*
X159677603Y-110748869D01*
X159677595Y-110748863D01*
X159539393Y-110667131D01*
X159539388Y-110667129D01*
X159385208Y-110622335D01*
X159385202Y-110622334D01*
X159349188Y-110619500D01*
X159349181Y-110619500D01*
X159342812Y-110619500D01*
X159301857Y-110612541D01*
X159298016Y-110611197D01*
X159294711Y-110610040D01*
X159279256Y-110604632D01*
X159279246Y-110604630D01*
X159098950Y-110584316D01*
X159065373Y-110575654D01*
X159046014Y-110567634D01*
X158903161Y-110508452D01*
X158477040Y-110331916D01*
X158422639Y-110288072D01*
X158400579Y-110221776D01*
X158400500Y-110217358D01*
X158400500Y-109734313D01*
X158400499Y-109734298D01*
X158399309Y-109719181D01*
X158397598Y-109697431D01*
X158351744Y-109539602D01*
X158268081Y-109398135D01*
X158268079Y-109398133D01*
X158268076Y-109398129D01*
X158151870Y-109281923D01*
X158151859Y-109281914D01*
X158024730Y-109206732D01*
X157977046Y-109155664D01*
X157964542Y-109086922D01*
X157991187Y-109022332D01*
X158024730Y-108993268D01*
X158151859Y-108918085D01*
X158151860Y-108918083D01*
X158151865Y-108918081D01*
X158268081Y-108801865D01*
X158351744Y-108660398D01*
X158397598Y-108502569D01*
X158400500Y-108465694D01*
X158400500Y-108251914D01*
X158401280Y-108238029D01*
X158405565Y-108200001D01*
X158405565Y-108199998D01*
X158401280Y-108161969D01*
X158400500Y-108148085D01*
X158400500Y-107934315D01*
X158400499Y-107934290D01*
X158400382Y-107932803D01*
X158400000Y-107923078D01*
X158400000Y-106676922D01*
X158400382Y-106667193D01*
X158400500Y-106665694D01*
X158400500Y-106451914D01*
X158401280Y-106438029D01*
X158405565Y-106400001D01*
X158405565Y-106399998D01*
X158401280Y-106361969D01*
X158400500Y-106348085D01*
X158400500Y-106134313D01*
X158400499Y-106134298D01*
X158397598Y-106097432D01*
X158397597Y-106097426D01*
X158351745Y-105939606D01*
X158351744Y-105939603D01*
X158351744Y-105939602D01*
X158268081Y-105798135D01*
X158268079Y-105798133D01*
X158268076Y-105798129D01*
X158151870Y-105681923D01*
X158151862Y-105681917D01*
X158066758Y-105631587D01*
X158010398Y-105598256D01*
X158010397Y-105598255D01*
X158010396Y-105598255D01*
X158010393Y-105598254D01*
X157852573Y-105552402D01*
X157852567Y-105552401D01*
X157815701Y-105549500D01*
X157815694Y-105549500D01*
X157418373Y-105549500D01*
X157396284Y-105547517D01*
X157340615Y-105537439D01*
X157259723Y-105522794D01*
X156437059Y-105373863D01*
X156409906Y-105365649D01*
X156407397Y-105364563D01*
X156407388Y-105364561D01*
X156364255Y-105357729D01*
X156352818Y-105355361D01*
X156310516Y-105344500D01*
X156310515Y-105344500D01*
X156290480Y-105344500D01*
X156271082Y-105342973D01*
X156263658Y-105341797D01*
X156251301Y-105339840D01*
X156251300Y-105339840D01*
X156207821Y-105343950D01*
X156196152Y-105344500D01*
X154993861Y-105344500D01*
X154926822Y-105324815D01*
X154881067Y-105272011D01*
X154871123Y-105202853D01*
X154875201Y-105184503D01*
X154885371Y-105150978D01*
X154885374Y-105150967D01*
X154889582Y-105129816D01*
X154893403Y-105110606D01*
X154893893Y-105107307D01*
X154897896Y-105080315D01*
X154900682Y-105061534D01*
X154903065Y-105037341D01*
X154905500Y-104987789D01*
X154905500Y-104907547D01*
X154905564Y-104906407D01*
X154905565Y-104893632D01*
X154905500Y-104892458D01*
X154905500Y-104474499D01*
X154925185Y-104407460D01*
X154977989Y-104361705D01*
X155029495Y-104350499D01*
X156999636Y-104350499D01*
X157006396Y-104350683D01*
X157007295Y-104350732D01*
X157040624Y-104352552D01*
X157048242Y-104351878D01*
X157057116Y-104350880D01*
X157058047Y-104350776D01*
X157071897Y-104350000D01*
X157624054Y-104350000D01*
X157684899Y-104365954D01*
X157919947Y-104498322D01*
X157923115Y-104500000D01*
X157938295Y-104508041D01*
X157945350Y-104512079D01*
X157951527Y-104515889D01*
X157966303Y-104525003D01*
X158127292Y-104578349D01*
X158226655Y-104588500D01*
X158773344Y-104588499D01*
X158773352Y-104588498D01*
X158773355Y-104588498D01*
X158827760Y-104582940D01*
X158872708Y-104578349D01*
X159033697Y-104525003D01*
X159178044Y-104435968D01*
X159297968Y-104316044D01*
X159387003Y-104171697D01*
X159440349Y-104010708D01*
X159450500Y-103911345D01*
X159450499Y-103314656D01*
X159449675Y-103306594D01*
X159440349Y-103215292D01*
X159440348Y-103215289D01*
X159435282Y-103200000D01*
X159387003Y-103054303D01*
X159386999Y-103054297D01*
X159386998Y-103054294D01*
X159297970Y-102909959D01*
X159297967Y-102909955D01*
X159178044Y-102790032D01*
X159178040Y-102790029D01*
X159033705Y-102701001D01*
X159033699Y-102700998D01*
X159033697Y-102700997D01*
X158970332Y-102680000D01*
X158872709Y-102647651D01*
X158773346Y-102637500D01*
X158226662Y-102637500D01*
X158226646Y-102637501D01*
X158208477Y-102639358D01*
X158195875Y-102640000D01*
X157624499Y-102640000D01*
X157557460Y-102620315D01*
X157511705Y-102567511D01*
X157500499Y-102516000D01*
X157500499Y-102502129D01*
X157500498Y-102502123D01*
X157494091Y-102442516D01*
X157443797Y-102307671D01*
X157443793Y-102307664D01*
X157357547Y-102192455D01*
X157345018Y-102183076D01*
X157332581Y-102173765D01*
X157290712Y-102117832D01*
X157285728Y-102048140D01*
X157319214Y-101986818D01*
X157380538Y-101953333D01*
X157406894Y-101950500D01*
X157836637Y-101950500D01*
X157864409Y-101953650D01*
X157868749Y-101954648D01*
X158147828Y-101977903D01*
X158172110Y-101982396D01*
X158259007Y-102007643D01*
X158295310Y-102010500D01*
X158295318Y-102010500D01*
X158704682Y-102010500D01*
X158704690Y-102010500D01*
X158740993Y-102007643D01*
X158740995Y-102007642D01*
X158740997Y-102007642D01*
X158812672Y-101986818D01*
X158896395Y-101962494D01*
X159035687Y-101880117D01*
X159150117Y-101765687D01*
X159232494Y-101626395D01*
X159277643Y-101470993D01*
X159280500Y-101434690D01*
X159280500Y-101414236D01*
X159285237Y-101386366D01*
X159283819Y-101386043D01*
X159285369Y-101379252D01*
X159305565Y-101200002D01*
X159305565Y-101199999D01*
X159302757Y-101175083D01*
X159302198Y-101153804D01*
X159302701Y-101145391D01*
X159265565Y-100699755D01*
X159270715Y-100652684D01*
X159294151Y-100577213D01*
X159413231Y-100193745D01*
X159418660Y-100166239D01*
X159422607Y-100151248D01*
X159440347Y-100097714D01*
X159440346Y-100097714D01*
X159440349Y-100097708D01*
X159450500Y-99998345D01*
X159450499Y-99401656D01*
X159450498Y-99401650D01*
X159450338Y-99398501D01*
X159450409Y-99398497D01*
X159450000Y-99390452D01*
X159450000Y-99174000D01*
X159469685Y-99106961D01*
X159522489Y-99061206D01*
X159574000Y-99050000D01*
X160325500Y-99050000D01*
X160392539Y-99069685D01*
X160438294Y-99122489D01*
X160449500Y-99174000D01*
X160449500Y-103836632D01*
X160446349Y-103864407D01*
X160445353Y-103868738D01*
X160445352Y-103868743D01*
X160397297Y-104445403D01*
X160396015Y-104465720D01*
X160395975Y-104466658D01*
X160396177Y-104473301D01*
X160395456Y-104490928D01*
X160394435Y-104499998D01*
X160394435Y-104500003D01*
X160397370Y-104526054D01*
X160398092Y-104536157D01*
X160398228Y-104540631D01*
X160398801Y-104544744D01*
X160400583Y-104554573D01*
X160414630Y-104679249D01*
X160474210Y-104849521D01*
X160536424Y-104948534D01*
X160570184Y-105002262D01*
X160697738Y-105129816D01*
X160784772Y-105184503D01*
X160813975Y-105202853D01*
X160850478Y-105225789D01*
X160982573Y-105272011D01*
X161020745Y-105285368D01*
X161020750Y-105285369D01*
X161199996Y-105305565D01*
X161200000Y-105305565D01*
X161200002Y-105305565D01*
X161242469Y-105300780D01*
X161256353Y-105300000D01*
X164375500Y-105300000D01*
X164442539Y-105319685D01*
X164488294Y-105372489D01*
X164499500Y-105424000D01*
X164499500Y-111996249D01*
X164499274Y-112003736D01*
X164481728Y-112293794D01*
X164479923Y-112308659D01*
X164428219Y-112590798D01*
X164424635Y-112605336D01*
X164339306Y-112879167D01*
X164333997Y-112893168D01*
X164216275Y-113154736D01*
X164209316Y-113167995D01*
X164060928Y-113413459D01*
X164052422Y-113425782D01*
X163875526Y-113651573D01*
X163865596Y-113662781D01*
X163662781Y-113865596D01*
X163651573Y-113875526D01*
X163425782Y-114052422D01*
X163413459Y-114060928D01*
X163167995Y-114209316D01*
X163154736Y-114216275D01*
X162893168Y-114333997D01*
X162879167Y-114339306D01*
X162605336Y-114424635D01*
X162590798Y-114428219D01*
X162308659Y-114479923D01*
X162293794Y-114481728D01*
X162003736Y-114499274D01*
X161996249Y-114499500D01*
X138003751Y-114499500D01*
X137996264Y-114499274D01*
X137706205Y-114481728D01*
X137691340Y-114479923D01*
X137409201Y-114428219D01*
X137394663Y-114424635D01*
X137120832Y-114339306D01*
X137106831Y-114333997D01*
X136845263Y-114216275D01*
X136832004Y-114209316D01*
X136586540Y-114060928D01*
X136574217Y-114052422D01*
X136348426Y-113875526D01*
X136337218Y-113865596D01*
X136134403Y-113662781D01*
X136124473Y-113651573D01*
X135947573Y-113425776D01*
X135939075Y-113413465D01*
X135790680Y-113167989D01*
X135783727Y-113154743D01*
X135666000Y-112893163D01*
X135660693Y-112879167D01*
X135658273Y-112871402D01*
X135575363Y-112605335D01*
X135571780Y-112590798D01*
X135520076Y-112308659D01*
X135518271Y-112293794D01*
X135500726Y-112003736D01*
X135500613Y-112000000D01*
X136644341Y-112000000D01*
X136664936Y-112235403D01*
X136664938Y-112235413D01*
X136726094Y-112463655D01*
X136726096Y-112463659D01*
X136726097Y-112463663D01*
X136776031Y-112570746D01*
X136825964Y-112677828D01*
X136825965Y-112677830D01*
X136961505Y-112871402D01*
X137128597Y-113038494D01*
X137322169Y-113174034D01*
X137322171Y-113174035D01*
X137536337Y-113273903D01*
X137764592Y-113335063D01*
X137941032Y-113350499D01*
X137941033Y-113350500D01*
X137941034Y-113350500D01*
X138058967Y-113350500D01*
X138058967Y-113350499D01*
X138235408Y-113335063D01*
X138463663Y-113273903D01*
X138677829Y-113174035D01*
X138871401Y-113038495D01*
X139038495Y-112871401D01*
X139174035Y-112677830D01*
X139273903Y-112463663D01*
X139335063Y-112235408D01*
X139355659Y-112000000D01*
X139335063Y-111764592D01*
X139273903Y-111536337D01*
X139174035Y-111322171D01*
X139174034Y-111322169D01*
X139038494Y-111128597D01*
X138871402Y-110961505D01*
X138677830Y-110825965D01*
X138677828Y-110825964D01*
X138543127Y-110763152D01*
X138463663Y-110726097D01*
X138463659Y-110726096D01*
X138463655Y-110726094D01*
X138235413Y-110664938D01*
X138235403Y-110664936D01*
X138058967Y-110649500D01*
X138058966Y-110649500D01*
X137941034Y-110649500D01*
X137941033Y-110649500D01*
X137764596Y-110664936D01*
X137764586Y-110664938D01*
X137536344Y-110726094D01*
X137536335Y-110726098D01*
X137322171Y-110825964D01*
X137322169Y-110825965D01*
X137128597Y-110961505D01*
X136961506Y-111128597D01*
X136961501Y-111128604D01*
X136825967Y-111322165D01*
X136825965Y-111322169D01*
X136726098Y-111536335D01*
X136726094Y-111536344D01*
X136664938Y-111764586D01*
X136664936Y-111764596D01*
X136644341Y-111999999D01*
X136644341Y-112000000D01*
X135500613Y-112000000D01*
X135500500Y-111996249D01*
X135500500Y-105304000D01*
X135520185Y-105236961D01*
X135572989Y-105191206D01*
X135624500Y-105180000D01*
X136929906Y-105180000D01*
X136940714Y-105180472D01*
X136999999Y-105185659D01*
X137000000Y-105185659D01*
X137000001Y-105185659D01*
X137064681Y-105180000D01*
X137235408Y-105165063D01*
X137463663Y-105103903D01*
X137677830Y-105004035D01*
X137871401Y-104868495D01*
X138038495Y-104701401D01*
X138174035Y-104507830D01*
X138273903Y-104293663D01*
X138335063Y-104065408D01*
X138355659Y-103830000D01*
X138350471Y-103770712D01*
X138350000Y-103759905D01*
X138350000Y-101360094D01*
X138350472Y-101349286D01*
X138355659Y-101290000D01*
X138355659Y-101289999D01*
X138350472Y-101230713D01*
X138350000Y-101219905D01*
X138350000Y-98820094D01*
X138350472Y-98809286D01*
X138355659Y-98750000D01*
X138355659Y-98749999D01*
X138350472Y-98690713D01*
X138350000Y-98679905D01*
X138350000Y-97119167D01*
X138350427Y-97111188D01*
X138350322Y-97111183D01*
X138350497Y-97107898D01*
X138350500Y-97107873D01*
X138350499Y-95312128D01*
X138344091Y-95252517D01*
X138329696Y-95213923D01*
X138293797Y-95117671D01*
X138293793Y-95117664D01*
X138207547Y-95002455D01*
X138207544Y-95002452D01*
X138092335Y-94916206D01*
X138092328Y-94916202D01*
X137957482Y-94865908D01*
X137957483Y-94865908D01*
X137897883Y-94859501D01*
X137897881Y-94859500D01*
X137897873Y-94859500D01*
X137897864Y-94859500D01*
X136102129Y-94859500D01*
X136098804Y-94859679D01*
X136098798Y-94859573D01*
X136090837Y-94860000D01*
X135624500Y-94860000D01*
X135557461Y-94840315D01*
X135511706Y-94787511D01*
X135500500Y-94736000D01*
X135500500Y-88003750D01*
X135500613Y-88000000D01*
X136644341Y-88000000D01*
X136664936Y-88235403D01*
X136664938Y-88235413D01*
X136726094Y-88463655D01*
X136726096Y-88463659D01*
X136726097Y-88463663D01*
X136753053Y-88521470D01*
X136825964Y-88677828D01*
X136825965Y-88677830D01*
X136961505Y-88871402D01*
X137128597Y-89038494D01*
X137322169Y-89174034D01*
X137322171Y-89174035D01*
X137536337Y-89273903D01*
X137764592Y-89335063D01*
X137941032Y-89350499D01*
X137941033Y-89350500D01*
X137941034Y-89350500D01*
X138058967Y-89350500D01*
X138058967Y-89350499D01*
X138235408Y-89335063D01*
X138463663Y-89273903D01*
X138677829Y-89174035D01*
X138871401Y-89038495D01*
X139038495Y-88871401D01*
X139174035Y-88677830D01*
X139273903Y-88463663D01*
X139335063Y-88235408D01*
X139355659Y-88000000D01*
X160644341Y-88000000D01*
X160664936Y-88235403D01*
X160664938Y-88235413D01*
X160726094Y-88463655D01*
X160726096Y-88463659D01*
X160726097Y-88463663D01*
X160753053Y-88521470D01*
X160825964Y-88677828D01*
X160825965Y-88677830D01*
X160961505Y-88871402D01*
X161128597Y-89038494D01*
X161322169Y-89174034D01*
X161322171Y-89174035D01*
X161536337Y-89273903D01*
X161764592Y-89335063D01*
X161941032Y-89350499D01*
X161941033Y-89350500D01*
X161941034Y-89350500D01*
X162058967Y-89350500D01*
X162058967Y-89350499D01*
X162235408Y-89335063D01*
X162463663Y-89273903D01*
X162677829Y-89174035D01*
X162871401Y-89038495D01*
X163038495Y-88871401D01*
X163174035Y-88677830D01*
X163273903Y-88463663D01*
X163335063Y-88235408D01*
X163355659Y-88000000D01*
X163335063Y-87764592D01*
X163273903Y-87536337D01*
X163174035Y-87322171D01*
X163174034Y-87322169D01*
X163038494Y-87128597D01*
X162871402Y-86961505D01*
X162677830Y-86825965D01*
X162677828Y-86825964D01*
X162570746Y-86776031D01*
X162463663Y-86726097D01*
X162463659Y-86726096D01*
X162463655Y-86726094D01*
X162235413Y-86664938D01*
X162235403Y-86664936D01*
X162058967Y-86649500D01*
X162058966Y-86649500D01*
X161941034Y-86649500D01*
X161941033Y-86649500D01*
X161764596Y-86664936D01*
X161764586Y-86664938D01*
X161536344Y-86726094D01*
X161536335Y-86726098D01*
X161322171Y-86825964D01*
X161322169Y-86825965D01*
X161128597Y-86961505D01*
X160961506Y-87128597D01*
X160961501Y-87128604D01*
X160825967Y-87322165D01*
X160825965Y-87322169D01*
X160726098Y-87536335D01*
X160726094Y-87536344D01*
X160664938Y-87764586D01*
X160664936Y-87764596D01*
X160644341Y-87999999D01*
X160644341Y-88000000D01*
X139355659Y-88000000D01*
X139335063Y-87764592D01*
X139273903Y-87536337D01*
X139174035Y-87322171D01*
X139174034Y-87322169D01*
X139038494Y-87128597D01*
X138871402Y-86961505D01*
X138677830Y-86825965D01*
X138677828Y-86825964D01*
X138570746Y-86776031D01*
X138463663Y-86726097D01*
X138463659Y-86726096D01*
X138463655Y-86726094D01*
X138235413Y-86664938D01*
X138235403Y-86664936D01*
X138058967Y-86649500D01*
X138058966Y-86649500D01*
X137941034Y-86649500D01*
X137941033Y-86649500D01*
X137764596Y-86664936D01*
X137764586Y-86664938D01*
X137536344Y-86726094D01*
X137536335Y-86726098D01*
X137322171Y-86825964D01*
X137322169Y-86825965D01*
X137128597Y-86961505D01*
X136961506Y-87128597D01*
X136961501Y-87128604D01*
X136825967Y-87322165D01*
X136825965Y-87322169D01*
X136726098Y-87536335D01*
X136726094Y-87536344D01*
X136664938Y-87764586D01*
X136664936Y-87764596D01*
X136644341Y-87999999D01*
X136644341Y-88000000D01*
X135500613Y-88000000D01*
X135500726Y-87996263D01*
X135518271Y-87706205D01*
X135520076Y-87691340D01*
X135544607Y-87557482D01*
X135571780Y-87409197D01*
X135575364Y-87394663D01*
X135660696Y-87120822D01*
X135665998Y-87106841D01*
X135783731Y-86845249D01*
X135790676Y-86832016D01*
X135939080Y-86586526D01*
X135947567Y-86574230D01*
X136124480Y-86348417D01*
X136134395Y-86337226D01*
X136337226Y-86134395D01*
X136348417Y-86124480D01*
X136574230Y-85947567D01*
X136586526Y-85939080D01*
X136832016Y-85790676D01*
X136845249Y-85783731D01*
X137106841Y-85665998D01*
X137120822Y-85660696D01*
X137394668Y-85575362D01*
X137409197Y-85571780D01*
X137691344Y-85520075D01*
X137706201Y-85518271D01*
X137996264Y-85500726D01*
X138003751Y-85500500D01*
X138065892Y-85500500D01*
X143276000Y-85500500D01*
X143343039Y-85520185D01*
G37*
G04 #@! TD.AperFunction*
G04 #@! TA.AperFunction,Conductor*
G36*
X155801687Y-107065185D02*
G01*
X155822329Y-107081819D01*
X156038181Y-107297671D01*
X156071666Y-107358994D01*
X156074500Y-107385352D01*
X156074500Y-107817255D01*
X156072775Y-107832872D01*
X156073061Y-107832899D01*
X156072326Y-107840665D01*
X156074439Y-107907872D01*
X156074500Y-107911767D01*
X156074500Y-107939357D01*
X156075003Y-107943335D01*
X156075918Y-107954967D01*
X156077290Y-107998624D01*
X156077291Y-107998627D01*
X156082880Y-108017867D01*
X156086824Y-108036911D01*
X156089336Y-108056792D01*
X156105414Y-108097403D01*
X156109197Y-108108452D01*
X156109590Y-108109806D01*
X156121382Y-108150390D01*
X156124135Y-108155046D01*
X156131580Y-108167634D01*
X156140136Y-108185100D01*
X156146036Y-108200000D01*
X156147514Y-108203732D01*
X156173181Y-108239060D01*
X156179593Y-108248821D01*
X156201828Y-108286417D01*
X156201833Y-108286424D01*
X156215990Y-108300580D01*
X156228628Y-108315376D01*
X156240405Y-108331586D01*
X156240406Y-108331587D01*
X156274056Y-108359424D01*
X156282697Y-108367287D01*
X156499198Y-108583789D01*
X156509022Y-108596050D01*
X156509243Y-108595868D01*
X156514213Y-108601876D01*
X156563224Y-108647901D01*
X156566022Y-108650613D01*
X156585522Y-108670114D01*
X156585526Y-108670117D01*
X156585529Y-108670120D01*
X156588702Y-108672581D01*
X156597574Y-108680159D01*
X156629418Y-108710062D01*
X156646976Y-108719714D01*
X156663233Y-108730393D01*
X156679064Y-108742673D01*
X156708803Y-108755542D01*
X156719152Y-108760021D01*
X156729641Y-108765160D01*
X156753457Y-108778252D01*
X156767908Y-108786197D01*
X156780523Y-108789435D01*
X156787305Y-108791177D01*
X156805719Y-108797481D01*
X156824104Y-108805438D01*
X156824105Y-108805438D01*
X156826196Y-108806343D01*
X156845598Y-108814071D01*
X157048499Y-108918542D01*
X157054844Y-108922049D01*
X157081157Y-108937610D01*
X157175270Y-108993268D01*
X157222953Y-109044335D01*
X157235457Y-109113077D01*
X157208812Y-109177667D01*
X157175270Y-109206731D01*
X157054866Y-109277937D01*
X157048509Y-109281449D01*
X156894507Y-109360744D01*
X156837743Y-109374500D01*
X152939500Y-109374500D01*
X152872461Y-109354815D01*
X152826706Y-109302011D01*
X152815500Y-109250500D01*
X152815500Y-109093993D01*
X152835185Y-109026954D01*
X152887989Y-108981199D01*
X152923850Y-108972207D01*
X152923695Y-108971030D01*
X152927720Y-108970500D01*
X153040236Y-108955687D01*
X153180233Y-108897698D01*
X153300451Y-108805451D01*
X153392698Y-108685233D01*
X153450687Y-108545236D01*
X153470466Y-108395000D01*
X153470100Y-108392223D01*
X153450687Y-108244765D01*
X153450687Y-108244764D01*
X153392698Y-108104767D01*
X153300451Y-107984549D01*
X153300449Y-107984547D01*
X153300448Y-107984546D01*
X153246702Y-107943305D01*
X153205499Y-107886877D01*
X153198571Y-107835200D01*
X153200500Y-107810694D01*
X153200500Y-107169500D01*
X153220185Y-107102461D01*
X153272989Y-107056706D01*
X153324500Y-107045500D01*
X155734648Y-107045500D01*
X155801687Y-107065185D01*
G37*
G04 #@! TD.AperFunction*
G04 #@! TA.AperFunction,Conductor*
G36*
X154660145Y-101970185D02*
G01*
X154705900Y-102022989D01*
X154715844Y-102092147D01*
X154686819Y-102155703D01*
X154667418Y-102173766D01*
X154642452Y-102192455D01*
X154556206Y-102307664D01*
X154556202Y-102307671D01*
X154505910Y-102442513D01*
X154505909Y-102442517D01*
X154499500Y-102502127D01*
X154499500Y-102502134D01*
X154499500Y-102502135D01*
X154499500Y-103097870D01*
X154499501Y-103097876D01*
X154505908Y-103157479D01*
X154507692Y-103165026D01*
X154505129Y-103165631D01*
X154509204Y-103222658D01*
X154475715Y-103283979D01*
X154414390Y-103317460D01*
X154353987Y-103315034D01*
X154353951Y-103315219D01*
X154353940Y-103315216D01*
X154353904Y-103315362D01*
X154352331Y-103314967D01*
X154352060Y-103314957D01*
X154350974Y-103314627D01*
X154350957Y-103314623D01*
X154318026Y-103308073D01*
X154310588Y-103306594D01*
X154310584Y-103306593D01*
X154310572Y-103306591D01*
X154261520Y-103299315D01*
X154261505Y-103299313D01*
X154237329Y-103296933D01*
X154219073Y-103296036D01*
X154187789Y-103294500D01*
X154187777Y-103294500D01*
X154107539Y-103294500D01*
X154106381Y-103294435D01*
X154093619Y-103294435D01*
X154092461Y-103294500D01*
X153307539Y-103294500D01*
X153306381Y-103294435D01*
X153293619Y-103294435D01*
X153292461Y-103294500D01*
X152507539Y-103294500D01*
X152506381Y-103294435D01*
X152493619Y-103294435D01*
X152492461Y-103294500D01*
X147707539Y-103294500D01*
X147706381Y-103294435D01*
X147693619Y-103294435D01*
X147692461Y-103294500D01*
X146907539Y-103294500D01*
X146906381Y-103294435D01*
X146893619Y-103294435D01*
X146892461Y-103294500D01*
X146812211Y-103294500D01*
X146784404Y-103295865D01*
X146762693Y-103296931D01*
X146762683Y-103296931D01*
X146762682Y-103296932D01*
X146756908Y-103297500D01*
X146738475Y-103299315D01*
X146689413Y-103306593D01*
X146649039Y-103314624D01*
X146649024Y-103314627D01*
X146554198Y-103343394D01*
X146509501Y-103361909D01*
X146509494Y-103361912D01*
X146422113Y-103408620D01*
X146398245Y-103424568D01*
X146398230Y-103424580D01*
X146321644Y-103487434D01*
X146287434Y-103521644D01*
X146224580Y-103598230D01*
X146224571Y-103598242D01*
X146208621Y-103622111D01*
X146161911Y-103709493D01*
X146161911Y-103709494D01*
X146143398Y-103754184D01*
X146143398Y-103754185D01*
X146114622Y-103849041D01*
X146106591Y-103889419D01*
X146099314Y-103938484D01*
X146096933Y-103962667D01*
X146096933Y-103962675D01*
X146094500Y-104012210D01*
X146094500Y-104012222D01*
X146094500Y-104092458D01*
X146094434Y-104093632D01*
X146094435Y-104106407D01*
X146094500Y-104107547D01*
X146094500Y-104892458D01*
X146094434Y-104893632D01*
X146094435Y-104906407D01*
X146094500Y-104907547D01*
X146094500Y-104987789D01*
X146095067Y-104999334D01*
X146096933Y-105037329D01*
X146099313Y-105061505D01*
X146099315Y-105061520D01*
X146106107Y-105107307D01*
X146096471Y-105176509D01*
X146050952Y-105229516D01*
X145984001Y-105249499D01*
X145983449Y-105249500D01*
X143763364Y-105249500D01*
X143735591Y-105246349D01*
X143731252Y-105245352D01*
X143154598Y-105197297D01*
X143154593Y-105197296D01*
X143154561Y-105197294D01*
X143133986Y-105196002D01*
X143133072Y-105195964D01*
X143133066Y-105195964D01*
X143133061Y-105195964D01*
X143133059Y-105195964D01*
X143126609Y-105196161D01*
X143108931Y-105195441D01*
X143100000Y-105194435D01*
X143099999Y-105194435D01*
X143093040Y-105194435D01*
X143093040Y-105192863D01*
X143062992Y-105190922D01*
X142090668Y-104952428D01*
X142060467Y-104940658D01*
X142057096Y-104938805D01*
X142057090Y-104938802D01*
X142037690Y-104933821D01*
X142019284Y-104927519D01*
X142000895Y-104919561D01*
X142000892Y-104919560D01*
X141957760Y-104912729D01*
X141946322Y-104910361D01*
X141904020Y-104899500D01*
X141904019Y-104899500D01*
X141883984Y-104899500D01*
X141864586Y-104897973D01*
X141857162Y-104896797D01*
X141844805Y-104894840D01*
X141844804Y-104894840D01*
X141801325Y-104898950D01*
X141789656Y-104899500D01*
X140949500Y-104899500D01*
X140882461Y-104879815D01*
X140836706Y-104827011D01*
X140825500Y-104775500D01*
X140825500Y-103924499D01*
X140845185Y-103857460D01*
X140897989Y-103811705D01*
X140949500Y-103800499D01*
X141775002Y-103800499D01*
X141775008Y-103800499D01*
X141775013Y-103800498D01*
X141778164Y-103800338D01*
X141778167Y-103800409D01*
X141786211Y-103800000D01*
X142377595Y-103800000D01*
X142444634Y-103819685D01*
X142490389Y-103872489D01*
X142500885Y-103910747D01*
X142505908Y-103957483D01*
X142556202Y-104092328D01*
X142556206Y-104092335D01*
X142642452Y-104207544D01*
X142642455Y-104207547D01*
X142757664Y-104293793D01*
X142757671Y-104293797D01*
X142892517Y-104344091D01*
X142892516Y-104344091D01*
X142899444Y-104344835D01*
X142952127Y-104350500D01*
X145047872Y-104350499D01*
X145107483Y-104344091D01*
X145242331Y-104293796D01*
X145357546Y-104207546D01*
X145443796Y-104092331D01*
X145494091Y-103957483D01*
X145500500Y-103897873D01*
X145500499Y-103302128D01*
X145494091Y-103242517D01*
X145494090Y-103242515D01*
X145494090Y-103242512D01*
X145492308Y-103234969D01*
X145493773Y-103234622D01*
X145489409Y-103173651D01*
X145493819Y-103158633D01*
X145494089Y-103157488D01*
X145494088Y-103157488D01*
X145494091Y-103157483D01*
X145500500Y-103097873D01*
X145500499Y-102502128D01*
X145494091Y-102442517D01*
X145493894Y-102441990D01*
X145443797Y-102307671D01*
X145443793Y-102307664D01*
X145357547Y-102192455D01*
X145345018Y-102183076D01*
X145332581Y-102173765D01*
X145290712Y-102117832D01*
X145285728Y-102048140D01*
X145319214Y-101986818D01*
X145380538Y-101953333D01*
X145406894Y-101950500D01*
X154593106Y-101950500D01*
X154660145Y-101970185D01*
G37*
G04 #@! TD.AperFunction*
G04 #@! TA.AperFunction,Conductor*
G36*
X146757531Y-96200780D02*
G01*
X146799998Y-96205565D01*
X146800000Y-96205565D01*
X146800002Y-96205565D01*
X146842469Y-96200780D01*
X146856353Y-96200000D01*
X148343647Y-96200000D01*
X148357531Y-96200780D01*
X148399998Y-96205565D01*
X148400000Y-96205565D01*
X148400002Y-96205565D01*
X148442469Y-96200780D01*
X148456353Y-96200000D01*
X149143647Y-96200000D01*
X149157531Y-96200780D01*
X149199998Y-96205565D01*
X149200000Y-96205565D01*
X149200002Y-96205565D01*
X149242469Y-96200780D01*
X149256353Y-96200000D01*
X150076000Y-96200000D01*
X150143039Y-96219685D01*
X150188794Y-96272489D01*
X150200000Y-96324000D01*
X150200000Y-97203213D01*
X150180315Y-97270252D01*
X150127511Y-97316007D01*
X150062118Y-97326433D01*
X150000002Y-97319435D01*
X149999993Y-97319435D01*
X149820747Y-97339630D01*
X149820742Y-97339631D01*
X149650473Y-97399211D01*
X149497734Y-97495184D01*
X149370181Y-97622737D01*
X149274208Y-97775476D01*
X149214628Y-97945745D01*
X149214627Y-97945750D01*
X149194432Y-98124996D01*
X149194432Y-98125003D01*
X149214627Y-98304249D01*
X149214628Y-98304254D01*
X149274208Y-98474523D01*
X149330230Y-98563681D01*
X149370181Y-98627262D01*
X149497735Y-98754816D01*
X149550541Y-98787996D01*
X149649957Y-98850464D01*
X149650475Y-98850789D01*
X149726628Y-98877436D01*
X149820742Y-98910368D01*
X149820747Y-98910369D01*
X149999993Y-98930565D01*
X149999997Y-98930565D01*
X150000001Y-98930565D01*
X150179246Y-98910369D01*
X150179248Y-98910368D01*
X150179252Y-98910368D01*
X150179255Y-98910366D01*
X150179259Y-98910366D01*
X150356092Y-98848489D01*
X150356843Y-98850637D01*
X150415125Y-98841035D01*
X150443589Y-98849391D01*
X150443905Y-98848489D01*
X150450477Y-98850788D01*
X150450478Y-98850789D01*
X150456039Y-98852735D01*
X150620745Y-98910368D01*
X150620750Y-98910369D01*
X150799996Y-98930565D01*
X150800000Y-98930565D01*
X150800004Y-98930565D01*
X150979249Y-98910369D01*
X150979252Y-98910368D01*
X150979255Y-98910368D01*
X151149522Y-98850789D01*
X151302262Y-98754816D01*
X151429816Y-98627262D01*
X151525789Y-98474522D01*
X151585368Y-98304255D01*
X151586088Y-98297864D01*
X151605565Y-98125003D01*
X151605565Y-98124000D01*
X151605748Y-98123374D01*
X151606345Y-98118081D01*
X151607272Y-98118185D01*
X151625250Y-98056961D01*
X151678054Y-98011206D01*
X151729565Y-98000000D01*
X151964048Y-98000000D01*
X152031087Y-98019685D01*
X152051729Y-98036319D01*
X153763681Y-99748271D01*
X153797166Y-99809594D01*
X153800000Y-99835952D01*
X153800000Y-100325500D01*
X153780315Y-100392539D01*
X153727511Y-100438294D01*
X153676000Y-100449500D01*
X145406894Y-100449500D01*
X145339855Y-100429815D01*
X145294100Y-100377011D01*
X145284156Y-100307853D01*
X145313181Y-100244297D01*
X145332582Y-100226234D01*
X145357546Y-100207546D01*
X145443796Y-100092331D01*
X145494091Y-99957483D01*
X145500500Y-99897873D01*
X145500499Y-99302128D01*
X145494091Y-99242517D01*
X145491955Y-99236791D01*
X145443797Y-99107671D01*
X145443793Y-99107664D01*
X145357547Y-98992455D01*
X145340487Y-98979684D01*
X145307871Y-98955267D01*
X145299688Y-98949141D01*
X145257818Y-98893207D01*
X145250000Y-98849875D01*
X145250000Y-98500003D01*
X146694435Y-98500003D01*
X146714630Y-98679249D01*
X146714631Y-98679254D01*
X146774211Y-98849523D01*
X146836806Y-98949141D01*
X146870184Y-99002262D01*
X146997738Y-99129816D01*
X147068056Y-99174000D01*
X147144697Y-99222157D01*
X147150478Y-99225789D01*
X147198284Y-99242517D01*
X147320745Y-99285368D01*
X147320750Y-99285369D01*
X147499996Y-99305565D01*
X147500000Y-99305565D01*
X147500004Y-99305565D01*
X147679249Y-99285369D01*
X147679252Y-99285368D01*
X147679255Y-99285368D01*
X147849522Y-99225789D01*
X148002262Y-99129816D01*
X148129816Y-99002262D01*
X148225789Y-98849522D01*
X148285368Y-98679255D01*
X148285369Y-98679249D01*
X148305565Y-98500003D01*
X148305565Y-98499996D01*
X148285369Y-98320750D01*
X148285368Y-98320745D01*
X148265181Y-98263053D01*
X148225789Y-98150478D01*
X148208758Y-98123374D01*
X148143606Y-98019685D01*
X148129816Y-97997738D01*
X148002262Y-97870184D01*
X147951823Y-97838491D01*
X147849523Y-97774211D01*
X147679254Y-97714631D01*
X147679249Y-97714630D01*
X147500004Y-97694435D01*
X147499996Y-97694435D01*
X147320750Y-97714630D01*
X147320745Y-97714631D01*
X147150476Y-97774211D01*
X146997737Y-97870184D01*
X146870184Y-97997737D01*
X146774211Y-98150476D01*
X146714631Y-98320745D01*
X146714630Y-98320750D01*
X146694435Y-98499996D01*
X146694435Y-98500003D01*
X145250000Y-98500003D01*
X145250000Y-98324181D01*
X145269685Y-98257142D01*
X145322489Y-98211387D01*
X145391647Y-98201443D01*
X145439976Y-98219190D01*
X145450307Y-98225682D01*
X145450478Y-98225789D01*
X145610117Y-98281649D01*
X145620745Y-98285368D01*
X145620750Y-98285369D01*
X145799996Y-98305565D01*
X145800000Y-98305565D01*
X145800004Y-98305565D01*
X145979249Y-98285369D01*
X145979252Y-98285368D01*
X145979255Y-98285368D01*
X146149522Y-98225789D01*
X146302262Y-98129816D01*
X146429816Y-98002262D01*
X146525789Y-97849522D01*
X146585368Y-97679255D01*
X146587521Y-97660145D01*
X146605565Y-97500003D01*
X146605565Y-97499998D01*
X146600780Y-97457530D01*
X146600000Y-97443646D01*
X146600000Y-96324000D01*
X146619685Y-96256961D01*
X146672489Y-96211206D01*
X146724000Y-96200000D01*
X146743647Y-96200000D01*
X146757531Y-96200780D01*
G37*
G04 #@! TD.AperFunction*
G04 #@! TA.AperFunction,Conductor*
G36*
X161160160Y-96980185D02*
G01*
X161164622Y-96983190D01*
X161321313Y-97093796D01*
X161850404Y-97467273D01*
X161850439Y-97467297D01*
X161859381Y-97473466D01*
X161870563Y-97478872D01*
X161890900Y-97491242D01*
X161907669Y-97503796D01*
X161965415Y-97525333D01*
X161976040Y-97529872D01*
X161988914Y-97536097D01*
X161995654Y-97538238D01*
X162001847Y-97539775D01*
X162015298Y-97543938D01*
X162042517Y-97554091D01*
X162102127Y-97560500D01*
X163897872Y-97560499D01*
X163897873Y-97560498D01*
X163901196Y-97560321D01*
X163901201Y-97560426D01*
X163909163Y-97560000D01*
X164375500Y-97560000D01*
X164442539Y-97579685D01*
X164488294Y-97632489D01*
X164499500Y-97684000D01*
X164499500Y-99816000D01*
X164479815Y-99883039D01*
X164427011Y-99928794D01*
X164375500Y-99940000D01*
X163070094Y-99940000D01*
X163059286Y-99939528D01*
X163000001Y-99934341D01*
X162999999Y-99934341D01*
X162940714Y-99939528D01*
X162929906Y-99940000D01*
X162074500Y-99940000D01*
X162007461Y-99920315D01*
X161961706Y-99867511D01*
X161950500Y-99816000D01*
X161950500Y-98763705D01*
X161951809Y-98745735D01*
X161952385Y-98741799D01*
X161955289Y-98721977D01*
X161951551Y-98679254D01*
X161950972Y-98672630D01*
X161950500Y-98661822D01*
X161950500Y-98656296D01*
X161950500Y-98656291D01*
X161946901Y-98625509D01*
X161946536Y-98621929D01*
X161939999Y-98547201D01*
X161938539Y-98540129D01*
X161938597Y-98540116D01*
X161936965Y-98532757D01*
X161936906Y-98532772D01*
X161935241Y-98525751D01*
X161935241Y-98525745D01*
X161909569Y-98455212D01*
X161908421Y-98451909D01*
X161884814Y-98380666D01*
X161884810Y-98380659D01*
X161881760Y-98374118D01*
X161881815Y-98374091D01*
X161878533Y-98367313D01*
X161878480Y-98367340D01*
X161875235Y-98360880D01*
X161834025Y-98298223D01*
X161832086Y-98295181D01*
X161824662Y-98283144D01*
X161792712Y-98231345D01*
X161792711Y-98231344D01*
X161792710Y-98231342D01*
X161788234Y-98225682D01*
X161788281Y-98225644D01*
X161783519Y-98219799D01*
X161783474Y-98219838D01*
X161778831Y-98214305D01*
X161724273Y-98162832D01*
X161721686Y-98160319D01*
X160975729Y-97414361D01*
X160963949Y-97400730D01*
X160949610Y-97381470D01*
X160911651Y-97349619D01*
X160903686Y-97342318D01*
X160899780Y-97338411D01*
X160875443Y-97319168D01*
X160872647Y-97316890D01*
X160815214Y-97268698D01*
X160809180Y-97264729D01*
X160809212Y-97264680D01*
X160802853Y-97260628D01*
X160802822Y-97260679D01*
X160796680Y-97256891D01*
X160796678Y-97256890D01*
X160796677Y-97256889D01*
X160728688Y-97225184D01*
X160725447Y-97223615D01*
X160669088Y-97195311D01*
X160618013Y-97147633D01*
X160600823Y-97079911D01*
X160622975Y-97013646D01*
X160677436Y-96969877D01*
X160724738Y-96960500D01*
X161093121Y-96960500D01*
X161160160Y-96980185D01*
G37*
G04 #@! TD.AperFunction*
G04 #@! TA.AperFunction,Conductor*
G36*
X159495203Y-96456195D02*
G01*
X159532977Y-96514973D01*
X159533077Y-96515314D01*
X159545445Y-96557887D01*
X159624282Y-96691194D01*
X159624289Y-96691203D01*
X159733796Y-96800710D01*
X159733800Y-96800713D01*
X159733802Y-96800715D01*
X159867113Y-96879555D01*
X159959597Y-96906424D01*
X160018482Y-96944030D01*
X160047689Y-97007502D01*
X160037943Y-97076689D01*
X159992340Y-97129623D01*
X159925357Y-97149499D01*
X159925002Y-97149500D01*
X159414000Y-97149500D01*
X159346961Y-97129815D01*
X159301206Y-97077011D01*
X159290000Y-97025500D01*
X159290000Y-96549908D01*
X159309685Y-96482869D01*
X159362489Y-96437114D01*
X159431647Y-96427170D01*
X159495203Y-96456195D01*
G37*
G04 #@! TD.AperFunction*
G04 #@! TA.AperFunction,Conductor*
G36*
X153473811Y-92100427D02*
G01*
X153473817Y-92100322D01*
X153477102Y-92100497D01*
X153477127Y-92100500D01*
X154222872Y-92100499D01*
X154222873Y-92100498D01*
X154226195Y-92100321D01*
X154226200Y-92100426D01*
X154234163Y-92100000D01*
X155615833Y-92100000D01*
X155623811Y-92100427D01*
X155623817Y-92100322D01*
X155627102Y-92100497D01*
X155627127Y-92100500D01*
X155976000Y-92100499D01*
X156043039Y-92120183D01*
X156088794Y-92172987D01*
X156100000Y-92224499D01*
X156100000Y-93143647D01*
X156099220Y-93157531D01*
X156094435Y-93199998D01*
X156094435Y-93200003D01*
X156114630Y-93379249D01*
X156114633Y-93379262D01*
X156176510Y-93556094D01*
X156174364Y-93556844D01*
X156183962Y-93615144D01*
X156175609Y-93643590D01*
X156176510Y-93643906D01*
X156114633Y-93820737D01*
X156114630Y-93820750D01*
X156094435Y-93999996D01*
X156094435Y-94000003D01*
X156114630Y-94179249D01*
X156114633Y-94179262D01*
X156176510Y-94356094D01*
X156174364Y-94356844D01*
X156183962Y-94415144D01*
X156175609Y-94443590D01*
X156176510Y-94443906D01*
X156114633Y-94620737D01*
X156114630Y-94620750D01*
X156094435Y-94799996D01*
X156094435Y-94800003D01*
X156114630Y-94979249D01*
X156114631Y-94979254D01*
X156174211Y-95149523D01*
X156270184Y-95302262D01*
X156402662Y-95434740D01*
X156401390Y-95436011D01*
X156436295Y-95485740D01*
X156439145Y-95555552D01*
X156403800Y-95615822D01*
X156341482Y-95647416D01*
X156318842Y-95649500D01*
X154979071Y-95649500D01*
X154974923Y-95649431D01*
X154949050Y-95648565D01*
X154949041Y-95648565D01*
X154940990Y-95649448D01*
X154909641Y-95653983D01*
X154905155Y-95654549D01*
X154884809Y-95656738D01*
X154884546Y-95654302D01*
X154826810Y-95651206D01*
X154770139Y-95610338D01*
X154744559Y-95545320D01*
X154749748Y-95497167D01*
X154756307Y-95476254D01*
X154764654Y-95446474D01*
X154765653Y-95441184D01*
X154766222Y-95441291D01*
X154770651Y-95421310D01*
X154785368Y-95379255D01*
X154785369Y-95379247D01*
X154805565Y-95200003D01*
X154805565Y-95199996D01*
X154785369Y-95020750D01*
X154785368Y-95020745D01*
X154767657Y-94970131D01*
X154725789Y-94850478D01*
X154629816Y-94697738D01*
X154502262Y-94570184D01*
X154484606Y-94559090D01*
X154349523Y-94474211D01*
X154179254Y-94414631D01*
X154179249Y-94414630D01*
X154000004Y-94394435D01*
X153999998Y-94394435D01*
X153957531Y-94399220D01*
X153943647Y-94400000D01*
X153256350Y-94400000D01*
X153242466Y-94399220D01*
X153199999Y-94394435D01*
X153199995Y-94394435D01*
X153157528Y-94399220D01*
X153143644Y-94400000D01*
X152934000Y-94400000D01*
X152866961Y-94380315D01*
X152821206Y-94327511D01*
X152810000Y-94276000D01*
X152810000Y-92224000D01*
X152829685Y-92156961D01*
X152882489Y-92111206D01*
X152934000Y-92100000D01*
X153465833Y-92100000D01*
X153473811Y-92100427D01*
G37*
G04 #@! TD.AperFunction*
G04 #@! TA.AperFunction,Conductor*
G36*
X142957694Y-90915642D02*
G01*
X143008097Y-90964029D01*
X143024500Y-91025664D01*
X143024500Y-91374333D01*
X143004815Y-91441372D01*
X142952011Y-91487127D01*
X142882853Y-91497071D01*
X142819297Y-91468046D01*
X142783458Y-91415286D01*
X142756958Y-91339551D01*
X142750000Y-91298598D01*
X142750000Y-91101397D01*
X142756957Y-91060447D01*
X142783460Y-90984706D01*
X142824180Y-90927933D01*
X142889133Y-90902186D01*
X142957694Y-90915642D01*
G37*
G04 #@! TD.AperFunction*
M02*
